<svg width="19" height="23" viewBox="0 0 19 23" fill="none" xmlns="http://www.w3.org/2000/svg">
<path fill-rule="evenodd" clip-rule="evenodd" d="M13.5695 0.157959C13.715 1.50284 13.1906 2.8281 12.4242 3.80223C11.6245 4.7612 10.345 5.49468 9.09895 5.40021C8.93584 4.10614 9.56722 2.73007 10.274 1.89052C11.0729 0.937791 12.4602 0.207868 13.5695 0.157959ZM17.6487 7.91607C17.5097 8.00043 15.2051 9.39839 15.2303 12.2494C15.2593 15.6922 18.1934 16.8303 18.2294 16.8428C18.2118 16.923 17.7699 18.4853 16.6693 20.0718C15.7503 21.4683 14.7875 22.8337 13.2582 22.8586C12.5311 22.8757 12.0401 22.6632 11.5286 22.4417C10.995 22.2108 10.4389 21.9701 9.56898 21.9701C8.64671 21.9701 8.06597 22.2185 7.50587 22.4581C7.02163 22.6652 6.55282 22.8657 5.89208 22.8934C4.43553 22.9478 3.32272 21.4024 2.3704 20.0183C0.466617 17.1922 -1.01537 12.0542 0.971719 8.55786C1.93457 6.84313 3.69015 5.73888 5.56674 5.70947C6.39311 5.6923 7.18569 6.01597 7.88049 6.29971C8.41182 6.5167 8.88597 6.71033 9.27433 6.71033C9.61544 6.71033 10.0763 6.52444 10.6134 6.30778C11.4599 5.96634 12.4958 5.54848 13.551 5.66135C14.2727 5.68273 16.3265 5.951 17.6515 7.91439L17.6487 7.91607Z" fill="white"/>
</svg>
