<svg width="112" height="112" viewBox="0 0 112 112" fill="none" xmlns="http://www.w3.org/2000/svg">
<path d="M73.6004 13.1117L58.7592 16.0861L37.538 58.6533C37.4167 58.8963 37.1564 59.0374 36.8867 59.0073C36.5132 58.9657 36.1543 58.9077 35.8118 58.8326C34.9304 58.6395 34.0811 58.421 33.2742 58.1836C32.8897 58.0703 32.7004 57.638 32.8785 57.2785C33.2134 56.6024 33.6779 55.6671 33.6779 55.6671L55 12.9026C55.3295 12.2417 55.9459 11.7695 56.6702 11.6243L72.6612 8.41776C73.9566 8.15902 75.2168 8.99961 75.4772 10.2955C75.7368 11.5911 74.8962 12.8513 73.6004 13.1117Z" fill="url(#paint0_linear_0_1328)"/>
<path d="M55.0001 12.9026L54.4813 13.943L58.7592 16.0861L55.9106 11.9183C55.524 12.15 55.2061 12.4895 55.0001 12.9026Z" fill="url(#paint1_linear_0_1328)"/>
<path d="M56.6697 11.6246C56.3982 11.6786 56.1421 11.7789 55.9106 11.9182L58.7593 16.0861L58.5236 11.2525L56.6697 11.6246Z" fill="url(#paint2_linear_0_1328)"/>
<path d="M61.4128 99.3776L35.2606 98.6739C34.4905 98.6536 33.8592 97.9984 33.8498 97.2115L33.8238 94.8956L62.7651 95.6742L62.7911 97.9901C62.7999 98.7773 62.1826 99.3988 61.4128 99.3776Z" fill="url(#paint3_linear_0_1328)"/>
<path d="M61.2304 96.6482L35.2027 96.4503C33.3091 96.4355 31.7557 94.9469 31.6606 93.0558L28.4542 29.069L69.0028 29.3774L64.823 93.3079C64.6995 95.1975 63.1236 96.6625 61.2304 96.6482Z" fill="url(#paint4_linear_0_1328)"/>
<path d="M28.7009 34.0003L28.7973 34.1254L66.2088 72.1105L69.0028 29.3775L28.4542 29.069L28.7009 34.0003Z" fill="url(#paint5_linear_0_1328)"/>
<path fill-rule="evenodd" clip-rule="evenodd" d="M46.1345 51.7292L30.3682 67.2576L30.0713 61.3174L62.4938 29.3846L62.5513 29.3279L68.8303 29.3757L46.1345 51.7292ZM67.1165 58.2345L68.683 34.2581L30.5937 71.7716L31.6614 93.056L31.6621 93.0695C31.6634 93.0959 31.6647 93.122 31.6672 93.1484L67.1165 58.2345ZM66.3603 69.7771L66.7969 63.1157L33.4396 95.9689C33.9597 96.2705 34.5615 96.4448 35.2024 96.4498L39.249 96.4806L66.3603 69.7771Z" fill="url(#paint6_linear_0_1328)"/>
<path d="M66.797 63.1156L66.3604 69.7771L65.1166 71.0021L62.0017 67.838L66.797 63.1156Z" fill="url(#paint7_linear_0_1328)"/>
<path d="M68.683 34.2581L67.1165 58.2345L59.719 65.5198L48.5032 54.1324L68.683 34.2581Z" fill="url(#paint8_linear_0_1328)"/>
<path d="M68.9933 32.0769L28.4226 31.7683L31.383 23.5916C31.7661 22.5325 32.7755 21.8299 33.9021 21.8387L63.666 22.0651C64.7923 22.0734 65.7909 22.7914 66.1582 23.8561L68.9933 32.0769Z" fill="url(#paint9_linear_0_1328)"/>
<path d="M69.5773 34.3925L27.8037 34.0745C26.8959 34.0677 26.1651 33.3262 26.172 32.4184L26.1947 29.4519C26.2021 28.5437 26.9433 27.8138 27.8511 27.8206L69.6247 28.1387C70.5325 28.1455 71.2633 28.887 71.2561 29.7943L71.2337 32.7613C71.2269 33.6691 70.4851 34.3994 69.5773 34.3925Z" fill="url(#paint10_linear_0_1328)"/>
<path d="M31.4753 89.3495L31.6606 93.0558C31.7557 94.9469 33.3092 96.4355 35.2028 96.4503L61.2304 96.6482C63.1237 96.6624 64.6996 95.1975 64.823 93.3079L65.065 89.605L31.4753 89.3495Z" fill="url(#paint11_linear_0_1328)"/>
<path d="M95.6504 98.5134H70.2248C69.514 98.5134 68.9374 97.9894 68.9374 97.3426V94.5134H96.9374V97.3426C96.9378 97.9894 96.3612 98.5134 95.6504 98.5134Z" fill="url(#paint12_linear_0_1328)"/>
<path d="M68.9374 94.5134V96.665L68.9937 96.6598L71.0319 98.5134H95.65C96.3608 98.5134 96.9374 97.9894 96.9374 97.3426V94.5134H68.9374Z" fill="url(#paint13_linear_0_1328)"/>
<path d="M97.1243 96.6902H69.3965C68.2437 96.6902 67.282 95.8175 67.1806 94.679L63.2604 50.6902H103.26L99.3402 94.679C99.2387 95.8175 98.2771 96.6902 97.1243 96.6902Z" fill="url(#paint14_linear_0_1328)"/>
<path d="M103.53 51.631H62.5299L65.4586 43.4083C65.8378 42.3432 66.8526 41.631 67.9909 41.631H98.0689C99.2072 41.631 100.222 42.3432 100.602 43.4083L103.53 51.631Z" fill="url(#paint15_linear_0_1328)"/>
<path d="M99.6502 89.2195L103.148 49.2195H63.1484L63.4479 52.6478L99.6502 89.2195Z" fill="url(#paint16_linear_0_1328)"/>
<path d="M74.2686 61.1218C74.1743 60.9919 74.0543 60.8794 73.9126 60.793L71.3362 59.2211C70.9325 58.9747 70.4214 58.9747 70.0172 59.2211L67.4412 60.793C67.074 61.0168 66.8507 61.4111 66.8507 61.8355V69.7178C66.8507 70.1277 67.0555 70.4892 67.3695 70.712L81.436 84.5268C81.6634 84.8352 82.0315 85.0363 82.4483 85.0363H87.6006C88.2909 85.0363 88.8507 84.4869 88.8507 83.8091V75.9267C88.8507 75.5324 88.6563 75.166 88.3351 74.9365L74.2686 61.1218Z" fill="url(#paint17_linear_0_1328)"/>
<path d="M101.164 83.7216L102.783 66.1159C102.848 65.414 102.302 64.8079 101.606 64.8079H64.9705C64.2743 64.8079 63.7288 65.414 63.7936 66.1159L65.4129 83.7216C65.4695 84.337 65.9798 84.8079 66.5902 84.8079H99.9866C100.597 84.8079 101.107 84.337 101.164 83.7216Z" fill="url(#paint18_linear_0_1328)"/>
<path d="M66.9067 68.8701C66.9067 69.2821 67.1115 69.6456 67.4255 69.8697L81.492 83.7594C81.7194 84.0694 82.0875 84.2717 82.5043 84.2717H87.6566C88.3468 84.2717 88.9067 83.7193 88.9067 83.0378V75.1127C88.9067 74.7162 88.7122 74.3478 88.391 74.1171L78.4207 64.2717H66.9067V68.8701Z" fill="url(#paint19_linear_0_1328)"/>
<path d="M90.7299 74.5733C90.7299 78.4393 87.5961 81.5731 83.7301 81.5731C79.8637 81.5731 76.7299 78.4393 76.7299 74.5733C76.7299 70.7069 79.8637 67.5731 83.7301 67.5731C87.5961 67.5731 90.7299 70.7069 90.7299 74.5733Z" fill="url(#paint20_linear_0_1328)"/>
<path d="M89.7884 78.4853V75.4851C89.7884 75.0922 89.5987 74.7271 89.2853 74.4984L82.6142 67.8079C79.3058 68.3818 76.7884 71.2725 76.7884 74.7553C76.7884 78.6504 79.937 81.8079 83.8208 81.8079C86.3382 81.8079 88.5457 80.4804 89.7884 78.4853Z" fill="url(#paint21_linear_0_1328)"/>
<path fill-rule="evenodd" clip-rule="evenodd" d="M72.0796 58.3319L74.7732 59.9158C75.1566 60.1413 75.3901 60.5386 75.3901 60.9663V68.9087C75.3901 69.5917 74.8052 70.1458 74.0836 70.1458H68.697C67.9754 70.1458 67.3901 69.5917 67.3901 68.9087V60.9663C67.3901 60.5386 67.6235 60.1413 68.0075 59.9158L70.7005 58.3319C71.1231 58.0837 71.6575 58.0837 72.0796 58.3319ZM70.2081 61.0529C70.2081 61.6708 70.7373 62.1716 71.3901 62.1716C72.0428 62.1716 72.572 61.6708 72.572 61.0529C72.572 60.4355 72.0428 59.9346 71.3901 59.9346C70.7373 59.9346 70.2081 60.4355 70.2081 61.0529Z" fill="url(#paint22_linear_0_1328)"/>
<path d="M71.2218 62.4396C70.6698 62.4396 70.2221 62.0824 70.2221 61.6416V53.2377C70.2221 52.7969 70.6698 52.4396 71.2218 52.4396C71.7744 52.4396 72.2221 52.7969 72.2221 53.2377V61.6416C72.2221 62.0824 71.7744 62.4396 71.2218 62.4396Z" fill="url(#paint23_linear_0_1328)"/>
<path d="M104 54.1018H62.2833C61.3768 54.1018 60.6419 53.3958 60.6419 52.525V49.6787C60.6419 48.8078 61.3768 48.1018 62.2833 48.1018H104C104.907 48.1018 105.642 48.8078 105.642 49.6787V52.525C105.642 53.3958 104.907 54.1018 104 54.1018Z" fill="url(#paint24_linear_0_1328)"/>
<path d="M67.1218 84.2207L67.9822 94.1459C68.084 95.3204 69.0497 96.2207 70.2067 96.2207H98.0369C99.194 96.2207 100.159 95.3204 100.261 94.1459L101.122 84.2207H67.1218Z" fill="url(#paint25_linear_0_1328)"/>
<path d="M98.0369 96.2207C99.194 96.2207 100.159 95.3204 100.261 94.1459L101.122 84.2207H67.1218L78.8988 96.2207H98.0369Z" fill="url(#paint26_linear_0_1328)"/>
<defs>
<linearGradient id="paint0_linear_0_1328" x1="39.8567" y1="24.5457" x2="42.7124" y2="29.0085" gradientUnits="userSpaceOnUse">
<stop stop-color="#FFD459"/>
<stop offset="0.2296" stop-color="#FFD355"/>
<stop offset="0.4362" stop-color="#FFCF4A"/>
<stop offset="0.634" stop-color="#FFC838"/>
<stop offset="0.825" stop-color="#FFBF1F"/>
<stop offset="1" stop-color="#FFB400"/>
</linearGradient>
<linearGradient id="paint1_linear_0_1328" x1="54.676" y1="10.1534" x2="50.8309" y2="13.1701" gradientUnits="userSpaceOnUse">
<stop stop-color="#E58200" stop-opacity="0.01"/>
<stop offset="0.0396" stop-color="#E27F04" stop-opacity="0.039216"/>
<stop offset="0.4671" stop-color="#C15D2F" stop-opacity="0.466667"/>
<stop offset="0.8016" stop-color="#AD4949" stop-opacity="0.8"/>
<stop offset="1" stop-color="#A64153"/>
</linearGradient>
<linearGradient id="paint2_linear_0_1328" x1="55.7858" y1="9.71798" x2="52.1687" y2="12.1869" gradientUnits="userSpaceOnUse">
<stop stop-color="#E58200" stop-opacity="0.01"/>
<stop offset="0.0396" stop-color="#E27F04" stop-opacity="0.039216"/>
<stop offset="0.4671" stop-color="#C15D2F" stop-opacity="0.466667"/>
<stop offset="0.8016" stop-color="#AD4949" stop-opacity="0.8"/>
<stop offset="1" stop-color="#A64153"/>
</linearGradient>
<linearGradient id="paint3_linear_0_1328" x1="27.3206" y1="108.263" x2="44.7235" y2="119.633" gradientUnits="userSpaceOnUse">
<stop stop-color="#F87777"/>
<stop offset="1" stop-color="#EE4242"/>
</linearGradient>
<linearGradient id="paint4_linear_0_1328" x1="-7.4801" y1="44.7974" x2="34.9548" y2="118.297" gradientUnits="userSpaceOnUse">
<stop stop-color="#ACD6FF"/>
<stop offset="1" stop-color="#5BBCFF"/>
</linearGradient>
<linearGradient id="paint5_linear_0_1328" x1="32.9486" y1="47.8083" x2="65.6451" y2="68.8742" gradientUnits="userSpaceOnUse">
<stop stop-color="#70B6FA"/>
<stop offset="1" stop-color="#5BBCFF" stop-opacity="0.01"/>
</linearGradient>
<linearGradient id="paint6_linear_0_1328" x1="25.8126" y1="86.32" x2="75.1377" y2="99.9822" gradientUnits="userSpaceOnUse">
<stop stop-color="#F8F6FB"/>
<stop offset="1" stop-color="#EFDCFB"/>
</linearGradient>
<linearGradient id="paint7_linear_0_1328" x1="91.308" y1="39.9562" x2="44.9149" y2="-10.8714" gradientUnits="userSpaceOnUse">
<stop stop-color="#A1B5D8" stop-opacity="0.01"/>
<stop offset="0.0343" stop-color="#9FB3D5" stop-opacity="0.035294"/>
<stop offset="0.4515" stop-color="#8898AF" stop-opacity="0.45098"/>
<stop offset="0.788" stop-color="#798898" stop-opacity="0.788235"/>
<stop offset="1" stop-color="#748290"/>
</linearGradient>
<linearGradient id="paint8_linear_0_1328" x1="103.048" y1="30.9971" x2="58.9157" y2="-21.5863" gradientUnits="userSpaceOnUse">
<stop stop-color="#A1B5D8" stop-opacity="0.01"/>
<stop offset="0.0343" stop-color="#9FB3D5" stop-opacity="0.035294"/>
<stop offset="0.4515" stop-color="#8898AF" stop-opacity="0.45098"/>
<stop offset="0.788" stop-color="#798898" stop-opacity="0.788235"/>
<stop offset="1" stop-color="#748290"/>
</linearGradient>
<linearGradient id="paint9_linear_0_1328" x1="18.1162" y1="44.9305" x2="44.2612" y2="61.1103" gradientUnits="userSpaceOnUse">
<stop stop-color="#F87777"/>
<stop offset="1" stop-color="#EE4242"/>
</linearGradient>
<linearGradient id="paint10_linear_0_1328" x1="15.701" y1="49.0443" x2="41.7838" y2="66.656" gradientUnits="userSpaceOnUse">
<stop stop-color="#E76F6F"/>
<stop offset="1" stop-color="#EA3F3F"/>
</linearGradient>
<linearGradient id="paint11_linear_0_1328" x1="27.0516" y1="104.454" x2="51.9991" y2="115.895" gradientUnits="userSpaceOnUse">
<stop stop-color="#A9D3FB"/>
<stop offset="1" stop-color="#5BBCFF"/>
</linearGradient>
<linearGradient id="paint12_linear_0_1328" x1="77.2486" y1="97.177" x2="77.2486" y2="98.8024" gradientUnits="userSpaceOnUse">
<stop stop-color="#FFFCF8"/>
<stop offset="0.1875" stop-color="#FAF8F6"/>
<stop offset="0.4041" stop-color="#ECEEF2"/>
<stop offset="0.6353" stop-color="#D5DCEA"/>
<stop offset="0.875" stop-color="#B5C4DF"/>
<stop offset="1" stop-color="#A1B5D8"/>
</linearGradient>
<linearGradient id="paint13_linear_0_1328" x1="193.848" y1="103.978" x2="193.668" y2="72.9759" gradientUnits="userSpaceOnUse">
<stop stop-color="#A1B5D8" stop-opacity="0.01"/>
<stop offset="0.0343" stop-color="#9FB3D5" stop-opacity="0.035294"/>
<stop offset="0.4515" stop-color="#8898AF" stop-opacity="0.45098"/>
<stop offset="0.788" stop-color="#798898" stop-opacity="0.788235"/>
<stop offset="1" stop-color="#748290"/>
</linearGradient>
<linearGradient id="paint14_linear_0_1328" x1="76.7416" y1="89.4578" x2="104.163" y2="89.4578" gradientUnits="userSpaceOnUse">
<stop stop-color="#FFFCF8"/>
<stop offset="0.1875" stop-color="#FAF8F6"/>
<stop offset="0.4041" stop-color="#ECEEF2"/>
<stop offset="0.6353" stop-color="#D5DCEA"/>
<stop offset="0.875" stop-color="#B5C4DF"/>
<stop offset="1" stop-color="#A1B5D8"/>
</linearGradient>
<linearGradient id="paint15_linear_0_1328" x1="59.8672" y1="50.2422" x2="90.3217" y2="63.2995" gradientUnits="userSpaceOnUse">
<stop stop-color="#D88E46"/>
<stop offset="1" stop-color="#BF6D2A"/>
</linearGradient>
<linearGradient id="paint16_linear_0_1328" x1="106.43" y1="62.5688" x2="97.7368" y2="23.3991" gradientUnits="userSpaceOnUse">
<stop stop-color="#A1B5D8" stop-opacity="0.01"/>
<stop offset="0.0343" stop-color="#9FB3D5" stop-opacity="0.035294"/>
<stop offset="0.4515" stop-color="#8898AF" stop-opacity="0.45098"/>
<stop offset="0.788" stop-color="#798898" stop-opacity="0.788235"/>
<stop offset="1" stop-color="#748290"/>
</linearGradient>
<linearGradient id="paint17_linear_0_1328" x1="83.2875" y1="65.0406" x2="68.4296" y2="54.5931" gradientUnits="userSpaceOnUse">
<stop stop-color="#A1B5D8" stop-opacity="0.01"/>
<stop offset="0.0343" stop-color="#9FB3D5" stop-opacity="0.035294"/>
<stop offset="0.4515" stop-color="#8898AF" stop-opacity="0.45098"/>
<stop offset="0.788" stop-color="#798898" stop-opacity="0.788235"/>
<stop offset="1" stop-color="#748290"/>
</linearGradient>
<linearGradient id="paint18_linear_0_1328" x1="52.6806" y1="75.7795" x2="66.9266" y2="101.258" gradientUnits="userSpaceOnUse">
<stop stop-color="#FFC198"/>
<stop offset="1" stop-color="#FFA162"/>
</linearGradient>
<linearGradient id="paint19_linear_0_1328" x1="91.9526" y1="62.0309" x2="70.3555" y2="36.2269" gradientUnits="userSpaceOnUse">
<stop stop-color="#FF0084" stop-opacity="0.01"/>
<stop offset="0.0737" stop-color="#F4087E" stop-opacity="0.07451"/>
<stop offset="0.3347" stop-color="#D2216B" stop-opacity="0.333333"/>
<stop offset="0.583" stop-color="#BA335E" stop-opacity="0.584314"/>
<stop offset="0.8111" stop-color="#AB3D56" stop-opacity="0.811765"/>
<stop offset="1" stop-color="#A64153"/>
</linearGradient>
<linearGradient id="paint20_linear_0_1328" x1="96.6489" y1="55.0603" x2="67.7008" y2="65.1019" gradientUnits="userSpaceOnUse">
<stop stop-color="#FFA981"/>
<stop offset="0.428" stop-color="#FF8666"/>
<stop offset="1" stop-color="#FF5C45"/>
</linearGradient>
<linearGradient id="paint21_linear_0_1328" x1="95.2846" y1="55.295" x2="68.0006" y2="64.0834" gradientUnits="userSpaceOnUse">
<stop stop-color="#FFA981"/>
<stop offset="0.428" stop-color="#FF8666"/>
<stop offset="1" stop-color="#FF5C45"/>
</linearGradient>
<linearGradient id="paint22_linear_0_1328" x1="68.7021" y1="69.2035" x2="75.4456" y2="69.2035" gradientUnits="userSpaceOnUse">
<stop stop-color="#8BE1E2"/>
<stop offset="0.1873" stop-color="#87E1E1"/>
<stop offset="0.3558" stop-color="#7CE2DD"/>
<stop offset="0.5172" stop-color="#6AE2D7"/>
<stop offset="0.6741" stop-color="#50E4CE"/>
<stop offset="0.8278" stop-color="#2FE5C2"/>
<stop offset="0.9772" stop-color="#07E7B4"/>
<stop offset="1" stop-color="#00E7B2"/>
</linearGradient>
<linearGradient id="paint23_linear_0_1328" x1="70.2219" y1="62.4397" x2="72.222" y2="62.4397" gradientUnits="userSpaceOnUse">
<stop stop-color="#45425A"/>
<stop offset="1" stop-color="#2D3251"/>
</linearGradient>
<linearGradient id="paint24_linear_0_1328" x1="57.7194" y1="53.2685" x2="82.2193" y2="72.4836" gradientUnits="userSpaceOnUse">
<stop stop-color="#DC934B"/>
<stop offset="1" stop-color="#DB843C"/>
</linearGradient>
<linearGradient id="paint25_linear_0_1328" x1="68.3671" y1="90.7834" x2="68.3671" y2="101.904" gradientUnits="userSpaceOnUse">
<stop stop-color="#A1B5D8" stop-opacity="0.01"/>
<stop offset="0.0343" stop-color="#9FB3D5" stop-opacity="0.035294"/>
<stop offset="0.4515" stop-color="#8898AF" stop-opacity="0.45098"/>
<stop offset="0.788" stop-color="#798898" stop-opacity="0.788235"/>
<stop offset="1" stop-color="#748290"/>
</linearGradient>
<linearGradient id="paint26_linear_0_1328" x1="121.026" y1="88.7657" x2="119.924" y2="63.9057" gradientUnits="userSpaceOnUse">
<stop stop-color="#A1B5D8" stop-opacity="0.01"/>
<stop offset="0.0343" stop-color="#9FB3D5" stop-opacity="0.035294"/>
<stop offset="0.4515" stop-color="#8898AF" stop-opacity="0.45098"/>
<stop offset="0.788" stop-color="#798898" stop-opacity="0.788235"/>
<stop offset="1" stop-color="#748290"/>
</linearGradient>
</defs>
</svg>
