<svg width="576" height="538" viewBox="0 0 576 538" fill="none" xmlns="http://www.w3.org/2000/svg">
<path fill-rule="evenodd" clip-rule="evenodd" d="M165 70L583 0V504V538H165V70Z" fill="white"/>
<path fill-rule="evenodd" clip-rule="evenodd" d="M199.133 70.7546L579.133 19V478.033V509H199.133V70.7546Z" fill="url(#paint0_linear_0_1384)"/>
<mask id="mask0_0_1384" style="mask-type:luminance" maskUnits="userSpaceOnUse" x="199" y="19" width="381" height="490">
<path fill-rule="evenodd" clip-rule="evenodd" d="M199.133 70.7546L579.133 19V478.033V509H199.133V70.7546Z" fill="white"/>
</mask>
<g mask="url(#mask0_0_1384)">
<path fill-rule="evenodd" clip-rule="evenodd" d="M180.601 162.845L185.023 243.74L228.801 242.211L227.572 161.205L180.601 162.845Z" fill="#FDE3C2"/>
<path fill-rule="evenodd" clip-rule="evenodd" d="M228.418 241.22L237.495 240.903L239.642 161.492L227.246 160.211L228.418 241.22Z" fill="#E9C3AF"/>
<path fill-rule="evenodd" clip-rule="evenodd" d="M185.101 243.766L229.074 242.231L228.899 237.234L185.101 243.766Z" fill="#E9C3AF"/>
<mask id="mask1_0_1384" style="mask-type:luminance" maskUnits="userSpaceOnUse" x="190" y="194" width="28" height="33">
<path fill-rule="evenodd" clip-rule="evenodd" d="M202.541 197.182C195.192 201.622 190.017 211.205 190.981 218.586C191.946 225.966 198.685 228.35 206.034 223.907C213.385 219.465 218.56 209.881 217.593 202.504C216.942 197.506 213.641 194.801 209.297 194.953C207.224 195.025 204.916 195.748 202.541 197.182Z" fill="white"/>
</mask>
<g mask="url(#mask1_0_1384)">
<path fill-rule="evenodd" clip-rule="evenodd" d="M202.541 197.182C195.192 201.622 190.017 211.205 190.981 218.586C191.946 225.966 198.685 228.35 206.034 223.907C213.385 219.465 218.56 209.881 217.593 202.504C216.942 197.506 213.641 194.801 209.297 194.953C207.224 195.025 204.916 195.748 202.541 197.182Z" fill="url(#paint1_linear_0_1384)"/>
</g>
<mask id="mask2_0_1384" style="mask-type:luminance" maskUnits="userSpaceOnUse" x="191" y="184" width="33" height="35">
<path fill-rule="evenodd" clip-rule="evenodd" d="M211.336 197.881C208.126 201.947 205.214 206.26 202.497 210.724C202.216 210.514 201.941 210.294 201.665 210.082C200.62 209.266 199.522 208.517 198.423 207.766C196.227 206.264 193.971 204.84 191.529 203.64C192.966 206.091 194.579 208.317 196.256 210.468C197.095 211.543 197.931 212.616 198.823 213.624C199.709 214.642 200.555 215.705 201.484 216.666L203.314 218.556L205.19 216.249C209.005 211.562 212.494 206.608 215.638 201.377C218.786 196.146 221.701 190.73 223.826 184.669C219.058 188.584 215.083 193.14 211.336 197.881Z" fill="white"/>
</mask>
<g mask="url(#mask2_0_1384)">
<path fill-rule="evenodd" clip-rule="evenodd" d="M211.336 197.881C208.126 201.947 205.214 206.26 202.497 210.724C202.216 210.514 201.941 210.294 201.665 210.082C200.62 209.266 199.522 208.517 198.423 207.766C196.227 206.264 193.971 204.84 191.529 203.64C192.966 206.091 194.579 208.317 196.256 210.468C197.095 211.543 197.931 212.616 198.823 213.624C199.709 214.642 200.555 215.705 201.484 216.666L203.314 218.556L205.19 216.249C209.005 211.562 212.494 206.608 215.638 201.377C218.786 196.146 221.701 190.73 223.826 184.669C219.058 188.584 215.083 193.14 211.336 197.881Z" fill="url(#paint2_linear_0_1384)"/>
</g>
<path fill-rule="evenodd" clip-rule="evenodd" d="M278.563 239.428L235.227 240.941L230.818 160.047L277.318 158.423L278.563 239.428Z" fill="#FDE3C2"/>
<path fill-rule="evenodd" clip-rule="evenodd" d="M277.317 158.424L289.162 159.726L287.234 239.126L278.562 239.429L277.317 158.424Z" fill="#E9C3AF"/>
<path fill-rule="evenodd" clip-rule="evenodd" d="M235.227 240.941L278.562 239.428L278.447 236.13L235.227 240.941Z" fill="#E9C3AF"/>
<mask id="mask3_0_1384" style="mask-type:luminance" maskUnits="userSpaceOnUse" x="243" y="192" width="28" height="33">
<path fill-rule="evenodd" clip-rule="evenodd" d="M255.534 195.182C248.185 199.622 243.008 209.206 243.973 216.586C244.939 223.966 251.679 226.35 259.03 221.907C266.377 217.465 271.554 207.882 270.59 200.504C269.935 195.506 266.635 192.801 262.289 192.953C260.218 193.025 257.908 193.748 255.534 195.182Z" fill="white"/>
</mask>
<g mask="url(#mask3_0_1384)">
<path fill-rule="evenodd" clip-rule="evenodd" d="M255.534 195.182C248.185 199.622 243.008 209.206 243.973 216.586C244.939 223.966 251.679 226.35 259.03 221.907C266.377 217.465 271.554 207.882 270.59 200.504C269.935 195.506 266.635 192.801 262.289 192.953C260.218 193.025 257.908 193.748 255.534 195.182Z" fill="url(#paint3_linear_0_1384)"/>
</g>
<mask id="mask4_0_1384" style="mask-type:luminance" maskUnits="userSpaceOnUse" x="242" y="182" width="33" height="35">
<path fill-rule="evenodd" clip-rule="evenodd" d="M262.327 195.881C259.114 199.947 256.203 204.261 253.486 208.725C253.204 208.514 252.932 208.295 252.655 208.082C251.609 207.267 250.51 206.518 249.411 205.767C247.216 204.264 244.957 202.841 242.519 201.641C243.952 204.091 245.567 206.318 247.244 208.468C248.083 209.543 248.919 210.616 249.809 211.624C250.695 212.642 251.54 213.706 252.472 214.666L254.303 216.556L256.178 214.25C259.993 209.562 263.482 204.608 266.626 199.377C269.774 194.146 272.69 188.73 274.817 182.669C270.047 186.584 266.071 191.14 262.327 195.881Z" fill="white"/>
</mask>
<g mask="url(#mask4_0_1384)">
<path fill-rule="evenodd" clip-rule="evenodd" d="M262.327 195.881C259.114 199.947 256.203 204.261 253.486 208.725C253.204 208.514 252.932 208.295 252.655 208.082C251.609 207.267 250.51 206.518 249.411 205.767C247.216 204.264 244.957 202.841 242.519 201.641C243.952 204.091 245.567 206.318 247.244 208.468C248.083 209.543 248.919 210.616 249.809 211.624C250.695 212.642 251.54 213.706 252.472 214.666L254.303 216.556L256.178 214.25C259.993 209.562 263.482 204.608 266.626 199.377C269.774 194.146 272.69 188.73 274.817 182.669C270.047 186.584 266.071 191.14 262.327 195.881Z" fill="url(#paint4_linear_0_1384)"/>
</g>
<path fill-rule="evenodd" clip-rule="evenodd" d="M320.431 237.651L287.515 238.8L284.518 187.434L319.835 186.2L320.431 237.651Z" fill="#E3DCB1"/>
<path fill-rule="evenodd" clip-rule="evenodd" d="M319.836 186.2L328.826 186.975L327.017 237.42L320.432 237.65L319.836 186.2Z" fill="#A69A85"/>
<mask id="mask5_0_1384" style="mask-type:luminance" maskUnits="userSpaceOnUse" x="287" y="235" width="34" height="4">
<path fill-rule="evenodd" clip-rule="evenodd" d="M287.438 236.592L320.354 235.442L320.431 237.651L287.515 238.801L287.438 236.592Z" fill="white"/>
</mask>
<g mask="url(#mask5_0_1384)">
<path fill-rule="evenodd" clip-rule="evenodd" d="M287.515 238.8L320.431 237.651L320.358 235.558L287.515 238.8Z" fill="#A69A85"/>
</g>
<mask id="mask6_0_1384" style="mask-type:luminance" maskUnits="userSpaceOnUse" x="293" y="208" width="21" height="20">
<path fill-rule="evenodd" clip-rule="evenodd" d="M302.249 209.692C296.696 212.499 292.759 218.504 293.449 223.106C294.146 227.707 299.208 229.164 304.759 226.359C310.313 223.552 314.252 217.549 313.557 212.947C313.09 209.831 310.616 208.157 307.345 208.271C305.784 208.326 304.042 208.787 302.249 209.692Z" fill="white"/>
</mask>
<g mask="url(#mask6_0_1384)">
<path fill-rule="evenodd" clip-rule="evenodd" d="M302.249 209.692C296.696 212.499 292.759 218.504 293.449 223.106C294.146 227.707 299.208 229.164 304.759 226.359C310.313 223.552 314.252 217.549 313.557 212.947C313.09 209.831 310.616 208.157 307.345 208.271C305.784 208.326 304.042 208.787 302.249 209.692Z" fill="url(#paint5_linear_0_1384)"/>
</g>
<mask id="mask7_0_1384" style="mask-type:luminance" maskUnits="userSpaceOnUse" x="292" y="201" width="26" height="23">
<path fill-rule="evenodd" clip-rule="evenodd" d="M307.408 210.284C304.919 212.944 302.664 215.762 300.554 218.681C300.337 218.545 300.13 218.403 299.916 218.267C299.114 217.74 298.271 217.256 297.43 216.77C295.747 215.805 294.016 214.886 292.147 214.117C293.238 215.705 294.473 217.145 295.753 218.539C296.392 219.234 297.033 219.931 297.713 220.584C298.391 221.243 299.037 221.933 299.75 222.552L301.151 223.773L302.604 222.265C305.556 219.2 308.264 215.96 310.703 212.541C313.144 209.123 315.412 205.585 317.071 201.633C313.386 204.196 310.311 207.181 307.408 210.284Z" fill="white"/>
</mask>
<g mask="url(#mask7_0_1384)">
<path fill-rule="evenodd" clip-rule="evenodd" d="M307.408 210.284C304.919 212.944 302.664 215.762 300.554 218.681C300.337 218.545 300.13 218.403 299.916 218.267C299.114 217.74 298.271 217.256 297.43 216.77C295.747 215.805 294.016 214.886 292.147 214.117C293.238 215.705 294.473 217.145 295.753 218.539C296.392 219.234 297.033 219.931 297.713 220.584C298.391 221.243 299.037 221.933 299.75 222.552L301.151 223.773L302.604 222.265C305.556 219.2 308.264 215.96 310.703 212.541C313.144 209.123 315.412 205.585 317.071 201.633C313.386 204.196 310.311 207.181 307.408 210.284Z" fill="url(#paint6_linear_0_1384)"/>
</g>
<path fill-rule="evenodd" clip-rule="evenodd" d="M358.996 236.666L326.447 237.802L323.466 186.436L358.389 185.216L358.996 236.666Z" fill="#E3DCB1"/>
<mask id="mask8_0_1384" style="mask-type:luminance" maskUnits="userSpaceOnUse" x="357" y="184" width="13" height="53">
<path fill-rule="evenodd" clip-rule="evenodd" d="M357.2 185.257L367.239 184.906L369.034 236.315L358.996 236.665L357.2 185.257Z" fill="white"/>
</mask>
<g mask="url(#mask8_0_1384)">
<path fill-rule="evenodd" clip-rule="evenodd" d="M358.389 185.215L367.279 185.994L365.51 236.438L358.996 236.665L358.389 185.215Z" fill="#A69A85"/>
</g>
<mask id="mask9_0_1384" style="mask-type:luminance" maskUnits="userSpaceOnUse" x="326" y="234" width="33" height="4">
<path fill-rule="evenodd" clip-rule="evenodd" d="M326.37 235.594L358.919 234.457L358.996 236.666L326.447 237.803L326.37 235.594Z" fill="white"/>
</mask>
<g mask="url(#mask9_0_1384)">
<path fill-rule="evenodd" clip-rule="evenodd" d="M326.447 237.802L358.996 236.666L358.923 234.573L326.447 237.802Z" fill="#A69A85"/>
</g>
<mask id="mask10_0_1384" style="mask-type:luminance" maskUnits="userSpaceOnUse" x="332" y="206" width="21" height="20">
<path fill-rule="evenodd" clip-rule="evenodd" d="M341.297 207.69C335.689 210.499 331.708 216.506 332.405 221.107C333.103 225.709 338.218 227.163 343.828 224.356C349.436 221.547 353.418 215.543 352.718 210.941C352.247 207.825 349.749 206.152 346.444 206.268C344.868 206.323 343.11 206.785 341.297 207.69Z" fill="white"/>
</mask>
<g mask="url(#mask10_0_1384)">
<path fill-rule="evenodd" clip-rule="evenodd" d="M341.297 207.69C335.689 210.499 331.708 216.506 332.405 221.107C333.103 225.709 338.218 227.163 343.828 224.356C349.436 221.547 353.418 215.543 352.718 210.941C352.247 207.825 349.749 206.152 346.444 206.268C344.868 206.323 343.11 206.785 341.297 207.69Z" fill="url(#paint7_linear_0_1384)"/>
</g>
<mask id="mask11_0_1384" style="mask-type:luminance" maskUnits="userSpaceOnUse" x="331" y="200" width="25" height="23">
<path fill-rule="evenodd" clip-rule="evenodd" d="M345.898 209.285C343.483 211.942 341.294 214.758 339.249 217.674C339.04 217.538 338.837 217.396 338.631 217.26C337.852 216.732 337.033 216.247 336.216 215.76C334.578 214.793 332.899 213.872 331.08 213.102C332.144 214.691 333.34 216.132 334.586 217.528C335.21 218.223 335.833 218.92 336.494 219.575C337.151 220.234 337.779 220.924 338.472 221.544L339.834 222.767L341.241 221.26C344.107 218.198 346.73 214.962 349.097 211.544C351.467 208.129 353.666 204.594 355.273 200.643C351.697 203.203 348.711 206.185 345.898 209.285Z" fill="white"/>
</mask>
<g mask="url(#mask11_0_1384)">
<path fill-rule="evenodd" clip-rule="evenodd" d="M345.898 209.285C343.483 211.942 341.294 214.758 339.249 217.674C339.04 217.538 338.837 217.396 338.631 217.26C337.852 216.732 337.033 216.247 336.216 215.76C334.578 214.793 332.899 213.872 331.08 213.102C332.144 214.691 333.34 216.132 334.586 217.528C335.21 218.223 335.833 218.92 336.494 219.575C337.151 220.234 337.779 220.924 338.472 221.544L339.834 222.767L341.241 221.26C344.107 218.198 346.73 214.962 349.097 211.544C351.467 208.129 353.666 204.594 355.273 200.643C351.697 203.203 348.711 206.185 345.898 209.285Z" fill="url(#paint8_linear_0_1384)"/>
</g>
<path fill-rule="evenodd" clip-rule="evenodd" d="M343.464 185.424L310.335 186.581L307.301 134.319L342.847 133.078L343.464 185.424Z" fill="#E3DCB1"/>
<mask id="mask12_0_1384" style="mask-type:luminance" maskUnits="userSpaceOnUse" x="341" y="132" width="13" height="54">
<path fill-rule="evenodd" clip-rule="evenodd" d="M341.638 133.12L351.858 132.763L353.684 185.066L343.464 185.423L341.638 133.12Z" fill="white"/>
</mask>
<g mask="url(#mask12_0_1384)">
<path fill-rule="evenodd" clip-rule="evenodd" d="M342.847 133.077L351.896 133.87L350.094 185.192L343.464 185.423L342.847 133.077Z" fill="#A69A85"/>
</g>
<path fill-rule="evenodd" clip-rule="evenodd" d="M310.335 186.581L343.464 185.424L343.39 183.295L310.335 186.581Z" fill="#A69A85"/>
<mask id="mask13_0_1384" style="mask-type:luminance" maskUnits="userSpaceOnUse" x="316" y="155" width="21" height="20">
<path fill-rule="evenodd" clip-rule="evenodd" d="M325.131 156.56C319.521 159.369 315.54 165.376 316.24 169.98C316.94 174.581 322.052 176.038 327.663 173.229C333.269 170.42 337.252 164.415 336.554 159.814C336.081 156.697 333.583 155.023 330.279 155.138C328.702 155.193 326.942 155.655 325.131 156.56Z" fill="white"/>
</mask>
<g mask="url(#mask13_0_1384)">
<path fill-rule="evenodd" clip-rule="evenodd" d="M325.131 156.56C319.521 159.369 315.54 165.376 316.24 169.98C316.94 174.581 322.052 176.038 327.663 173.229C333.269 170.42 337.252 164.415 336.554 159.814C336.081 156.697 333.583 155.023 330.279 155.138C328.702 155.193 326.942 155.655 325.131 156.56Z" fill="url(#paint9_linear_0_1384)"/>
</g>
<mask id="mask14_0_1384" style="mask-type:luminance" maskUnits="userSpaceOnUse" x="315" y="149" width="26" height="23">
<path fill-rule="evenodd" clip-rule="evenodd" d="M330.424 157.97C327.938 160.662 325.682 163.516 323.574 166.473C323.357 166.333 323.15 166.191 322.935 166.054C322.134 165.519 321.293 165.029 320.449 164.538C318.768 163.558 317.034 162.624 315.164 161.844C316.256 163.455 317.492 164.915 318.773 166.325C319.412 167.031 320.053 167.737 320.736 168.399C321.412 169.064 322.06 169.765 322.771 170.393L324.171 171.631L325.625 170.106C328.579 166.998 331.28 163.721 333.72 160.259C336.16 156.799 338.427 153.216 340.084 149.212C336.4 151.809 333.326 154.83 330.424 157.97Z" fill="white"/>
</mask>
<g mask="url(#mask14_0_1384)">
<path fill-rule="evenodd" clip-rule="evenodd" d="M330.424 157.97C327.938 160.662 325.682 163.516 323.574 166.473C323.357 166.333 323.15 166.191 322.935 166.054C322.134 165.519 321.293 165.029 320.449 164.538C318.768 163.558 317.034 162.624 315.164 161.844C316.256 163.455 317.492 164.915 318.773 166.325C319.412 167.031 320.053 167.737 320.736 168.399C321.412 169.064 322.06 169.765 322.771 170.393L324.171 171.631L325.625 170.106C328.579 166.998 331.28 163.721 333.72 160.259C336.16 156.799 338.427 153.216 340.084 149.212C336.4 151.809 333.326 154.83 330.424 157.97Z" fill="url(#paint10_linear_0_1384)"/>
</g>
<path fill-rule="evenodd" clip-rule="evenodd" d="M147.989 429.662L150.596 450.852L145.941 506.268L153.108 454.924L182.993 453.502L152.55 451.463L152.27 432.512L200.401 430.072L147.989 429.662Z" fill="#FFFCE9"/>
<path fill-rule="evenodd" clip-rule="evenodd" d="M198.996 432.312L197.506 451.463H186.707V446.371C186.707 446.371 193.548 446.422 193.886 441.889C194.218 437.447 193.18 432.719 193.18 432.719L198.996 432.312ZM205.979 508L201.095 505.25L197.828 454.213H186.426V504.791L148.026 508H205.979Z" fill="#F2B39A"/>
<path fill-rule="evenodd" clip-rule="evenodd" d="M204.407 451.462C211.598 450.958 218.789 450.925 225.978 450.852C233.169 450.922 240.36 450.955 247.548 451.462C240.36 451.973 233.169 452.003 225.978 452.073C218.789 452 211.598 451.967 204.407 451.462Z" fill="#F0758F"/>
<path fill-rule="evenodd" clip-rule="evenodd" d="M198.402 429.662L201.008 450.852L196.354 506.268L203.521 454.924L233.405 453.502L202.963 451.463L202.682 432.512L250.813 430.072L198.402 429.662Z" fill="#FFFCE9"/>
<path fill-rule="evenodd" clip-rule="evenodd" d="M225.286 466.827L229.024 463.907L231.09 468.392L235.642 467.705L235.567 472.73L239.886 474.435L237.687 478.847L240.788 482.554L236.966 485.343L238.137 490.199L233.57 490.724L232.541 495.625L228.276 493.766L225.286 497.579L222.297 493.766L218.029 495.625L217.003 490.724L212.436 490.199L213.607 485.343L209.785 482.554L212.886 478.847L210.687 474.435L215.006 472.73L214.931 467.705L219.483 468.392L221.549 463.907L225.286 466.827Z" fill="#FFF8E2"/>
<path fill-rule="evenodd" clip-rule="evenodd" d="M249.408 432.312L247.918 451.463H237.119V446.371C237.119 446.371 243.96 446.422 244.298 441.889C244.63 437.447 243.592 432.719 243.592 432.719L249.408 432.312ZM256.388 508L251.508 505.25L248.241 454.213H236.838V504.791L198.439 508H256.388Z" fill="#F2B39A"/>
<path fill-rule="evenodd" clip-rule="evenodd" d="M254.322 451.462C261.513 450.958 268.705 450.925 275.893 450.852C283.084 450.922 290.272 450.955 297.464 451.462C290.272 451.973 283.084 452.003 275.893 452.073C268.705 452 261.513 451.967 254.322 451.462Z" fill="#F0758F"/>
<path fill-rule="evenodd" clip-rule="evenodd" d="M248.317 429.662L250.923 450.852L246.269 506.268L253.436 454.924L283.32 453.502L252.878 451.463L252.597 432.512L300.728 430.072L248.317 429.662Z" fill="#FFFCE9"/>
<path fill-rule="evenodd" clip-rule="evenodd" d="M275.202 466.827L278.939 463.907L281.005 468.392L285.557 467.705L285.482 472.73L289.802 474.435L287.602 478.847L290.703 482.554L286.882 485.343L288.052 490.199L283.485 490.724L282.456 495.625L278.191 493.766L275.202 497.579L272.212 493.766L267.944 495.625L266.918 490.724L262.352 490.199L263.522 485.343L259.7 482.554L262.801 478.847L260.602 474.435L264.922 472.73L264.846 467.705L269.398 468.392L271.464 463.907L275.202 466.827Z" fill="#FFF8E2"/>
<path fill-rule="evenodd" clip-rule="evenodd" d="M299.323 432.312L297.833 451.463H287.034V446.371C287.034 446.371 293.876 446.422 294.213 441.889C294.545 437.447 293.508 432.719 293.508 432.719L299.323 432.312ZM306.303 508L301.423 505.25L298.156 454.213H286.754V504.791L248.354 508H306.303Z" fill="#F2B39A"/>
<path fill-rule="evenodd" clip-rule="evenodd" d="M300.345 409.634L303.65 435.924L297.749 504.673L306.838 440.978L344.728 439.208L306.13 436.679L305.776 413.174L366.8 410.141L300.345 409.634Z" fill="#FFFCE9"/>
<path fill-rule="evenodd" clip-rule="evenodd" d="M334.432 455.742L339.172 452.118L341.793 457.685L347.562 456.832L347.466 463.064L352.942 465.18L350.155 470.654L354.085 475.256L349.24 478.71L350.725 484.739L344.934 485.392L343.632 491.47L338.223 489.165L334.432 493.895L330.643 489.165L325.232 491.47L323.929 485.392L318.138 484.739L319.623 478.71L314.781 475.256L318.711 470.654L315.921 465.18L321.397 463.064L321.305 456.832L327.07 457.685L329.695 452.118L334.432 455.742Z" fill="#FFF8E2"/>
<mask id="mask15_0_1384" style="mask-type:luminance" maskUnits="userSpaceOnUse" x="299" y="412" width="74" height="95">
<path fill-rule="evenodd" clip-rule="evenodd" d="M372.993 412.922H299.514V506.821H372.993V412.922Z" fill="white"/>
</mask>
<g mask="url(#mask15_0_1384)">
<path fill-rule="evenodd" clip-rule="evenodd" d="M364.138 412.922L362.25 436.68H348.556V430.362C348.556 430.362 357.233 430.426 357.658 424.804C358.08 419.294 356.765 413.426 356.765 413.426L364.138 412.922ZM372.993 506.823L366.799 503.411L362.66 440.092H348.205V502.84L299.514 506.823H372.993Z" fill="#F2B39A"/>
</g>
<path fill-rule="evenodd" clip-rule="evenodd" d="M307.958 436.68C317.075 436.055 326.192 436.012 335.309 435.924C344.426 436.009 353.542 436.049 362.659 436.68C353.542 437.311 344.426 437.351 335.309 437.439C326.192 437.348 317.075 437.308 307.958 436.68Z" fill="#F0758F"/>
</g>
<mask id="mask16_0_1384" style="mask-type:luminance" maskUnits="userSpaceOnUse" x="412" y="413" width="39" height="96">
<path fill-rule="evenodd" clip-rule="evenodd" d="M412 413.724L413.797 509H449.042L450.838 413.724H412Z" fill="white"/>
</mask>
<g mask="url(#mask16_0_1384)">
<path fill-rule="evenodd" clip-rule="evenodd" d="M412 413.724L413.797 509H449.042L450.838 413.724H412Z" fill="url(#paint11_linear_0_1384)"/>
</g>
<path fill-rule="evenodd" clip-rule="evenodd" d="M416 483H445V438H416V483Z" fill="#F9C6B2"/>
<mask id="mask17_0_1384" style="mask-type:luminance" maskUnits="userSpaceOnUse" x="416" y="413" width="34" height="96">
<path fill-rule="evenodd" clip-rule="evenodd" d="M416.43 413.724H449.052V509H416.43V413.724Z" fill="white"/>
</mask>
<g mask="url(#mask17_0_1384)">
<path fill-rule="evenodd" clip-rule="evenodd" d="M416.43 413.724L417.136 509H449.052L423.736 504.71L424.09 413.724H416.43Z" fill="#F2B39A"/>
</g>
<mask id="mask18_0_1384" style="mask-type:luminance" maskUnits="userSpaceOnUse" x="453" y="413" width="40" height="96">
<path fill-rule="evenodd" clip-rule="evenodd" d="M453.257 413.724L455.063 509H490.486L492.294 413.724H453.257Z" fill="white"/>
</mask>
<g mask="url(#mask18_0_1384)">
<path fill-rule="evenodd" clip-rule="evenodd" d="M453.257 413.724L455.063 509H490.486L492.294 413.724H453.257Z" fill="url(#paint12_linear_0_1384)"/>
</g>
<path fill-rule="evenodd" clip-rule="evenodd" d="M457 483H486V438H457V483Z" fill="#F9C6B2"/>
<mask id="mask19_0_1384" style="mask-type:luminance" maskUnits="userSpaceOnUse" x="456" y="413" width="34" height="96">
<path fill-rule="evenodd" clip-rule="evenodd" d="M456.892 413.724H489.514V509H456.892V413.724Z" fill="white"/>
</mask>
<g mask="url(#mask19_0_1384)">
<path fill-rule="evenodd" clip-rule="evenodd" d="M456.892 413.724L457.598 509H489.514L464.198 504.71L464.552 413.724H456.892Z" fill="#F2B39A"/>
</g>
<mask id="mask20_0_1384" style="mask-type:luminance" maskUnits="userSpaceOnUse" x="493" y="413" width="40" height="96">
<path fill-rule="evenodd" clip-rule="evenodd" d="M493.711 413.724L495.52 509H530.942L532.751 413.724H493.711Z" fill="white"/>
</mask>
<g mask="url(#mask20_0_1384)">
<path fill-rule="evenodd" clip-rule="evenodd" d="M493.711 413.724L495.52 509H530.942L532.751 413.724H493.711Z" fill="url(#paint13_linear_0_1384)"/>
</g>
<path fill-rule="evenodd" clip-rule="evenodd" d="M498 483H527V438H498V483Z" fill="#F9C6B2"/>
<mask id="mask21_0_1384" style="mask-type:luminance" maskUnits="userSpaceOnUse" x="498" y="413" width="33" height="96">
<path fill-rule="evenodd" clip-rule="evenodd" d="M498.351 413.724H530.746V509H498.351V413.724Z" fill="white"/>
</mask>
<g mask="url(#mask21_0_1384)">
<path fill-rule="evenodd" clip-rule="evenodd" d="M498.351 413.724L499.053 509H530.746L505.606 504.71L505.958 413.724H498.351Z" fill="#F2B39A"/>
</g>
<mask id="mask22_0_1384" style="mask-type:luminance" maskUnits="userSpaceOnUse" x="540" y="413" width="39" height="96">
<path fill-rule="evenodd" clip-rule="evenodd" d="M540 413.724L541.797 509H577.042L578.838 413.724H540Z" fill="white"/>
</mask>
<g mask="url(#mask22_0_1384)">
<path fill-rule="evenodd" clip-rule="evenodd" d="M540 413.724L541.797 509H577.042L578.838 413.724H540Z" fill="url(#paint14_linear_0_1384)"/>
</g>
<path fill-rule="evenodd" clip-rule="evenodd" d="M544 483H573V438H544V483Z" fill="#F9C6B2"/>
<mask id="mask23_0_1384" style="mask-type:luminance" maskUnits="userSpaceOnUse" x="544" y="413" width="34" height="96">
<path fill-rule="evenodd" clip-rule="evenodd" d="M544.43 413.724H577.052V509H544.43V413.724Z" fill="white"/>
</mask>
<g mask="url(#mask23_0_1384)">
<path fill-rule="evenodd" clip-rule="evenodd" d="M544.43 413.724L545.136 509H577.052L551.736 504.71L552.09 413.724H544.43Z" fill="#F2B39A"/>
</g>
<mask id="mask24_0_1384" style="mask-type:luminance" maskUnits="userSpaceOnUse" x="435" y="317" width="39" height="96">
<path fill-rule="evenodd" clip-rule="evenodd" d="M435 317.724L436.797 413H472.042L473.838 317.724H435Z" fill="white"/>
</mask>
<g mask="url(#mask24_0_1384)">
<path fill-rule="evenodd" clip-rule="evenodd" d="M435 317.724L436.797 413H472.042L473.838 317.724H435Z" fill="url(#paint15_linear_0_1384)"/>
</g>
<path fill-rule="evenodd" clip-rule="evenodd" d="M439 387H468V342H439V387Z" fill="#F9C6B2"/>
<mask id="mask25_0_1384" style="mask-type:luminance" maskUnits="userSpaceOnUse" x="439" y="317" width="34" height="96">
<path fill-rule="evenodd" clip-rule="evenodd" d="M439.43 317.724H472.052V413H439.43V317.724Z" fill="white"/>
</mask>
<g mask="url(#mask25_0_1384)">
<path fill-rule="evenodd" clip-rule="evenodd" d="M439.43 317.724L440.136 413H472.052L446.736 408.71L447.09 317.724H439.43Z" fill="#F2B39A"/>
</g>
<mask id="mask26_0_1384" style="mask-type:luminance" maskUnits="userSpaceOnUse" x="476" y="317" width="40" height="96">
<path fill-rule="evenodd" clip-rule="evenodd" d="M476.257 317.724L478.063 413H513.486L515.294 317.724H476.257Z" fill="white"/>
</mask>
<g mask="url(#mask26_0_1384)">
<path fill-rule="evenodd" clip-rule="evenodd" d="M476.257 317.724L478.063 413H513.486L515.294 317.724H476.257Z" fill="url(#paint16_linear_0_1384)"/>
</g>
<path fill-rule="evenodd" clip-rule="evenodd" d="M480 387H509V342H480V387Z" fill="#F9C6B2"/>
<mask id="mask27_0_1384" style="mask-type:luminance" maskUnits="userSpaceOnUse" x="479" y="317" width="34" height="96">
<path fill-rule="evenodd" clip-rule="evenodd" d="M479.892 317.724H512.514V413H479.892V317.724Z" fill="white"/>
</mask>
<g mask="url(#mask27_0_1384)">
<path fill-rule="evenodd" clip-rule="evenodd" d="M479.892 317.724L480.598 413H512.514L487.198 408.71L487.552 317.724H479.892Z" fill="#F2B39A"/>
</g>
<mask id="mask28_0_1384" style="mask-type:luminance" maskUnits="userSpaceOnUse" x="516" y="317" width="40" height="96">
<path fill-rule="evenodd" clip-rule="evenodd" d="M516.711 317.724L518.52 413H553.942L555.751 317.724H516.711Z" fill="white"/>
</mask>
<g mask="url(#mask28_0_1384)">
<path fill-rule="evenodd" clip-rule="evenodd" d="M516.711 317.724L518.52 413H553.942L555.751 317.724H516.711Z" fill="url(#paint17_linear_0_1384)"/>
</g>
<path fill-rule="evenodd" clip-rule="evenodd" d="M521 387H550V342H521V387Z" fill="#F9C6B2"/>
<mask id="mask29_0_1384" style="mask-type:luminance" maskUnits="userSpaceOnUse" x="521" y="317" width="33" height="96">
<path fill-rule="evenodd" clip-rule="evenodd" d="M521.351 317.724H553.746V413H521.351V317.724Z" fill="white"/>
</mask>
<g mask="url(#mask29_0_1384)">
<path fill-rule="evenodd" clip-rule="evenodd" d="M521.351 317.724L522.053 413H553.746L528.606 408.71L528.958 317.724H521.351Z" fill="#F2B39A"/>
</g>
<path fill-rule="evenodd" clip-rule="evenodd" d="M400.44 40H377.826V230.739L140.654 247.429L142.226 270.053L377.826 253.473V538H400.44V251.882L637.612 235.191L636.04 212.568L400.44 229.148V40Z" fill="white"/>
<path fill-rule="evenodd" clip-rule="evenodd" d="M414.605 177.374C420.822 176.607 427.06 176.251 433.293 175.86C439.536 175.594 445.777 175.296 452.04 175.412C445.824 176.184 439.586 176.538 433.349 176.926C427.109 177.189 420.868 177.487 414.605 177.374Z" fill="#F0758F"/>
<path fill-rule="evenodd" clip-rule="evenodd" d="M408.398 158.632L411.628 176.996L410.123 225.542L413.995 180.433L439.859 177.834L413.352 177.44L412.242 160.923L453.892 156.607L408.398 158.632Z" fill="#FFFCE9"/>
<path fill-rule="evenodd" clip-rule="evenodd" d="M433.424 189.825L436.533 187.109L438.531 190.926L442.449 190.12L442.613 194.507L446.439 195.798L444.733 199.746L447.593 202.838L444.404 205.445L445.642 209.627L441.703 210.293L441.038 214.614L437.249 213.186L434.83 216.648L432.062 213.458L428.443 215.274L427.329 211.046L423.343 210.795L424.136 206.507L420.693 204.248L423.214 200.874L421.104 197.125L424.774 195.442L424.479 191.062L428.46 191.454L430.048 187.449L433.424 189.825Z" fill="#FFF8E2"/>
<path fill-rule="evenodd" clip-rule="evenodd" d="M452.776 158.624L452.358 175.396L442.988 175.887L442.755 171.445C442.755 171.445 448.694 171.179 448.78 167.21C448.865 163.32 447.748 159.243 447.748 159.243L452.776 158.624ZM462.294 224.323L457.931 222.147L452.764 177.78L442.87 178.298L445.182 222.413L412.011 226.958L462.294 224.323Z" fill="#F2B39A"/>
<path fill-rule="evenodd" clip-rule="evenodd" d="M458.035 175.098C464.251 174.331 470.49 173.975 476.723 173.584C482.966 173.318 489.207 173.02 495.467 173.136C489.254 173.908 483.015 174.262 476.779 174.65C470.539 174.913 464.298 175.211 458.035 175.098Z" fill="#F0758F"/>
<path fill-rule="evenodd" clip-rule="evenodd" d="M451.828 156.356L455.058 174.72L453.553 223.266L457.424 178.157L483.289 175.558L456.782 175.164L455.672 158.647L497.322 154.331L451.828 156.356Z" fill="#FFFCE9"/>
<path fill-rule="evenodd" clip-rule="evenodd" d="M476.854 187.549L479.963 184.833L481.961 188.65L485.879 187.844L486.043 192.231L489.869 193.522L488.163 197.47L491.023 200.562L487.834 203.169L489.072 207.351L485.133 208.017L484.465 212.338L480.679 210.91L478.26 214.372L475.492 211.182L471.873 212.998L470.759 208.77L466.773 208.519L467.566 204.231L464.122 201.972L466.644 198.598L464.534 194.849L468.204 193.166L467.909 188.786L471.89 189.178L473.478 185.173L476.854 187.549Z" fill="#FFF8E2"/>
<path fill-rule="evenodd" clip-rule="evenodd" d="M496.205 156.348L495.788 173.12L486.418 173.611L486.185 169.169C486.185 169.169 492.124 168.903 492.21 164.934C492.294 161.044 491.178 156.967 491.178 156.967L496.205 156.348ZM505.722 222.047L501.361 219.871L496.194 175.504L486.3 176.022L488.612 220.137L455.441 224.682L505.722 222.047Z" fill="#F2B39A"/>
<path fill-rule="evenodd" clip-rule="evenodd" d="M501.901 172.799C508.118 172.032 514.356 171.676 520.589 171.285C526.832 171.019 533.071 170.722 539.333 170.837C533.117 171.609 526.882 171.963 520.645 172.351C514.405 172.614 508.164 172.912 501.901 172.799Z" fill="#F0758F"/>
<path fill-rule="evenodd" clip-rule="evenodd" d="M495.694 154.057L498.924 172.421L497.419 220.968L501.291 175.858L527.155 173.259L500.648 172.865L499.538 156.349L541.188 152.032L495.694 154.057Z" fill="#FFFCE9"/>
<path fill-rule="evenodd" clip-rule="evenodd" d="M520.72 185.251L523.829 182.534L525.827 186.351L529.745 185.546L529.909 189.932L533.735 191.223L532.029 195.171L534.889 198.263L531.7 200.87L532.938 205.052L528.999 205.718L528.331 210.039L524.545 208.611L522.126 212.073L519.358 208.883L515.739 210.699L514.625 206.471L510.639 206.22L511.432 201.932L507.989 199.673L510.51 196.299L508.4 192.551L512.07 190.867L511.775 186.487L515.756 186.879L517.344 182.874L520.72 185.251Z" fill="#FFF8E2"/>
<path fill-rule="evenodd" clip-rule="evenodd" d="M540.072 154.049L539.654 170.821L530.284 171.312L530.051 166.87C530.051 166.87 535.99 166.604 536.076 162.635C536.161 158.745 535.044 154.669 535.044 154.669L540.072 154.049ZM549.588 219.748L545.227 217.572L540.06 173.205L530.166 173.723L532.478 217.839L499.307 222.383L549.588 219.748Z" fill="#F2B39A"/>
<path fill-rule="evenodd" clip-rule="evenodd" d="M539.639 134.704L543.706 157.359L541.704 217.268L546.706 161.598L579.55 158.338L545.895 157.902L544.519 137.527L597.407 132.117L539.639 134.704Z" fill="#FFFCE9"/>
<path fill-rule="evenodd" clip-rule="evenodd" d="M571.354 173.15L575.308 169.79L577.839 174.5L582.813 173.497L583.013 178.908L587.868 180.494L585.695 185.369L589.319 189.183L585.266 192.4L586.83 197.563L581.829 198.393L580.973 203.724L576.168 201.972L573.089 206.247L569.582 202.317L564.984 204.562L563.576 199.349L558.515 199.047L559.531 193.749L555.166 190.973L558.372 186.801L555.699 182.18L560.361 180.095L559.997 174.693L565.046 175.17L567.073 170.221L571.354 173.15Z" fill="#FFF8E2"/>
<mask id="mask30_0_1384" style="mask-type:luminance" maskUnits="userSpaceOnUse" x="539" y="134" width="69" height="86">
<path fill-rule="evenodd" clip-rule="evenodd" d="M602.915 134.248L539.066 137.594L543.335 219.051L607.184 215.705L602.915 134.248Z" fill="white"/>
</mask>
<g mask="url(#mask30_0_1384)">
<path fill-rule="evenodd" clip-rule="evenodd" d="M595.221 134.651L594.66 155.346L582.761 155.97L582.474 150.49C582.474 150.49 590.016 150.15 590.13 145.253C590.246 140.454 588.837 135.424 588.837 135.424L595.221 134.651ZM607.184 215.706L601.647 213.028L595.171 158.288L582.611 158.946L585.464 213.38L543.335 219.052L607.184 215.706Z" fill="#F2B39A"/>
</g>
<path fill-rule="evenodd" clip-rule="evenodd" d="M547.484 157.819C555.378 156.861 563.298 156.409 571.216 155.918C579.141 155.576 587.065 155.195 595.016 155.328C587.122 156.291 579.202 156.74 571.284 157.232C563.358 157.568 555.435 157.949 547.484 157.819Z" fill="#F0758F"/>
<path fill-rule="evenodd" clip-rule="evenodd" d="M199 70.7546L579 19V478.033V509H199V70.7546Z" fill="url(#paint18_linear_0_1384)" style="mix-blend-mode:color"/>
<path fill-rule="evenodd" clip-rule="evenodd" d="M118.31 289.251C119.345 279.255 142.323 273.1 160.235 264.929C160.235 264.929 183.68 262.286 230.57 257C257.006 262.981 278.116 271.295 278.116 271.295C298.364 443.927 265.819 514.458 188.75 466.107C140.213 387.04 106.696 336.131 118.31 289.251Z" fill="url(#paint19_linear_0_1384)"/>
<path fill-rule="evenodd" clip-rule="evenodd" d="M204.489 507C185.026 482.562 178.781 445.717 185.766 396.454C183.244 415.025 191.426 433.345 205.998 441.753C220.571 450.162 238.183 446.726 249.55 433.258C260.916 419.789 263.423 399.386 255.748 382.803C244.943 358.177 250.393 338.874 269.809 329C282.171 381.751 289.568 424.562 292 457.431L284.584 459.332C281.922 460.015 279.416 461.346 277.234 463.233L276.119 464.197C274.115 465.003 272.192 466.206 270.441 467.822L266.163 471.772L262.792 474.688C262.621 474.835 262.457 474.983 262.296 475.132C259.811 475.91 257.674 477.035 255.572 478.853L252.752 481.292L249.72 483.391L243.158 487.177C241.466 488.154 240.14 489.342 238.647 490.635L236.491 491.629C234.559 492.52 232.814 493.844 231.036 495.075L231.027 495.079L228.132 495.913C225.804 496.585 223.685 497.721 221.826 499.213L221.095 499.775C219.734 500.404 218.292 501.001 216.982 501.755L213.765 503.612C210.365 503.807 207.197 505.023 204.489 507Z" fill="url(#paint20_linear_0_1384)"/>
<path fill-rule="evenodd" clip-rule="evenodd" d="M212.508 209.005C214.157 209.553 216.254 208.587 218.635 206.119C219.91 205.757 220.716 205.01 221.861 203.949C223.33 202.586 225.359 200.705 229.657 198.456C243.225 164.771 215.039 153.695 146 182C144.572 186.507 147.251 211.224 149.484 218.012C149.988 219.594 150.68 218.767 151.245 218.093C151.318 218.007 151.388 217.923 151.455 217.847C150.926 217.357 150.46 216.775 151.311 217.024L175.856 219.284C180.687 224.68 185.486 226.827 190.332 225.716C174.777 243.802 167 252.845 167 252.845C169.36 257.167 170.425 261.231 170.197 265.033C194.973 271.891 212.241 267.618 222 244.209C216.242 231.46 212.818 210.914 212.508 209.005ZM152.226 218.432C152.156 217.225 151.854 217.399 151.455 217.847C151.806 218.172 152.185 218.456 152.226 218.432Z" fill="url(#paint21_linear_0_1384)"/>
<mask id="mask31_0_1384" style="mask-type:luminance" maskUnits="userSpaceOnUse" x="145" y="165" width="88" height="103">
<path fill-rule="evenodd" clip-rule="evenodd" d="M212.508 209.005C214.157 209.553 216.254 208.587 218.635 206.119C219.91 205.757 220.716 205.01 221.861 203.949C223.33 202.586 225.359 200.705 229.657 198.456C243.225 164.771 215.039 153.695 146 182C144.572 186.507 147.251 211.224 149.484 218.012C149.988 219.594 150.68 218.767 151.245 218.093C151.318 218.007 151.388 217.923 151.455 217.847C150.926 217.357 150.46 216.775 151.311 217.024L175.856 219.284C180.687 224.68 185.486 226.827 190.332 225.716C174.777 243.802 167 252.845 167 252.845C169.36 257.167 170.425 261.231 170.197 265.033C194.973 271.891 212.241 267.618 222 244.209C216.242 231.46 212.818 210.914 212.508 209.005ZM152.226 218.432C152.156 217.225 151.854 217.399 151.455 217.847C151.806 218.172 152.185 218.456 152.226 218.432Z" fill="white"/>
</mask>
<g mask="url(#mask31_0_1384)">
<path opacity="0.305339" fill-rule="evenodd" clip-rule="evenodd" d="M225 250.829C200.713 270.129 186.38 274.857 182 265.012C192.296 264.027 201.03 256.982 204.243 247.073C211.688 235.696 213.67 219.928 216.405 221.057C218.192 230.055 223.128 247.077 225 250.829Z" fill="url(#paint22_linear_0_1384)"/>
</g>
<path fill-rule="evenodd" clip-rule="evenodd" d="M197.938 290.113C209.543 284.516 219.208 274.719 228.008 261.975C228.626 261.138 229.808 259.155 229.959 256.798C230.241 252.173 229.076 247.01 226.466 241.308C225.288 238.652 223.243 238.29 221.913 240.213C215.752 249.623 202.911 257.944 183.387 265.178C176.468 263.618 170.603 258.793 167.658 252.077C167.015 250.629 165.657 250.635 164.556 252.132C162.622 254.862 161.372 257.038 160.805 258.661C159.828 261.158 159.874 263.019 160.243 264.44C161.959 272.198 166.078 279.95 172.601 287.697C175.169 290.583 177.627 290.757 178.42 288.218C178.42 288.218 180.06 283.324 183.34 273.539C188.211 284.705 190.645 290.289 190.645 290.289C191.843 292.982 193.841 292.041 196.973 290.564C197.283 290.418 197.605 290.267 197.938 290.113Z" fill="white"/>
<path fill-rule="evenodd" clip-rule="evenodd" d="M201.013 179.971C200.597 172.775 210.312 162.676 228.97 156C230.228 157.613 231.324 159.311 232.261 161.081C232.324 161.054 232.387 161.027 232.45 161C240.73 175.743 237.668 195.638 223.597 212.843C220.027 216.802 209.563 213.407 212.5 209C233 198 219.974 178.298 213 187.587C213.082 187.119 213.155 186.65 213.22 186.182C211.984 187.584 210.829 189.584 209.886 192.261C208.46 196.965 201.691 191.882 201.013 179.971Z" fill="url(#paint23_linear_0_1384)"/>
<path fill-rule="evenodd" clip-rule="evenodd" d="M210.06 204.868C216.117 223.962 207.326 239.801 192.93 248C193.004 247.789 193.075 247.58 193.143 247.373C186.094 251.604 177.611 253.992 168.817 254C156.009 254.022 149.616 243.716 149.004 219.102C148.933 215.984 149.371 216.037 151.547 216.301C152.589 216.427 154.028 216.601 156 216.5C158.06 216.364 159.848 216.202 161.422 216.06C168.227 215.443 171.026 215.19 174.5 219H177C177.943 219.969 179.589 219.869 181.217 219.771C181.856 219.733 182.493 219.694 183.083 219.721C183.048 219.552 183.02 219.381 183 219.206C190.268 222.755 200.935 219.418 205.11 205.129C206.287 200.949 208.847 201.053 210.06 204.868Z" fill="url(#paint24_linear_0_1384)"/>
<path opacity="0.267043" fill-rule="evenodd" clip-rule="evenodd" d="M217.994 189.086C216.079 188.485 213.634 191.092 212.533 194.91C211.432 198.728 212.092 202.311 214.006 202.914C215.92 203.516 218.365 200.908 219.467 197.09C220.568 193.271 219.909 189.688 217.994 189.086Z" fill="#E63D17"/>
<path fill-rule="evenodd" clip-rule="evenodd" d="M156 202.041C159.619 199.303 161.905 201.967 162.857 210.032C163.191 211.477 163.563 213.097 163.975 214.889L164 215C163.918 214.951 163.837 214.901 163.755 214.852L164.045 216.108C165.715 215.751 167.434 216.456 168.354 217.876C169.276 219.297 169.206 221.13 168.178 222.478C167.151 223.826 165.384 224.4 163.745 223.919C162.772 222.718 161.236 223.087 159.81 224.417C151.026 226.981 147.344 220.663 152.078 213.736C154.062 210.877 155.172 207.631 155.408 204C155.627 204.478 155.88 204.937 156.165 205.374C156.055 203.152 156 202.041 156 202.041Z" fill="url(#paint25_linear_0_1384)"/>
<path fill-rule="evenodd" clip-rule="evenodd" d="M172.5 190C171.119 190 170 191.119 170 192.5C170 193.881 171.119 195 172.5 195C173.881 195 175 193.881 175 192.5C175 191.119 173.881 190 172.5 190Z" fill="black"/>
<path fill-rule="evenodd" clip-rule="evenodd" d="M148.5 191C147.12 191 146 192.12 146 193.5C146 194.88 147.12 196 148.5 196C149.88 196 151 194.88 151 193.5C151 192.12 149.88 191 148.5 191Z" fill="black"/>
<path fill-rule="evenodd" clip-rule="evenodd" d="M152.145 219.03C149.507 218.795 149.719 219.936 150.585 222.64C153.681 231.403 166.216 231.182 172.657 221.533C173.533 220.291 172.634 219.011 171.06 219.07C162.382 219.408 156.077 219.395 152.145 219.03Z" fill="url(#paint26_linear_0_1384)"/>
<path fill-rule="evenodd" clip-rule="evenodd" d="M145.872 177C142.594 177 139.625 178.527 137.478 180.994C135.329 183.463 134 186.872 134 190.638C134 194.403 135.329 197.813 137.478 200.281C139.625 202.749 142.594 204.275 145.872 204.275C149.15 204.275 152.118 202.749 154.267 200.281C156.415 197.813 157.744 194.403 157.744 190.638C157.744 186.872 156.415 183.463 154.267 180.994C152.118 178.527 149.15 177 145.872 177ZM186.843 194.255L209.472 193.24C210.352 193.202 211.036 192.447 210.999 191.555C210.961 190.664 210.215 189.971 209.334 190.011L186.907 191.016C186.594 187.788 185.169 184.89 183.026 182.719C180.587 180.252 177.218 178.725 173.498 178.725C169.777 178.725 166.409 180.252 163.971 182.719C161.533 185.187 160.023 188.596 160.023 192.362C160.023 196.128 161.533 199.537 163.971 202.006C166.409 204.474 169.777 206 173.498 206C177.218 206 180.587 204.474 183.026 202.006C185.048 199.958 186.43 197.264 186.843 194.255ZM166.236 185.013C168.094 183.131 170.662 181.967 173.498 181.967C176.333 181.967 178.901 183.131 180.76 185.013C182.618 186.893 183.768 189.492 183.768 192.362C183.768 195.233 182.618 197.831 180.76 199.712C178.902 201.594 176.333 202.757 173.498 202.757C170.662 202.757 168.094 201.594 166.236 199.712C164.377 197.831 163.228 195.233 163.228 192.362C163.228 189.492 164.378 186.893 166.236 185.013ZM139.473 183.288C141.111 181.406 143.373 180.243 145.872 180.243C148.371 180.243 150.633 181.406 152.271 183.288C153.908 185.168 154.921 187.767 154.921 190.638C154.921 193.508 153.908 196.107 152.271 197.987C150.633 199.869 148.371 201.033 145.872 201.033C143.373 201.033 141.111 199.869 139.473 197.987C137.836 196.107 136.823 193.508 136.823 190.638C136.823 187.767 137.836 185.168 139.473 183.288Z" fill="black"/>
<path fill-rule="evenodd" clip-rule="evenodd" d="M188.103 125.609C223.067 132.312 247.37 153.694 228.77 165.831C180.283 180.715 164.217 166.682 188.103 125.609Z" fill="url(#paint27_linear_0_1384)"/>
<path fill-rule="evenodd" clip-rule="evenodd" d="M200.775 158.702C200.727 143.786 203 122.428 171.811 124.199C140.621 125.969 145.766 156.818 145.766 156.818C145.766 156.818 142.996 173.04 171.973 174.293C200.95 175.545 200.823 173.617 200.775 158.702Z" fill="url(#paint28_linear_0_1384)"/>
<path fill-rule="evenodd" clip-rule="evenodd" d="M224.948 162.733C189.064 170.646 146.881 162.932 147.066 154.031C147.079 152.506 145.352 152.322 141.76 153.801C119.541 163.093 111.86 171.565 115.808 176.976C123.941 187.971 155.704 190.598 173.496 186.49C206.702 178.763 221 169.566 221 169.566C228.697 165.071 232.832 161.026 224.948 162.733Z" fill="url(#paint29_linear_0_1384)"/>
<path opacity="0.130604" fill-rule="evenodd" clip-rule="evenodd" d="M231.419 260.443C223.559 271.468 216.868 277.856 208 282C208.716 281.132 208.928 279.659 208.64 277.579C207.228 267.286 210.297 259.855 217.847 255.285C222.374 252.87 226.083 249.205 228.598 244.661C229.599 243.448 230.439 243.904 231.118 246.028C233.158 252.231 233.933 256.955 231.419 260.443Z" fill="#FF916F"/>
<path fill-rule="evenodd" clip-rule="evenodd" d="M45.6573 262H134.342C136.354 262 138 263.66 138 265.69V348.31C138 350.341 136.354 352 134.342 352H45.6573C43.6454 352 42 350.341 42 348.31V265.69C42 263.66 43.6454 262 45.6573 262Z" fill="url(#paint30_linear_0_1384)"/>
<path fill-rule="evenodd" clip-rule="evenodd" d="M170.152 262H132.847C131.831 262 131 262.83 131 263.845V350.156C131 351.171 131.831 352 132.847 352H170.152C171.169 352 172 351.171 172 350.156V263.845C172 262.83 171.169 262 170.152 262Z" fill="url(#paint31_linear_0_1384)"/>
<path fill-rule="evenodd" clip-rule="evenodd" d="M83.5741 262H96.4269C96.7424 262 97 262.247 97 262.55V283.451C97 283.753 96.7424 284 96.4269 284H83.5741C83.2586 284 83 283.753 83 283.451V262.55C83 262.247 83.2586 262 83.5741 262Z" fill="url(#paint32_linear_0_1384)"/>
<path opacity="0.273507" fill-rule="evenodd" clip-rule="evenodd" d="M131 307V350.599C131 351.369 131.825 352 132.833 352H168C166.709 330.821 137.781 337.66 131 307Z" fill="url(#paint33_linear_0_1384)"/>
<path fill-rule="evenodd" clip-rule="evenodd" d="M140.929 328H161.071C162.132 328 163 328.868 163 329.929V340.071C163 341.132 162.132 342 161.071 342H140.929C139.868 342 139 341.132 139 340.071V329.929C139 328.868 139.868 328 140.929 328Z" fill="url(#paint34_linear_0_1384)"/>
<mask id="mask32_0_1384" style="mask-type:luminance" maskUnits="userSpaceOnUse" x="0" y="348" width="170" height="159">
<path fill-rule="evenodd" clip-rule="evenodd" d="M169.927 348.828H0.698456V506.781H169.927V348.828Z" fill="white"/>
</mask>
<g mask="url(#mask32_0_1384)">
<path fill-rule="evenodd" clip-rule="evenodd" d="M7.14757 348.828H163.479C167.025 348.828 169.927 351.74 169.927 355.304V500.305C169.927 503.866 167.025 506.781 163.479 506.781H7.14757C3.60088 506.781 0.698257 503.866 0.698257 500.305V355.304C0.698257 351.74 3.60088 348.828 7.14757 348.828Z" fill="url(#paint35_linear_0_1384)"/>
</g>
<path fill-rule="evenodd" clip-rule="evenodd" d="M226.756 349H161.244C159.46 349 158 350.457 158 352.239V503.761C158 505.542 159.46 507 161.244 507H226.756C228.541 507 230 505.542 230 503.761V352.239C230 350.457 228.541 349 226.756 349Z" fill="url(#paint36_linear_0_1384)"/>
<path opacity="0.273507" fill-rule="evenodd" clip-rule="evenodd" d="M158 441V504.945C158 506.075 159.204 507 160.676 507H212C210.115 475.937 167.896 485.968 158 441Z" fill="url(#paint37_linear_0_1384)"/>
<path fill-rule="evenodd" clip-rule="evenodd" d="M73.9835 348H96.0156C96.5574 348 97 348.444 97 348.986V426.014C97 426.556 96.5574 427 96.0156 427H73.9835C73.4426 427 73 426.556 73 426.014V348.986C73 348.444 73.4426 348 73.9835 348Z" fill="url(#paint38_linear_0_1384)"/>
<path fill-rule="evenodd" clip-rule="evenodd" d="M177.135 458H209.866C211.591 458 213 459.054 213 460.342V472.658C213 473.946 211.591 475 209.866 475H177.135C175.41 475 174 473.946 174 472.658V460.342C174 459.054 175.41 458 177.135 458Z" fill="url(#paint39_linear_0_1384)"/>
<path fill-rule="evenodd" clip-rule="evenodd" d="M186.971 489.127C194.609 486.863 202.515 485.638 210.479 485.483C210.479 485.483 229.626 469.33 266.247 434.719C271.661 429.654 274.418 420.745 272.616 412.349C272.616 412.349 270.339 399.036 265.479 375.258C269.921 364.27 276.687 357.256 288.056 353.978C299.424 350.7 311.665 352.841 321.252 359.786C326.423 390.284 329.008 405.535 329.008 405.535C332.379 428.594 327.176 447.17 313.145 456.449C256.307 491.312 227.888 508.744 227.888 508.744C221.991 517.926 211.718 523.331 200.828 522.984C189.938 522.638 180.03 516.589 174.725 507.052C188.211 505.058 196.54 502.087 199.713 498.141C195.992 497.236 192.102 497.307 188.417 498.349C185.977 498.557 183.791 496.84 183.411 494.414C183.03 491.989 184.584 489.68 186.971 489.127Z" fill="url(#paint40_linear_0_1384)"/>
<mask id="mask33_0_1384" style="mask-type:luminance" maskUnits="userSpaceOnUse" x="174" y="352" width="156" height="171">
<path fill-rule="evenodd" clip-rule="evenodd" d="M186.971 489.127C194.609 486.863 202.515 485.638 210.479 485.483C210.479 485.483 229.626 469.33 266.247 434.719C271.661 429.654 274.418 420.745 272.616 412.349C272.616 412.349 270.339 399.036 265.479 375.258C269.921 364.27 276.687 357.256 288.056 353.978C299.424 350.7 311.665 352.841 321.252 359.786C326.423 390.284 329.008 405.535 329.008 405.535C332.379 428.594 327.176 447.17 313.145 456.449C256.307 491.312 227.888 508.744 227.888 508.744C221.991 517.926 211.718 523.331 200.828 522.984C189.938 522.638 180.03 516.589 174.725 507.052C188.211 505.058 196.54 502.087 199.713 498.141C195.992 497.236 192.102 497.307 188.417 498.349C185.977 498.557 183.791 496.84 183.411 494.414C183.03 491.989 184.584 489.68 186.971 489.127Z" fill="white"/>
</mask>
<g mask="url(#mask33_0_1384)">
<path opacity="0.519368" fill-rule="evenodd" clip-rule="evenodd" d="M329.384 341C303.666 348.444 290.578 356.084 290.121 363.919C293.227 378.39 298.219 389.623 305.097 397.62C319.029 413.904 320.086 432.909 302.307 445.239C290.112 453.128 283.105 462.563 281.288 473.546C280.682 476.59 279.586 479.076 278 481L322.979 453.05C338.196 442.796 343.775 425.099 339.72 399.963C339.109 399.296 338.702 398.509 338.501 397.682C338.278 397.164 338.142 396.617 338.095 396.063L338.093 396.056C337.914 395.703 337.749 395.371 337.627 394.989C337.386 394.494 337.224 393.963 337.15 393.417C336.964 392.925 336.798 392.389 336.728 391.871C336.69 391.728 336.656 391.584 336.63 391.439C336.522 391.167 336.412 390.838 336.331 390.556C336.198 390.209 336.104 389.854 336.049 389.498C336.007 389.403 335.966 389.326 335.916 389.235C335.633 388.889 335.402 388.517 335.22 388.126C334.96 387.808 334.736 387.458 334.556 387.084L334.551 387.077C334.395 386.763 334.189 386.499 334.03 386.177C333.973 386.065 333.92 385.994 333.843 385.892C333.582 385.546 333.37 385.178 333.207 384.796C333.088 384.591 332.986 384.377 332.88 384.166L332.567 383.645C331.266 381.488 331.711 378.77 333.497 377.125L333.422 377.021C332.71 376.469 332.17 375.752 331.83 374.956C331.564 374.505 331.373 374.021 331.254 373.526C331.202 373.404 331.153 373.284 331.111 373.161C330.742 372.616 330.488 372.014 330.35 371.394C330.05 370.692 329.926 370.093 329.926 369.329C329.387 368.531 329.093 367.62 329.044 366.698C328.781 365.964 328.739 365.37 328.739 364.609C328.674 364.413 328.614 364.22 328.569 364.017C328.305 363.398 328.146 362.802 328.146 361.99V357.525C327.565 356.659 327.255 355.655 327.255 354.614V353.397L326.932 352.432C326.637 351.549 326.366 350.857 326.366 349.893V346.057C326.366 343.945 327.625 342.127 329.437 341.302L329.384 341Z" fill="url(#paint41_linear_0_1384)"/>
</g>
<path fill-rule="evenodd" clip-rule="evenodd" d="M296.13 365.76C264.687 382.943 258.951 379.515 253.559 361.659C236.707 306.216 239.519 276.079 265.664 270.024C294.532 263.338 312.068 289.473 326.048 346.138C328.605 356.172 326.047 360.101 317.935 359.674C311.355 359.499 304.086 361.527 296.13 365.76Z" fill="url(#paint42_linear_0_1384)"/>
<mask id="mask34_0_1384" style="mask-type:luminance" maskUnits="userSpaceOnUse" x="97" y="106" width="21" height="37">
<path fill-rule="evenodd" clip-rule="evenodd" d="M117.536 106.402H97.936V142.167H117.536V106.402Z" fill="white"/>
</mask>
<g mask="url(#mask34_0_1384)">
<path fill-rule="evenodd" clip-rule="evenodd" d="M104.965 118.727L98.8142 117.567C98.3417 117.47 97.936 117.083 97.936 116.697V114.86C97.936 111.863 100.977 109.399 104.965 108.867V107.079C104.965 106.692 105.371 106.402 105.911 106.402H109.561C110.102 106.402 110.506 106.692 110.506 107.079V108.867C114.495 109.399 117.536 111.863 117.536 114.86V118.92C117.536 120.369 116.996 121.191 115.644 122.061L106.925 126.846C106.114 127.378 105.911 128.006 105.843 128.828V133.419C105.843 134.048 106.588 134.579 107.465 134.579H108.006C108.886 134.579 109.628 134.048 109.628 133.419V129.359C109.628 128.972 110.035 128.779 110.506 128.875L116.658 130.036C117.131 130.132 117.536 130.519 117.536 130.906V133.66C117.536 136.657 114.495 139.17 110.506 139.654V141.49C110.506 141.877 110.102 142.167 109.561 142.167H105.911C105.371 142.167 104.965 141.877 104.965 141.49V139.654C100.977 139.17 97.936 136.657 97.936 133.66V127.135C98.0706 125.976 98.3417 125.058 99.7602 124.188L108.615 119.451C109.359 118.968 109.561 118.437 109.628 117.76V115.102C109.628 114.473 108.886 113.941 108.006 113.941H107.465C106.588 113.941 105.843 114.473 105.843 115.102V118.243C105.843 118.629 105.439 118.823 104.965 118.727Z" fill="white"/>
</g>
<path fill-rule="evenodd" clip-rule="evenodd" d="M200.082 241.271C183 259.9 155.791 262.772 147 236.4C146.5 234.9 143 225.9 146 217.9C156.803 209.029 169.064 210.9 188.5 214.9C188.5 214.9 207.122 190.232 208 189.4C208.878 188.568 211 190.9 211 190.9L191.863 215.87C193.193 216.818 193.733 218.181 193.483 219.962C193.311 228.094 194.987 233.176 198.508 235.212C201.404 237.023 201.678 238.422 200.082 241.271Z" fill="url(#paint43_linear_0_1384)"/>
<mask id="mask35_0_1384" style="mask-type:luminance" maskUnits="userSpaceOnUse" x="144" y="189" width="67" height="67">
<path fill-rule="evenodd" clip-rule="evenodd" d="M200.082 241.271C183 259.9 155.791 262.772 147 236.4C146.5 234.9 143 225.9 146 217.9C156.803 209.029 169.064 210.9 188.5 214.9C188.5 214.9 207.122 190.232 208 189.4C208.878 188.568 211 190.9 211 190.9L191.863 215.87C193.193 216.818 193.733 218.181 193.483 219.962C193.311 228.094 194.987 233.176 198.508 235.212C201.404 237.023 201.678 238.422 200.082 241.271Z" fill="white"/>
</mask>
<g mask="url(#mask35_0_1384)">
<path opacity="0.173572" fill-rule="evenodd" clip-rule="evenodd" d="M194.822 216.321C195.062 214.375 192.41 212.901 186.862 211.9C188.719 218.042 186.089 224.39 180.327 227.67C167.975 237.266 165.725 247.676 173.579 258.9C186.234 257.718 197.325 251.319 203.67 241.529C204.275 240.728 204.049 239.965 202.99 239.237C196.268 234.078 193.546 226.438 194.822 216.321Z" fill="url(#paint44_linear_0_1384)"/>
</g>
<defs>
<linearGradient id="paint0_linear_0_1384" x1="79.6979" y1="271.924" x2="460.669" y2="562.769" gradientUnits="userSpaceOnUse">
<stop stop-color="#FFE1A1"/>
<stop offset="1" stop-color="#FEDC93"/>
</linearGradient>
<linearGradient id="paint1_linear_0_1384" x1="183.351" y1="167.405" x2="144.23" y2="235.25" gradientUnits="userSpaceOnUse">
<stop stop-color="#C47B8A"/>
<stop offset="1" stop-color="#FFCFBC"/>
</linearGradient>
<linearGradient id="paint2_linear_0_1384" x1="160.238" y1="212.185" x2="223.835" y2="252.593" gradientUnits="userSpaceOnUse">
<stop stop-color="#FFF9E8"/>
<stop offset="1" stop-color="#F2DBCA"/>
</linearGradient>
<linearGradient id="paint3_linear_0_1384" x1="236.34" y1="165.408" x2="197.228" y2="233.26" gradientUnits="userSpaceOnUse">
<stop stop-color="#C47B8A"/>
<stop offset="1" stop-color="#FFCFBC"/>
</linearGradient>
<linearGradient id="paint4_linear_0_1384" x1="211.226" y1="210.185" x2="274.823" y2="250.593" gradientUnits="userSpaceOnUse">
<stop stop-color="#FFF9E8"/>
<stop offset="1" stop-color="#F2DBCA"/>
</linearGradient>
<linearGradient id="paint5_linear_0_1384" x1="285.838" y1="191.806" x2="266.627" y2="239.895" gradientUnits="userSpaceOnUse">
<stop stop-color="#C47B8A"/>
<stop offset="1" stop-color="#FFCFBC"/>
</linearGradient>
<linearGradient id="paint6_linear_0_1384" x1="265.003" y1="217.331" x2="307.768" y2="255.267" gradientUnits="userSpaceOnUse">
<stop stop-color="#FFF9E8"/>
<stop offset="1" stop-color="#F2DBCA"/>
</linearGradient>
<linearGradient id="paint7_linear_0_1384" x1="324.73" y1="189.808" x2="305.662" y2="238.045" gradientUnits="userSpaceOnUse">
<stop stop-color="#C47B8A"/>
<stop offset="1" stop-color="#FFCFBC"/>
</linearGradient>
<linearGradient id="paint8_linear_0_1384" x1="304.723" y1="216.287" x2="347.364" y2="253.015" gradientUnits="userSpaceOnUse">
<stop stop-color="#FFF9E8"/>
<stop offset="1" stop-color="#F2DBCA"/>
</linearGradient>
<linearGradient id="paint9_linear_0_1384" x1="308.565" y1="138.679" x2="289.495" y2="186.915" gradientUnits="userSpaceOnUse">
<stop stop-color="#C47B8A"/>
<stop offset="1" stop-color="#FFCFBC"/>
</linearGradient>
<linearGradient id="paint10_linear_0_1384" x1="288.024" y1="165.091" x2="331.292" y2="202.977" gradientUnits="userSpaceOnUse">
<stop stop-color="#FFF9E8"/>
<stop offset="1" stop-color="#F2DBCA"/>
</linearGradient>
<linearGradient id="paint11_linear_0_1384" x1="410.1" y1="402.282" x2="388.066" y2="507.919" gradientUnits="userSpaceOnUse">
<stop stop-color="#FFF7E2"/>
<stop offset="1" stop-color="#F9DBC6"/>
</linearGradient>
<linearGradient id="paint12_linear_0_1384" x1="451.347" y1="402.282" x2="429.416" y2="507.964" gradientUnits="userSpaceOnUse">
<stop stop-color="#FFF7E2"/>
<stop offset="1" stop-color="#F9DBC6"/>
</linearGradient>
<linearGradient id="paint13_linear_0_1384" x1="491.801" y1="402.282" x2="469.873" y2="507.966" gradientUnits="userSpaceOnUse">
<stop stop-color="#FFF7E2"/>
<stop offset="1" stop-color="#F9DBC6"/>
</linearGradient>
<linearGradient id="paint14_linear_0_1384" x1="538.1" y1="402.282" x2="516.066" y2="507.919" gradientUnits="userSpaceOnUse">
<stop stop-color="#FFF7E2"/>
<stop offset="1" stop-color="#F9DBC6"/>
</linearGradient>
<linearGradient id="paint15_linear_0_1384" x1="433.1" y1="306.282" x2="411.066" y2="411.919" gradientUnits="userSpaceOnUse">
<stop stop-color="#FFF7E2"/>
<stop offset="1" stop-color="#F9DBC6"/>
</linearGradient>
<linearGradient id="paint16_linear_0_1384" x1="474.347" y1="306.282" x2="452.416" y2="411.964" gradientUnits="userSpaceOnUse">
<stop stop-color="#FFF7E2"/>
<stop offset="1" stop-color="#F9DBC6"/>
</linearGradient>
<linearGradient id="paint17_linear_0_1384" x1="514.801" y1="306.282" x2="492.873" y2="411.966" gradientUnits="userSpaceOnUse">
<stop stop-color="#FFF7E2"/>
<stop offset="1" stop-color="#F9DBC6"/>
</linearGradient>
<linearGradient id="paint18_linear_0_1384" x1="79.5648" y1="271.924" x2="460.536" y2="562.769" gradientUnits="userSpaceOnUse">
<stop stop-color="#FFE1A1"/>
<stop offset="1" stop-color="#FEDC93"/>
</linearGradient>
<linearGradient id="paint19_linear_0_1384" x1="325.904" y1="309.628" x2="204.745" y2="489.374" gradientUnits="userSpaceOnUse">
<stop stop-color="#FFA981"/>
<stop offset="0.428" stop-color="#FF8666"/>
<stop offset="1" stop-color="#FF5C45"/>
</linearGradient>
<linearGradient id="paint20_linear_0_1384" x1="136.916" y1="169.908" x2="378.516" y2="221.228" gradientUnits="userSpaceOnUse">
<stop stop-color="#FF5C45"/>
<stop offset="0.572" stop-color="#FF8666"/>
<stop offset="1" stop-color="#FFA981"/>
</linearGradient>
<linearGradient id="paint21_linear_0_1384" x1="259.551" y1="210.17" x2="178.478" y2="283.562" gradientUnits="userSpaceOnUse">
<stop stop-color="#FFC198"/>
<stop offset="1" stop-color="#FFB380"/>
</linearGradient>
<linearGradient id="paint22_linear_0_1384" x1="227.793" y1="263.195" x2="190.297" y2="266.636" gradientUnits="userSpaceOnUse">
<stop stop-color="#DC934B"/>
<stop offset="1" stop-color="#DB843C"/>
</linearGradient>
<linearGradient id="paint23_linear_0_1384" x1="264.368" y1="198.144" x2="189.98" y2="249.832" gradientUnits="userSpaceOnUse">
<stop stop-color="#005F67"/>
<stop offset="1" stop-color="#003136"/>
</linearGradient>
<linearGradient id="paint24_linear_0_1384" x1="259.897" y1="239.402" x2="192.811" y2="331.324" gradientUnits="userSpaceOnUse">
<stop stop-color="#005F67"/>
<stop offset="1" stop-color="#003136"/>
</linearGradient>
<linearGradient id="paint25_linear_0_1384" x1="174.411" y1="214.166" x2="155.331" y2="228.02" gradientUnits="userSpaceOnUse">
<stop offset="0.0223554" stop-color="#DE9D71"/>
<stop offset="0.966084" stop-color="#E08B52"/>
</linearGradient>
<linearGradient id="paint26_linear_0_1384" x1="179.998" y1="223.338" x2="174.391" y2="236.988" gradientUnits="userSpaceOnUse">
<stop stop-color="#FFC198"/>
<stop offset="1" stop-color="#FFB380"/>
</linearGradient>
<linearGradient id="paint27_linear_0_1384" x1="233.944" y1="202.244" x2="134.914" y2="230.587" gradientUnits="userSpaceOnUse">
<stop stop-color="#FFA981"/>
<stop offset="0.428" stop-color="#FF8666"/>
<stop offset="1" stop-color="#FF5C45"/>
</linearGradient>
<linearGradient id="paint28_linear_0_1384" x1="229.841" y1="171.191" x2="158.259" y2="198.926" gradientUnits="userSpaceOnUse">
<stop stop-color="#FFA981"/>
<stop offset="0.428" stop-color="#FF8666"/>
<stop offset="1" stop-color="#FF5C45"/>
</linearGradient>
<linearGradient id="paint29_linear_0_1384" x1="233.639" y1="217.372" x2="122.689" y2="315.21" gradientUnits="userSpaceOnUse">
<stop stop-color="#FFA981"/>
<stop offset="0.428" stop-color="#FF8666"/>
<stop offset="1" stop-color="#FF5C45"/>
</linearGradient>
<linearGradient id="paint30_linear_0_1384" x1="119.386" y1="248.154" x2="145.622" y2="339.106" gradientUnits="userSpaceOnUse">
<stop stop-color="#F7D0AD"/>
<stop offset="1" stop-color="#D38761"/>
</linearGradient>
<linearGradient id="paint31_linear_0_1384" x1="180.457" y1="311.214" x2="126.532" y2="334.827" gradientUnits="userSpaceOnUse">
<stop stop-color="#F7D0AD"/>
<stop offset="1" stop-color="#E89F7B"/>
</linearGradient>
<linearGradient id="paint32_linear_0_1384" x1="96.9584" y1="262" x2="96.9584" y2="283.869" gradientUnits="userSpaceOnUse">
<stop stop-color="white"/>
<stop offset="1" stop-color="#FFFEFC"/>
</linearGradient>
<linearGradient id="paint33_linear_0_1384" x1="177.719" y1="331.971" x2="142.204" y2="358.753" gradientUnits="userSpaceOnUse">
<stop stop-color="#FF9958"/>
<stop offset="1" stop-color="#DC8D48"/>
</linearGradient>
<linearGradient id="paint34_linear_0_1384" x1="163" y1="328" x2="163" y2="342" gradientUnits="userSpaceOnUse">
<stop stop-color="white"/>
<stop offset="0.994061" stop-color="#FFFEFC"/>
</linearGradient>
<linearGradient id="paint35_linear_0_1384" x1="137.114" y1="324.527" x2="182.988" y2="484.26" gradientUnits="userSpaceOnUse">
<stop stop-color="#F7D0AD"/>
<stop offset="1" stop-color="#D38761"/>
</linearGradient>
<linearGradient id="paint36_linear_0_1384" x1="244.852" y1="435.398" x2="150.163" y2="476.873" gradientUnits="userSpaceOnUse">
<stop stop-color="#F7D0AD"/>
<stop offset="1" stop-color="#E89F7B"/>
</linearGradient>
<linearGradient id="paint37_linear_0_1384" x1="226.185" y1="477.624" x2="174.167" y2="516.658" gradientUnits="userSpaceOnUse">
<stop stop-color="#FF9958"/>
<stop offset="1" stop-color="#DC8D48"/>
</linearGradient>
<linearGradient id="paint38_linear_0_1384" x1="94.0776" y1="367.239" x2="94.0776" y2="427" gradientUnits="userSpaceOnUse">
<stop stop-color="#F0F5FF"/>
<stop offset="1" stop-color="#E7F7FF"/>
</linearGradient>
<linearGradient id="paint39_linear_0_1384" x1="213" y1="458" x2="213" y2="475" gradientUnits="userSpaceOnUse">
<stop stop-color="white"/>
<stop offset="0.994061" stop-color="#FFFEFC"/>
</linearGradient>
<linearGradient id="paint40_linear_0_1384" x1="377.245" y1="426.453" x2="241.316" y2="557.447" gradientUnits="userSpaceOnUse">
<stop stop-color="#FFC198"/>
<stop offset="1" stop-color="#FFB380"/>
</linearGradient>
<linearGradient id="paint41_linear_0_1384" x1="358.943" y1="417.802" x2="276.386" y2="451.875" gradientUnits="userSpaceOnUse">
<stop stop-color="#FFC198"/>
<stop offset="1" stop-color="#FFA162"/>
</linearGradient>
<linearGradient id="paint42_linear_0_1384" x1="333.95" y1="270.432" x2="286.953" y2="389.611" gradientUnits="userSpaceOnUse">
<stop stop-color="#FFA981"/>
<stop offset="0.428" stop-color="#FF8666"/>
<stop offset="1" stop-color="#FF5C45"/>
</linearGradient>
<linearGradient id="paint43_linear_0_1384" x1="243.376" y1="221.244" x2="179.279" y2="279.809" gradientUnits="userSpaceOnUse">
<stop stop-color="#6BDEC5"/>
<stop offset="1" stop-color="#39B993"/>
</linearGradient>
<linearGradient id="paint44_linear_0_1384" x1="203.745" y1="211.9" x2="203.745" y2="258.215" gradientUnits="userSpaceOnUse">
<stop stop-color="white"/>
<stop offset="1" stop-color="white"/>
</linearGradient>
</defs>
</svg>
