<svg width="18" height="18" viewBox="0 0 18 18" fill="none" xmlns="http://www.w3.org/2000/svg">
<path d="M15.5663 0H2.42434C1.08547 0 6.10352e-05 1.08537 6.10352e-05 2.42428V15.5663C6.10352e-05 16.9052 1.08543 17.9906 2.42434 17.9906H8.90588L8.91693 11.5617H7.24671C7.02965 11.5617 6.85348 11.3862 6.85265 11.1692L6.84464 9.09687C6.8438 8.87862 7.0205 8.70126 7.23875 8.70126H8.90592V6.6989C8.90592 4.37519 10.3251 3.10991 12.398 3.10991H14.099C14.3166 3.10991 14.4931 3.28634 14.4931 3.50401V5.25138C14.4931 5.46896 14.3168 5.64535 14.0992 5.64549L13.0553 5.64597C11.928 5.64597 11.7097 6.18166 11.7097 6.9678V8.70131H14.1868C14.4229 8.70131 14.606 8.9074 14.5782 9.1418L14.3326 11.2141C14.309 11.4124 14.1409 11.5618 13.9412 11.5618H11.7208L11.7097 17.9907H15.5664C16.9052 17.9907 17.9906 16.9053 17.9906 15.5664V2.42428C17.9906 1.08537 16.9052 0 15.5663 0Z" fill="#475993"/>
</svg>
