<svg width="18" height="19" viewBox="0 0 18 19" fill="none" xmlns="http://www.w3.org/2000/svg">
<path fill-rule="evenodd" clip-rule="evenodd" d="M1.39416 0.319336C1.06736 0.424102 0.855865 0.763173 0.855865 1.27617L0.85788 17.4215C0.85788 17.9288 1.06282 18.2627 1.38056 18.3742L10.1952 9.33955L1.39416 0.319336Z" fill="url(#paint0_linear_144_53)"/>
<path fill-rule="evenodd" clip-rule="evenodd" d="M1.38057 18.3743C1.60918 18.4537 1.8957 18.4166 2.2079 18.2411L12.9647 12.1781L10.1952 9.3396L1.38057 18.3743Z" fill="url(#paint1_linear_144_53)"/>
<path fill-rule="evenodd" clip-rule="evenodd" d="M12.9662 12.1781L16.6341 10.1112C17.3778 9.69056 17.3778 9.00622 16.6341 8.58664L12.9526 6.51196L10.1952 9.33807L12.9662 12.1781Z" fill="url(#paint2_linear_144_53)"/>
<path fill-rule="evenodd" clip-rule="evenodd" d="M12.9521 6.51192L2.2079 0.457159C1.90325 0.286333 1.62227 0.246594 1.39467 0.319363L10.1952 9.33803L12.9521 6.51192Z" fill="url(#paint3_linear_144_53)"/>
<defs>
<linearGradient id="paint0_linear_144_53" x1="0.855865" y1="0.319336" x2="0.855865" y2="18.3742" gradientUnits="userSpaceOnUse">
<stop stop-color="#1E79AF"/>
<stop offset="1" stop-color="#63FFD3"/>
</linearGradient>
<linearGradient id="paint1_linear_144_53" x1="6.4382" y1="7.04459" x2="-0.509448" y2="16.2086" gradientUnits="userSpaceOnUse">
<stop stop-color="#DC4057"/>
<stop offset="1" stop-color="#9E36BB"/>
</linearGradient>
<linearGradient id="paint2_linear_144_53" x1="10.2713" y1="6.51196" x2="10.2713" y2="12.0549" gradientUnits="userSpaceOnUse">
<stop stop-color="#FF9676"/>
<stop offset="1" stop-color="#FFD074"/>
</linearGradient>
<linearGradient id="paint3_linear_144_53" x1="-2.36803" y1="4.02174" x2="4.57387" y2="14.7562" gradientUnits="userSpaceOnUse">
<stop stop-color="#51C6AD"/>
<stop offset="1" stop-color="#D5FFA1"/>
</linearGradient>
</defs>
</svg>
