<svg width="68" height="78" viewBox="0 0 68 78" fill="none" xmlns="http://www.w3.org/2000/svg">
<path d="M25.5935 12.3999L20.2917 7.172H14.9999H9.70819L4.40637 12.3999H25.5935Z" fill="#DFEBFA"/>
<path fill-rule="evenodd" clip-rule="evenodd" d="M0.866676 44.868L2.11046 43.3313C2.61198 42.7118 2.88546 41.9389 2.88562 41.1421V36.8601C2.88562 35.96 2.53668 35.0948 1.91228 34.4463L1.06516 33.5666C0.440615 32.9183 0.0918274 32.053 0.0918274 31.1529V18.1098C0.0918274 17.1785 0.465312 16.2859 1.12849 15.6319L4.72304 12.0877H25.277L28.8715 15.6319C29.5349 16.2859 29.9082 17.1785 29.9082 18.1098V31.1529C29.9082 32.053 29.5593 32.9182 28.9349 33.5666L28.0877 34.4463C27.4632 35.0947 27.1144 35.96 27.1144 36.8601V41.1421C27.1144 41.9391 27.3879 42.7118 27.8893 43.3313L29.133 44.868C29.6343 45.4876 29.9079 46.2603 29.9079 47.0573V49.3785H0.0918274V47.0573C0.0918274 46.2603 0.365312 45.4876 0.866676 44.868ZM0.0918274 71.4244V71.1753H29.9079V71.4244C29.9079 74.8216 27.1539 77.5756 23.7567 77.5756H14.9999H6.24304C2.84592 77.5756 0.0918274 74.8216 0.0918274 71.4244Z" fill="url(#paint0_linear_0_1026)"/>
<mask id="mask0_0_1026" style="mask-type:luminance" maskUnits="userSpaceOnUse" x="0" y="12" width="30" height="66">
<path fill-rule="evenodd" clip-rule="evenodd" d="M0.866676 44.868L2.11046 43.3313C2.61198 42.7118 2.88546 41.9389 2.88562 41.1421V36.8601C2.88562 35.96 2.53668 35.0948 1.91228 34.4463L1.06516 33.5666C0.440615 32.9183 0.0918274 32.053 0.0918274 31.1529V18.1098C0.0918274 17.1785 0.465312 16.2859 1.12849 15.6319L4.72304 12.0877H25.277L28.8715 15.6319C29.5349 16.2859 29.9082 17.1785 29.9082 18.1098V31.1529C29.9082 32.053 29.5593 32.9182 28.9349 33.5666L28.0877 34.4463C27.4632 35.0947 27.1144 35.96 27.1144 36.8601V41.1421C27.1144 41.9391 27.3879 42.7118 27.8893 43.3313L29.133 44.868C29.6343 45.4876 29.9079 46.2603 29.9079 47.0573V49.3785H0.0918274V47.0573C0.0918274 46.2603 0.365312 45.4876 0.866676 44.868ZM0.0918274 71.4244V71.1753H29.9079V71.4244C29.9079 74.8216 27.1539 77.5756 23.7567 77.5756H14.9999H6.24304C2.84592 77.5756 0.0918274 74.8216 0.0918274 71.4244Z" fill="white"/>
</mask>
<g mask="url(#mask0_0_1026)">
<path opacity="0.626883" d="M29.0345 16.4969V12H4.5C4.5 12 14.0547 22.2821 14 22.5L39.5 51L40 30.6601V27.5073C40 22.961 36.3295 19.2755 31.8017 19.2755C30.2734 19.2755 29.0345 18.0315 29.0345 16.4969Z" fill="url(#paint1_linear_0_1026)"/>
</g>
<path fill-rule="evenodd" clip-rule="evenodd" d="M8.39317 40.61H27.538C28.1845 40.61 28.7086 40.0861 28.7086 39.4394C28.7086 38.7929 28.1845 38.2688 27.538 38.2688H8.39317H2.4618C1.81529 38.2688 1.2912 38.7927 1.2912 39.4394C1.2912 40.0457 1.75183 40.544 2.34212 40.604C2.38147 40.608 2.4214 40.61 2.4618 40.61H8.39317Z" fill="url(#paint2_linear_0_1026)"/>
<path d="M0.0918274 48.9952V71.4244C0.0918274 71.4694 0.0942516 71.514 0.0951607 71.5588H29.9046C29.9056 71.514 29.908 71.4694 29.908 71.4244V48.9952L0.0918274 48.9952Z" fill="url(#paint3_linear_0_1026)"/>
<path opacity="0.539388" d="M29.908 48.9952H25.0361C24.3239 53.0299 20.4793 65.4835 0.0918274 66.8726V71.4244C0.0918274 71.4694 0.0942516 71.514 0.0951607 71.5588H29.9046C29.9056 71.5138 29.908 71.4694 29.908 71.4244V48.9952Z" fill="#74D579"/>
<path fill-rule="evenodd" clip-rule="evenodd" d="M14.9999 34.8123C19.5099 34.8123 23.1659 31.1562 23.1659 26.6462C23.1659 22.1363 19.51 18.4802 15 18.4802C15 18.4802 14.9999 18.4802 14.9999 18.4802C10.4899 18.4802 6.8338 22.1362 6.8338 26.6462C6.8338 31.1562 10.4899 34.8123 14.9999 34.8123Z" fill="url(#paint4_linear_0_1026)"/>
<path fill-rule="evenodd" clip-rule="evenodd" d="M16.2616 24.2509L17.4771 26.2483C18.6532 28.1807 17.2622 30.6556 15 30.6557C15 30.6557 14.9999 30.6557 14.9998 30.6557C12.7376 30.6557 11.3465 28.1807 12.5226 26.2483L14.7606 22.5706C14.8152 22.481 14.9076 22.4362 14.9999 22.4362C15.0692 22.4362 15.1384 22.4614 15.1917 22.5118C15.2095 22.5286 15.2255 22.5482 15.2391 22.5706L16.2617 24.2509L16.2616 24.2509Z" fill="url(#paint5_linear_0_1026)"/>
<path fill-rule="evenodd" clip-rule="evenodd" d="M15.2494 0H20.2917C21.152 0 21.8495 0.697576 21.8495 1.55803V5.77015C21.8495 6.63061 21.1521 7.32818 20.2917 7.32818H15.2494H9.70833C8.84787 7.32818 8.1503 6.63061 8.1503 5.77015V1.55803C8.1503 0.697576 8.84787 0 9.70833 0H15.2494Z" fill="url(#paint6_linear_0_1026)"/>
<path d="M54.9523 56.7467C54.5858 54.0508 53.3358 51.6341 51.2108 49.9716C49.3633 48.5263 47.1126 47.8532 44.7655 47.8843C44.1735 47.8921 43.6898 47.4165 43.6827 46.8286C43.6803 46.6292 43.6786 46.43 43.6786 46.2564C43.6786 44.8549 43.5465 43.7188 43.3835 43.7188C43.2204 43.7188 43.0883 44.8549 43.0883 46.2564C43.0883 47.2408 43.1536 48.0937 43.2489 48.5145C43.249 48.5154 43.249 48.5162 43.2491 48.5171C43.6156 51.2131 44.8655 53.6297 46.9905 55.2922C49.1156 56.9547 51.7741 57.5954 54.499 57.318C54.7844 57.289 54.9907 57.0289 54.9523 56.7467Z" fill="url(#paint7_linear_0_1026)"/>
<path d="M54.9552 56.7756C54.9633 56.8976 54.9173 57.0222 54.8387 57.121L44.334 48.9035C43.9036 48.5668 43.6192 48.0793 43.5389 47.541C43.5327 47.499 43.529 47.4741 43.529 47.4748V47.4712C43.4332 47.0012 43.3682 46.0476 43.3682 44.948C43.3682 44.5085 43.3782 44.0932 43.3972 43.7218C43.5543 43.7828 43.6789 44.8942 43.6789 46.2567C43.6789 46.4299 43.6807 46.629 43.6826 46.8291C43.6898 47.4085 44.1604 47.8785 44.7402 47.8848H44.7655C45.535 47.8749 46.2937 47.9395 47.0325 48.0839C47.1688 48.1099 47.3052 48.1395 47.4408 48.1709C47.7135 48.2355 47.9827 48.3108 48.2482 48.3978C48.3493 48.431 48.4504 48.4651 48.5507 48.5028C48.7124 48.5602 48.8731 48.6229 49.0312 48.6902C49.136 48.7341 49.2398 48.7799 49.3428 48.8293C49.9994 49.1333 50.6253 49.5136 51.2107 49.9721C53.3359 51.6342 54.5859 54.0506 54.9525 56.747C54.9534 56.7559 54.9552 56.7657 54.9552 56.7756Z" fill="url(#paint8_linear_0_1026)"/>
<path d="M47.2649 63.155C49.3169 64.7602 51.8837 65.3789 54.515 65.1111C54.772 65.0849 54.9871 64.8137 54.9525 64.5593C54.5985 61.9562 53.3918 59.6227 51.3398 58.0175C49.2879 56.4122 46.721 55.7935 44.0898 56.0614C43.8327 56.0876 43.6177 56.3587 43.6523 56.613C44.0061 59.2163 45.213 61.5498 47.2649 63.155Z" fill="url(#paint9_linear_0_1026)"/>
<path d="M54.9525 64.5595C54.5985 61.9563 53.3918 59.6228 51.3398 58.0176C49.2879 56.4124 46.721 55.7936 44.0898 56.0615C43.9613 56.0746 43.8432 56.1489 43.7616 56.2518L54.843 64.9208C54.9246 64.818 54.9697 64.6865 54.9525 64.5595Z" fill="url(#paint10_linear_0_1026)"/>
<path d="M47.6807 70.6986C49.6217 72.2171 52.0498 72.8023 54.5388 72.5489C54.7819 72.5242 54.9853 72.2677 54.9526 72.0271C54.6178 69.5646 53.4763 67.3574 51.5353 65.8389C49.5943 64.3204 47.1661 63.7352 44.6772 63.9885C44.434 64.0133 44.2306 64.2698 44.2633 64.5104C44.5981 66.9728 45.7397 69.1801 47.6807 70.6986Z" fill="url(#paint11_linear_0_1026)"/>
<path d="M54.9527 72.0271C54.6179 69.5646 53.4764 67.3574 51.5354 65.8389C49.5944 64.3204 47.1662 63.7352 44.6773 63.9885C44.5558 64.0009 44.4441 64.0713 44.3669 64.1686L54.8493 72.369C54.9264 72.2716 54.969 72.1474 54.9527 72.0271Z" fill="url(#paint12_linear_0_1026)"/>
<path d="M55.8577 56.7467C56.2242 54.0508 57.4742 51.6341 59.5992 49.9716C61.4466 48.5263 63.6974 47.8532 66.0445 47.8843C66.6365 47.8921 67.1202 47.4165 67.1273 46.8286C67.1297 46.6292 67.1314 46.43 67.1314 46.2564C67.1314 44.8549 67.2635 43.7188 67.4265 43.7188C67.5896 43.7188 67.7217 44.8549 67.7217 46.2564C67.7217 47.2408 67.6564 48.0937 67.5611 48.5145C67.561 48.5154 67.561 48.5162 67.5609 48.5171C67.1944 51.2131 65.9445 53.6297 63.8195 55.2922C61.6944 56.9547 59.0359 57.5954 56.311 57.318C56.0257 57.289 55.8193 57.0289 55.8577 56.7467Z" fill="url(#paint13_linear_0_1026)"/>
<path d="M55.8549 56.7756C55.8468 56.8976 55.8928 57.0222 55.9714 57.121L66.4761 48.9035C66.9065 48.5668 67.191 48.0793 67.2712 47.541C67.2774 47.499 67.2811 47.4741 67.2811 47.4748V47.4712C67.3769 47.0012 67.4419 46.0476 67.4419 44.948C67.4419 44.5085 67.4319 44.0932 67.4129 43.7218C67.2558 43.7828 67.1312 44.8942 67.1312 46.2567C67.1312 46.4299 67.1294 46.629 67.1276 46.8291C67.1203 47.4085 66.6498 47.8785 66.0699 47.8848H66.0446C65.2751 47.8749 64.5165 47.9395 63.7776 48.0839C63.6413 48.1099 63.5049 48.1395 63.3694 48.1709C63.0966 48.2355 62.8274 48.3108 62.5619 48.3978C62.4607 48.431 62.3596 48.4651 62.2593 48.5028C62.0977 48.5602 61.9369 48.6229 61.7788 48.6902C61.674 48.7341 61.5703 48.7799 61.4672 48.8293C60.8106 49.1333 60.1847 49.5136 59.5994 49.9721C57.4742 51.6342 56.2241 54.0506 55.8575 56.747C55.8567 56.7559 55.8549 56.7657 55.8549 56.7756Z" fill="url(#paint14_linear_0_1026)"/>
<path d="M63.5452 63.155C61.4933 64.7602 58.9264 65.3789 56.2951 65.1111C56.0381 65.0849 55.823 64.8137 55.8576 64.5593C56.2116 61.9562 57.4183 59.6227 59.4703 58.0175C61.5222 56.4122 64.0891 55.7935 66.7202 56.0614C66.9773 56.0876 67.1923 56.3587 67.1578 56.613C66.8039 59.2163 65.597 61.5498 63.5452 63.155Z" fill="url(#paint15_linear_0_1026)"/>
<path d="M55.8576 64.5595C56.2116 61.9563 57.4183 59.6228 59.4703 58.0176C61.5222 56.4124 64.0891 55.7936 66.7202 56.0615C66.8487 56.0746 66.9668 56.1489 67.0484 56.2518L55.967 64.9208C55.8854 64.818 55.8403 64.6865 55.8576 64.5595Z" fill="url(#paint16_linear_0_1026)"/>
<path d="M63.1294 70.6986C61.1884 72.2171 58.7602 72.8023 56.2713 72.5489C56.0281 72.5242 55.8247 72.2677 55.8574 72.0271C56.1922 69.5646 57.3338 67.3574 59.2748 65.8389C61.2158 64.3204 63.6439 63.7352 66.1328 63.9885C66.376 64.0133 66.5794 64.2698 66.5467 64.5104C66.2119 66.9728 65.0704 69.1801 63.1294 70.6986Z" fill="url(#paint17_linear_0_1026)"/>
<path d="M55.8574 72.0271C56.1922 69.5646 57.3338 67.3574 59.2748 65.8389C61.2157 64.3204 63.6439 63.7352 66.1328 63.9885C66.2544 64.0009 66.366 64.0713 66.4432 64.1686L55.9609 72.3689C55.8838 72.2716 55.841 72.1474 55.8574 72.0271Z" fill="url(#paint18_linear_0_1026)"/>
<path d="M55.405 77.0708C55.0309 77.0708 54.7276 76.7696 54.7276 76.3981V50.5642C54.7276 50.1926 55.0309 49.8915 55.405 49.8915C55.7791 49.8915 56.0824 50.1926 56.0824 50.5642V76.3981C56.0824 76.7696 55.7792 77.0708 55.405 77.0708Z" fill="url(#paint19_linear_0_1026)"/>
<path d="M56.2866 36.0165C55.9604 35.552 55.8074 34.9879 55.8411 34.4226C55.8418 34.4112 55.8422 34.4024 55.8424 34.3966C55.8515 34.2145 55.8565 34.0295 55.8565 33.8445C55.8564 33.6595 55.8524 33.4745 55.8431 33.2924C55.8399 33.2014 55.8347 33.111 55.8273 33.0217C55.8206 32.9325 55.8153 32.8444 55.8055 32.7576C55.7726 32.4106 55.7233 32.0869 55.6667 31.8095C55.6106 31.532 55.5473 31.3007 55.4957 31.1388C55.471 31.0579 55.3389 31.0579 55.3142 31.1388C55.2626 31.3007 55.1994 31.5319 55.1432 31.8095C55.0866 32.0869 55.0372 32.4108 55.0044 32.7576C54.9946 32.8442 54.9892 32.9325 54.9826 33.0217C54.9754 33.111 54.97 33.2013 54.9668 33.2924C54.9575 33.4745 54.9535 33.6595 54.9534 33.8445C54.9534 34.0295 54.9584 34.2145 54.9675 34.3966C54.9677 34.4024 54.9681 34.4113 54.9688 34.4226C55.0025 34.9879 54.8495 35.552 54.5233 36.0165C52.9296 38.2862 51.9949 41.0461 51.9949 44.0229C51.9949 47.3076 53.1331 50.3283 55.0388 52.7176C55.2249 52.9509 55.585 52.9509 55.771 52.7176C57.6766 50.3282 58.8149 47.3076 58.8149 44.0229C58.815 41.0461 57.8803 38.2863 56.2866 36.0165Z" fill="url(#paint20_linear_0_1026)"/>
<path d="M56.2866 36.0166C55.9604 35.552 55.8073 34.988 55.8411 34.4226C55.8418 34.4112 55.8422 34.4024 55.8424 34.3967C55.8514 34.2145 55.8565 34.0295 55.8565 33.8445C55.8564 33.6595 55.8524 33.4745 55.843 33.2924C55.8399 33.2014 55.8346 33.111 55.8273 33.0218C55.8206 32.9325 55.8153 32.8444 55.8055 32.7576C55.7726 32.4107 55.7233 32.0869 55.6667 31.8095C55.6106 31.532 55.5473 31.3007 55.4957 31.1388C55.4833 31.0983 55.4441 31.0781 55.4049 31.0781V52.8927C55.5415 52.8927 55.6779 52.8344 55.771 52.7177C55.9815 52.4537 56.182 52.1817 56.3732 51.9029C56.4272 51.8243 56.4805 51.7449 56.5329 51.6652C57.2045 50.6418 57.7452 49.5262 58.1314 48.3413C58.1732 48.2131 58.2132 48.084 58.2513 47.9542C58.287 47.8325 58.3218 47.7105 58.3543 47.5875C58.3793 47.4927 58.4034 47.3975 58.4265 47.3018C58.5444 46.8136 58.6363 46.3154 58.7011 45.8087C58.7252 45.6208 58.7459 45.4318 58.7624 45.2416C58.7972 44.84 58.815 44.4335 58.815 44.023C58.815 41.0461 57.8802 38.2863 56.2866 36.0166Z" fill="url(#paint21_linear_0_1026)"/>
<path d="M53.6079 58.9361C51.6136 59.1783 49.6613 58.7361 48 57.5416C49.3879 55.9419 50.2177 53.811 50.4839 51.4665C50.5032 51.2944 50.43 51.1151 50.3147 51.005C50.2549 50.9479 50.7866 51.3945 50.7866 51.3945C52.6099 53.1011 53.6818 55.5821 53.996 58.3499C54.029 58.6388 53.8527 58.9064 53.6079 58.9361Z" fill="url(#paint22_linear_0_1026)"/>
<path d="M46.2177 63.9348C48.294 65.5789 50.8912 66.2125 53.5536 65.9382C53.8137 65.9114 54.0313 65.6336 53.9963 65.3732C53.8492 64.2779 53.5539 63.2304 53.1159 62.2609L49.1512 58.2754C49.0733 58.1596 48.9516 58.0723 48.816 58.0584C46.7576 57.8463 44.7407 58.2088 43 59.1971C43.5933 61.062 44.6667 62.7066 46.2177 63.9348Z" fill="url(#paint23_linear_0_1026)"/>
<path d="M47.0345 70.1883C48.8928 71.6306 51.2175 72.1864 53.6004 71.9458C53.8332 71.9223 54.028 71.6786 53.9967 71.4501C53.9776 71.3107 53.9554 71.1722 53.9307 71.0346L48.0453 65.2358C47.9824 65.1353 47.878 65.0585 47.761 65.0467C46.4572 64.9151 45.1739 65.0602 44 65.4999C44.486 67.3545 45.4977 68.9955 47.0345 70.1883Z" fill="url(#paint24_linear_0_1026)"/>
<path d="M39.3673 50.3931C38.9878 47.7261 37.6938 45.3353 35.4938 43.6907C33.581 42.2609 31.2509 41.595 28.8209 41.6258C28.2081 41.6335 27.7073 41.163 27.6999 40.5814C27.6974 40.3842 27.6957 40.1871 27.6957 40.0153C27.6957 38.6289 27.5589 37.5049 27.3901 37.5049C27.2213 37.5049 27.0846 38.6289 27.0846 40.0153C27.0846 40.9892 27.1521 41.833 27.2508 42.2493C27.2509 42.2501 27.2509 42.2509 27.251 42.2518C27.6305 44.9189 28.9245 47.3096 31.1245 48.9542C33.3246 50.5989 36.0769 51.2327 38.898 50.9584C39.1933 50.9296 39.407 50.6723 39.3673 50.3931Z" fill="url(#paint25_linear_0_1026)"/>
<path d="M39.3702 50.4218C39.3786 50.5425 39.3309 50.6658 39.2495 50.7634L28.3741 42.6341C27.9285 42.301 27.634 41.8187 27.551 41.2863C27.5445 41.2447 27.5407 41.2201 27.5407 41.2207V41.2172C27.4415 40.7522 27.3742 39.8089 27.3742 38.721C27.3742 38.2862 27.3846 37.8753 27.4041 37.5079C27.5668 37.5683 27.6958 38.6677 27.6958 40.0157C27.6958 40.187 27.6976 40.3839 27.6996 40.5818C27.7071 41.1551 28.1942 41.62 28.7945 41.6262H28.8207C29.6174 41.6164 30.4028 41.6804 31.1677 41.8232C31.3089 41.8489 31.4501 41.8782 31.5904 41.9093C31.8728 41.9732 32.1515 42.0477 32.4263 42.1338C32.5311 42.1666 32.6357 42.2004 32.7396 42.2376C32.907 42.2944 33.0734 42.3565 33.2371 42.4231C33.3456 42.4665 33.453 42.5118 33.5597 42.5606C34.2395 42.8614 34.8875 43.2376 35.4935 43.691C37.6937 45.3353 38.9878 47.7258 39.3674 50.3932C39.3684 50.4022 39.3702 50.412 39.3702 50.4218Z" fill="url(#paint26_linear_0_1026)"/>
<path d="M31.4086 56.7326C33.5329 58.3207 36.1904 58.9328 38.9145 58.6678C39.1807 58.6419 39.4033 58.3736 39.3675 58.1221C39.001 55.5468 37.7517 53.2383 35.6273 51.6504C33.503 50.0624 30.8455 49.4503 28.1214 49.7153C27.8552 49.7412 27.6326 50.0094 27.6684 50.2611C28.0348 52.8362 29.2842 55.1447 31.4086 56.7326Z" fill="url(#paint27_linear_0_1026)"/>
<path d="M39.3674 58.1221C39.0009 55.5468 37.7516 53.2383 35.6272 51.6504C33.5028 50.0624 30.8454 49.4503 28.1213 49.7153C27.9882 49.7282 27.866 49.8018 27.7815 49.9035L39.254 58.4795C39.3386 58.3778 39.3853 58.2478 39.3674 58.1221Z" fill="url(#paint28_linear_0_1026)"/>
<path d="M31.839 64.1954C33.8485 65.6976 36.3623 66.2765 38.9391 66.0259C39.1909 66.0014 39.4014 65.7476 39.3676 65.5097C39.021 63.0736 37.8391 60.89 35.8296 59.3878C33.8201 57.8856 31.3063 57.3067 28.7295 57.5573C28.4778 57.5818 28.2672 57.8356 28.301 58.0735C28.6476 60.5096 29.8295 62.6932 31.839 64.1954Z" fill="url(#paint29_linear_0_1026)"/>
<path d="M39.3676 65.5097C39.021 63.0736 37.8391 60.89 35.8296 59.3878C33.8201 57.8856 31.3063 57.3067 28.7295 57.5573C28.6037 57.5696 28.4881 57.6391 28.4081 57.7354L39.2605 65.8479C39.3403 65.7515 39.3846 65.6286 39.3676 65.5097Z" fill="url(#paint30_linear_0_1026)"/>
<path d="M32.8598 71.0795C34.597 72.3781 36.7701 72.8786 38.9977 72.6619C39.2153 72.6407 39.3974 72.4214 39.3682 72.2157C39.0685 70.1098 38.0468 68.2221 36.3097 66.9235C34.5726 65.6249 32.3994 65.1244 30.1718 65.3411C29.9543 65.3623 29.7721 65.5816 29.8014 65.7873C30.101 67.8932 31.1227 69.7809 32.8598 71.0795Z" fill="url(#paint31_linear_0_1026)"/>
<path d="M39.3681 72.2157C39.0685 70.1098 38.0468 68.2221 36.3097 66.9235C34.5726 65.6249 32.3994 65.1244 30.1718 65.3411C30.063 65.3517 29.9631 65.4118 29.8941 65.495L39.2755 72.508C39.3445 72.4248 39.3828 72.3185 39.3681 72.2157Z" fill="url(#paint32_linear_0_1026)"/>
<path d="M40.3046 50.3931C40.6841 47.7261 41.9781 45.3353 44.1781 43.6907C46.0908 42.2609 48.421 41.595 50.8509 41.6258C51.4638 41.6335 51.9646 41.163 51.972 40.5814C51.9745 40.3842 51.9762 40.1871 51.9762 40.0153C51.9762 38.6289 52.113 37.5049 52.2818 37.5049C52.4506 37.5049 52.5873 38.6289 52.5873 40.0153C52.5873 40.9892 52.5197 41.833 52.4211 42.2493C52.421 42.2501 52.421 42.2509 52.4209 42.2518C52.0414 44.9189 50.7474 47.3096 48.5474 48.9542C46.3473 50.5989 43.595 51.2327 40.7739 50.9584C40.4784 50.9296 40.2648 50.6723 40.3046 50.3931Z" fill="url(#paint33_linear_0_1026)"/>
<path d="M40.3017 50.4218C40.2933 50.5425 40.3409 50.6658 40.4224 50.7634L51.2978 42.6341C51.7434 42.301 52.0379 41.8187 52.1209 41.2863C52.1274 41.2447 52.1312 41.2201 52.1312 41.2207V41.2172C52.2304 40.7522 52.2977 39.8089 52.2977 38.721C52.2977 38.2862 52.2874 37.8753 52.2677 37.5079C52.105 37.5683 51.976 38.6677 51.976 40.0157C51.976 40.187 51.9742 40.3839 51.9722 40.5818C51.9647 41.1551 51.4776 41.62 50.8773 41.6262H50.8511C50.0544 41.6164 49.269 41.6804 48.5041 41.8232C48.3629 41.8489 48.2217 41.8782 48.0814 41.9093C47.799 41.9732 47.5203 42.0477 47.2454 42.1338C47.1406 42.1666 47.036 42.2004 46.9322 42.2376C46.7648 42.2944 46.5984 42.3565 46.4347 42.4231C46.3262 42.4665 46.2188 42.5118 46.1121 42.5606C45.4323 42.8614 44.7843 43.2376 44.1783 43.691C41.9781 45.3353 40.684 47.7258 40.3044 50.3932C40.3035 50.4022 40.3017 50.412 40.3017 50.4218Z" fill="url(#paint34_linear_0_1026)"/>
<path d="M48.2633 56.7326C46.1389 58.3207 43.4814 58.9328 40.7575 58.6678C40.4913 58.6419 40.2687 58.3736 40.3045 58.1221C40.671 55.5468 41.9203 53.2383 44.0447 51.6504C46.169 50.0624 48.8265 49.4503 51.5506 49.7153C51.8166 49.7412 52.0394 50.0094 52.0036 50.2611C51.6371 52.8362 50.3876 55.1447 48.2633 56.7326Z" fill="url(#paint35_linear_0_1026)"/>
<path d="M40.3044 58.1221C40.6709 55.5468 41.9202 53.2383 44.0446 51.6504C46.1689 50.0624 48.8264 49.4503 51.5505 49.7153C51.6835 49.7282 51.8058 49.8018 51.8903 49.9035L40.4177 58.4795C40.3333 58.3778 40.2866 58.2478 40.3044 58.1221Z" fill="url(#paint36_linear_0_1026)"/>
<path d="M47.8329 64.1954C45.8234 65.6976 43.3096 66.2765 40.7328 66.0259C40.481 66.0014 40.2704 65.7476 40.3043 65.5097C40.6509 63.0736 41.8328 60.89 43.8423 59.3878C45.8518 57.8856 48.3656 57.3067 50.9424 57.5573C51.1941 57.5818 51.4047 57.8356 51.3709 58.0735C51.0243 60.5096 49.8424 62.6932 47.8329 64.1954Z" fill="url(#paint37_linear_0_1026)"/>
<path d="M40.3042 65.5097C40.6508 63.0736 41.8326 60.89 43.8421 59.3878C45.8516 57.8856 48.3655 57.3067 50.9423 57.5573C51.0681 57.5696 51.1837 57.6391 51.2636 57.7354L40.4113 65.8479C40.3315 65.7515 40.2873 65.6286 40.3042 65.5097Z" fill="url(#paint38_linear_0_1026)"/>
<path d="M46.812 71.0795C45.0748 72.3781 42.9017 72.8786 40.6741 72.6619C40.4565 72.6407 40.2744 72.4214 40.3036 72.2157C40.6033 70.1098 41.625 68.2221 43.3621 66.9235C45.0992 65.6249 47.2724 65.1244 49.5 65.3411C49.7175 65.3623 49.8996 65.5816 49.8704 65.7873C49.5709 67.8932 48.5491 69.7809 46.812 71.0795Z" fill="url(#paint39_linear_0_1026)"/>
<path d="M40.3038 72.2157C40.6034 70.1098 41.6251 68.2221 43.3622 66.9235C45.0993 65.6249 47.2725 65.1244 49.5001 65.3411C49.6089 65.3517 49.7088 65.4118 49.7779 65.495L40.3965 72.508C40.3273 72.4248 40.2891 72.3185 40.3038 72.2157Z" fill="url(#paint40_linear_0_1026)"/>
<path d="M39.836 77C39.4486 77 39.1347 76.7021 39.1347 76.3345V44.277C39.1347 43.9094 39.4486 43.6115 39.836 43.6115C40.2233 43.6115 40.5372 43.9094 40.5372 44.277V76.3345C40.5372 76.7021 40.2233 77 39.836 77Z" fill="url(#paint41_linear_0_1026)"/>
<path d="M40.7486 29.8854C40.4109 29.4259 40.2524 28.8679 40.2873 28.3086C40.2881 28.2973 40.2885 28.2886 40.2887 28.2829C40.2981 28.1027 40.3033 27.9197 40.3033 27.7367C40.3032 27.5537 40.299 27.3707 40.2894 27.1905C40.2861 27.1005 40.2807 27.011 40.273 26.9228C40.2662 26.8345 40.2607 26.7472 40.2505 26.6614C40.2165 26.3182 40.1654 25.998 40.1068 25.7235C40.0487 25.4489 39.9831 25.2202 39.9297 25.06C39.9042 24.98 39.7674 24.98 39.7418 25.06C39.6884 25.2202 39.623 25.4489 39.5648 25.7235C39.5062 25.998 39.4551 26.3183 39.4211 26.6614C39.4109 26.7472 39.4053 26.8345 39.3986 26.9228C39.391 27.011 39.3854 27.1004 39.3822 27.1905C39.3726 27.3707 39.3685 27.5537 39.3683 27.7367C39.3683 27.9197 39.3735 28.1027 39.3829 28.2829C39.3831 28.2886 39.3835 28.2974 39.3843 28.3086C39.4192 28.8679 39.2607 29.4259 38.923 29.8854C37.2731 32.1308 36.3054 34.861 36.3054 37.8058C36.3054 41.0553 37.4837 44.0435 39.4567 46.4073C39.6494 46.6381 40.0222 46.6381 40.2148 46.4073C42.1877 44.0435 43.3661 41.0553 43.3661 37.8058C43.3663 34.861 42.3985 32.1308 40.7486 29.8854Z" fill="url(#paint42_linear_0_1026)"/>
<path d="M40.7486 29.8855C40.4109 29.4259 40.2524 28.8679 40.2873 28.3086C40.2881 28.2973 40.2885 28.2886 40.2887 28.2829C40.298 28.1028 40.3033 27.9197 40.3033 27.7367C40.3032 27.5537 40.299 27.3707 40.2893 27.1905C40.2861 27.1005 40.2806 27.0111 40.273 26.9228C40.2661 26.8345 40.2607 26.7472 40.2505 26.6615C40.2165 26.3183 40.1654 25.998 40.1068 25.7235C40.0487 25.4489 39.9831 25.2202 39.9297 25.0601C39.9171 25.02 39.8766 25 39.8359 25V46.5805C39.9773 46.5805 40.1186 46.5228 40.215 46.4074C40.4329 46.1463 40.6405 45.8772 40.8385 45.6014C40.8944 45.5235 40.9495 45.4451 41.0037 45.3662C41.6991 44.3538 42.2589 43.2502 42.6587 42.0779C42.702 41.9511 42.7433 41.8234 42.7829 41.695C42.8198 41.5746 42.8558 41.4539 42.8895 41.3323C42.9153 41.2385 42.9403 41.1443 42.9642 41.0496C43.0863 40.5667 43.1814 40.0738 43.2485 39.5725C43.2735 39.3867 43.2948 39.1997 43.3119 39.0116C43.348 38.6142 43.3664 38.2122 43.3664 37.806C43.3663 34.861 42.3984 32.1308 40.7486 29.8855Z" fill="url(#paint43_linear_0_1026)"/>
<defs>
<linearGradient id="paint0_linear_0_1026" x1="-8.49752" y1="32.8559" x2="21.285" y2="46.0527" gradientUnits="userSpaceOnUse">
<stop stop-color="#FFC8A3"/>
<stop offset="1" stop-color="#F89B5D"/>
</linearGradient>
<linearGradient id="paint1_linear_0_1026" x1="27.5998" y1="11.0643" x2="11.7488" y2="-7.06314" gradientUnits="userSpaceOnUse">
<stop stop-color="#F35227" stop-opacity="0.01"/>
<stop offset="1" stop-color="#F35227"/>
</linearGradient>
<linearGradient id="paint2_linear_0_1026" x1="56.3273" y1="36.5285" x2="53.8595" y2="26.1632" gradientUnits="userSpaceOnUse">
<stop stop-color="#F35227" stop-opacity="0.01"/>
<stop offset="1" stop-color="#F35227"/>
</linearGradient>
<linearGradient id="paint3_linear_0_1026" x1="-43.3874" y1="64.6956" x2="1.93171" y2="124.836" gradientUnits="userSpaceOnUse">
<stop stop-color="#92F37F"/>
<stop offset="0.550454" stop-color="#50B773"/>
<stop offset="1" stop-color="#4AB272"/>
</linearGradient>
<linearGradient id="paint4_linear_0_1026" x1="6.41166" y1="29.3626" x2="18.4568" y2="38.2537" gradientUnits="userSpaceOnUse">
<stop stop-color="#F8F6FB"/>
<stop offset="1" stop-color="#EFDCFB"/>
</linearGradient>
<linearGradient id="paint5_linear_0_1026" x1="20.3603" y1="15.0897" x2="7.66654" y2="18.2016" gradientUnits="userSpaceOnUse">
<stop stop-color="#FFA981"/>
<stop offset="0.428" stop-color="#FF8666"/>
<stop offset="1" stop-color="#FF5C45"/>
</linearGradient>
<linearGradient id="paint6_linear_0_1026" x1="4.24856" y1="4.02012" x2="9.58158" y2="13.1637" gradientUnits="userSpaceOnUse">
<stop stop-color="#FFC198"/>
<stop offset="1" stop-color="#FFA162"/>
</linearGradient>
<linearGradient id="paint7_linear_0_1026" x1="40.1257" y1="54.3161" x2="51.3098" y2="59.0622" gradientUnits="userSpaceOnUse">
<stop stop-color="#FFD945"/>
<stop offset="0.3043" stop-color="#FFCD3E"/>
<stop offset="0.8558" stop-color="#FFAD2B"/>
<stop offset="1" stop-color="#FFA325"/>
</linearGradient>
<linearGradient id="paint8_linear_0_1026" x1="48.4909" y1="48.8143" x2="45.735" y2="50.3081" gradientUnits="userSpaceOnUse">
<stop stop-color="#E87264" stop-opacity="0.01"/>
<stop offset="1" stop-color="#FF7044"/>
</linearGradient>
<linearGradient id="paint9_linear_0_1026" x1="47.9244" y1="64.5315" x2="53.0146" y2="60.6259" gradientUnits="userSpaceOnUse">
<stop stop-color="#FFD945"/>
<stop offset="0.3043" stop-color="#FFCD3E"/>
<stop offset="0.8558" stop-color="#FFAD2B"/>
<stop offset="1" stop-color="#FFA325"/>
</linearGradient>
<linearGradient id="paint10_linear_0_1026" x1="47.1249" y1="55.6478" x2="40.568" y2="63.751" gradientUnits="userSpaceOnUse">
<stop stop-color="#E87264" stop-opacity="0.01"/>
<stop offset="1" stop-color="#FF7044"/>
</linearGradient>
<linearGradient id="paint11_linear_0_1026" x1="48.3053" y1="72.0014" x2="53.1203" y2="68.3069" gradientUnits="userSpaceOnUse">
<stop stop-color="#FFD945"/>
<stop offset="0.3043" stop-color="#FFCD3E"/>
<stop offset="0.8558" stop-color="#FFAD2B"/>
<stop offset="1" stop-color="#FFA325"/>
</linearGradient>
<linearGradient id="paint12_linear_0_1026" x1="46.7791" y1="64.202" x2="40.5765" y2="71.8671" gradientUnits="userSpaceOnUse">
<stop stop-color="#E87264" stop-opacity="0.01"/>
<stop offset="1" stop-color="#FF7044"/>
</linearGradient>
<linearGradient id="paint13_linear_0_1026" x1="65.4793" y1="42.0505" x2="54.2952" y2="46.7967" gradientUnits="userSpaceOnUse">
<stop stop-color="#FFD945"/>
<stop offset="0.3043" stop-color="#FFCD3E"/>
<stop offset="0.8558" stop-color="#FFAD2B"/>
<stop offset="1" stop-color="#FFA325"/>
</linearGradient>
<linearGradient id="paint14_linear_0_1026" x1="62.7522" y1="55.3028" x2="70.7972" y2="56.2463" gradientUnits="userSpaceOnUse">
<stop stop-color="#E87264" stop-opacity="0.01"/>
<stop offset="1" stop-color="#FF7044"/>
</linearGradient>
<linearGradient id="paint15_linear_0_1026" x1="66.3985" y1="59.7389" x2="61.3082" y2="55.8334" gradientUnits="userSpaceOnUse">
<stop stop-color="#FFD945"/>
<stop offset="0.3043" stop-color="#FFCD3E"/>
<stop offset="0.8558" stop-color="#FFAD2B"/>
<stop offset="1" stop-color="#FFA325"/>
</linearGradient>
<linearGradient id="paint16_linear_0_1026" x1="56.1" y1="62.9254" x2="62.657" y2="71.0285" gradientUnits="userSpaceOnUse">
<stop stop-color="#E87264" stop-opacity="0.01"/>
<stop offset="1" stop-color="#FF7044"/>
</linearGradient>
<linearGradient id="paint17_linear_0_1026" x1="65.8216" y1="67.4644" x2="61.0065" y2="63.77" gradientUnits="userSpaceOnUse">
<stop stop-color="#FFD945"/>
<stop offset="0.3043" stop-color="#FFCD3E"/>
<stop offset="0.8558" stop-color="#FFAD2B"/>
<stop offset="1" stop-color="#FFA325"/>
</linearGradient>
<linearGradient id="paint18_linear_0_1026" x1="56.0796" y1="70.4786" x2="62.2821" y2="78.1437" gradientUnits="userSpaceOnUse">
<stop stop-color="#E87264" stop-opacity="0.01"/>
<stop offset="1" stop-color="#FF7044"/>
</linearGradient>
<linearGradient id="paint19_linear_0_1026" x1="55.2453" y1="83.8542" x2="57.2767" y2="83.8543" gradientUnits="userSpaceOnUse">
<stop stop-color="#FFA325"/>
<stop offset="0.1041" stop-color="#FF9C29"/>
<stop offset="0.6814" stop-color="#FF7C3D"/>
<stop offset="1" stop-color="#FF7044"/>
</linearGradient>
<linearGradient id="paint20_linear_0_1026" x1="50.9904" y1="51.4188" x2="58.4018" y2="51.8262" gradientUnits="userSpaceOnUse">
<stop stop-color="#FFD945"/>
<stop offset="0.3043" stop-color="#FFCD3E"/>
<stop offset="0.8558" stop-color="#FFAD2B"/>
<stop offset="1" stop-color="#FFA325"/>
</linearGradient>
<linearGradient id="paint21_linear_0_1026" x1="57.3619" y1="1.68451" x2="44.5855" y2="1.5937" gradientUnits="userSpaceOnUse">
<stop stop-color="#E87264" stop-opacity="0.01"/>
<stop offset="1" stop-color="#FF7044"/>
</linearGradient>
<linearGradient id="paint22_linear_0_1026" x1="50.8293" y1="54.0321" x2="49.0393" y2="53.3577" gradientUnits="userSpaceOnUse">
<stop stop-color="#E87264" stop-opacity="0.01"/>
<stop offset="1" stop-color="#FF7044"/>
</linearGradient>
<linearGradient id="paint23_linear_0_1026" x1="50.8104" y1="60.8536" x2="47.9706" y2="58.4908" gradientUnits="userSpaceOnUse">
<stop stop-color="#E87264" stop-opacity="0.01"/>
<stop offset="1" stop-color="#FF7044"/>
</linearGradient>
<linearGradient id="paint24_linear_0_1026" x1="52.5474" y1="67.4051" x2="49.1912" y2="61.9465" gradientUnits="userSpaceOnUse">
<stop stop-color="#E87264" stop-opacity="0.01"/>
<stop offset="1" stop-color="#FF7044"/>
</linearGradient>
<linearGradient id="paint25_linear_0_1026" x1="24.0174" y1="47.9885" x2="35.4303" y2="53.0571" gradientUnits="userSpaceOnUse">
<stop stop-color="#FFD945"/>
<stop offset="0.3043" stop-color="#FFCD3E"/>
<stop offset="0.8558" stop-color="#FFAD2B"/>
<stop offset="1" stop-color="#FFA325"/>
</linearGradient>
<linearGradient id="paint26_linear_0_1026" x1="31.1052" y1="39.804" x2="22.787" y2="40.8249" gradientUnits="userSpaceOnUse">
<stop stop-color="#E87264" stop-opacity="0.01"/>
<stop offset="1" stop-color="#FF7044"/>
</linearGradient>
<linearGradient id="paint27_linear_0_1026" x1="32.0796" y1="58.0983" x2="37.1698" y2="54.011" gradientUnits="userSpaceOnUse">
<stop stop-color="#FFD945"/>
<stop offset="0.3043" stop-color="#FFCD3E"/>
<stop offset="0.8558" stop-color="#FFAD2B"/>
<stop offset="1" stop-color="#FFA325"/>
</linearGradient>
<linearGradient id="paint28_linear_0_1026" x1="30.4092" y1="49.9418" x2="23.9902" y2="58.2436" gradientUnits="userSpaceOnUse">
<stop stop-color="#E87264" stop-opacity="0.01"/>
<stop offset="1" stop-color="#FF7044"/>
</linearGradient>
<linearGradient id="paint29_linear_0_1026" x1="32.4738" y1="65.4882" x2="37.289" y2="61.6218" gradientUnits="userSpaceOnUse">
<stop stop-color="#FFD945"/>
<stop offset="0.3043" stop-color="#FFCD3E"/>
<stop offset="0.8558" stop-color="#FFAD2B"/>
<stop offset="1" stop-color="#FFA325"/>
</linearGradient>
<linearGradient id="paint30_linear_0_1026" x1="30.8938" y1="57.7724" x2="24.8217" y2="65.6254" gradientUnits="userSpaceOnUse">
<stop stop-color="#E87264" stop-opacity="0.01"/>
<stop offset="1" stop-color="#FF7044"/>
</linearGradient>
<linearGradient id="paint31_linear_0_1026" x1="33.4066" y1="72.1968" x2="37.5691" y2="68.8545" gradientUnits="userSpaceOnUse">
<stop stop-color="#FFD945"/>
<stop offset="0.3043" stop-color="#FFCD3E"/>
<stop offset="0.8558" stop-color="#FFAD2B"/>
<stop offset="1" stop-color="#FFA325"/>
</linearGradient>
<linearGradient id="paint32_linear_0_1026" x1="32.0407" y1="65.5268" x2="26.7914" y2="72.3155" gradientUnits="userSpaceOnUse">
<stop stop-color="#E87264" stop-opacity="0.01"/>
<stop offset="1" stop-color="#FF7044"/>
</linearGradient>
<linearGradient id="paint33_linear_0_1026" x1="50.2658" y1="35.8546" x2="38.8527" y2="40.9231" gradientUnits="userSpaceOnUse">
<stop stop-color="#FFD945"/>
<stop offset="0.3043" stop-color="#FFCD3E"/>
<stop offset="0.8558" stop-color="#FFAD2B"/>
<stop offset="1" stop-color="#FFA325"/>
</linearGradient>
<linearGradient id="paint34_linear_0_1026" x1="47.4424" y1="48.9647" x2="55.7605" y2="49.9856" gradientUnits="userSpaceOnUse">
<stop stop-color="#E87264" stop-opacity="0.01"/>
<stop offset="1" stop-color="#FF7044"/>
</linearGradient>
<linearGradient id="paint35_linear_0_1026" x1="51.2087" y1="53.3462" x2="46.1185" y2="49.2588" gradientUnits="userSpaceOnUse">
<stop stop-color="#FFD945"/>
<stop offset="0.3043" stop-color="#FFCD3E"/>
<stop offset="0.8558" stop-color="#FFAD2B"/>
<stop offset="1" stop-color="#FFA325"/>
</linearGradient>
<linearGradient id="paint36_linear_0_1026" x1="40.5466" y1="56.4984" x2="46.9656" y2="64.8003" gradientUnits="userSpaceOnUse">
<stop stop-color="#E87264" stop-opacity="0.01"/>
<stop offset="1" stop-color="#FF7044"/>
</linearGradient>
<linearGradient id="paint37_linear_0_1026" x1="50.6114" y1="60.9888" x2="45.7962" y2="57.1225" gradientUnits="userSpaceOnUse">
<stop stop-color="#FFD945"/>
<stop offset="0.3043" stop-color="#FFCD3E"/>
<stop offset="0.8558" stop-color="#FFAD2B"/>
<stop offset="1" stop-color="#FFA325"/>
</linearGradient>
<linearGradient id="paint38_linear_0_1026" x1="40.5257" y1="63.9707" x2="46.5979" y2="71.8237" gradientUnits="userSpaceOnUse">
<stop stop-color="#E87264" stop-opacity="0.01"/>
<stop offset="1" stop-color="#FF7044"/>
</linearGradient>
<linearGradient id="paint39_linear_0_1026" x1="49.1973" y1="68.2971" x2="45.0347" y2="64.9548" gradientUnits="userSpaceOnUse">
<stop stop-color="#FFD945"/>
<stop offset="0.3043" stop-color="#FFCD3E"/>
<stop offset="0.8558" stop-color="#FFAD2B"/>
<stop offset="1" stop-color="#FFA325"/>
</linearGradient>
<linearGradient id="paint40_linear_0_1026" x1="40.4786" y1="70.8749" x2="45.7278" y2="77.6636" gradientUnits="userSpaceOnUse">
<stop stop-color="#E87264" stop-opacity="0.01"/>
<stop offset="1" stop-color="#FF7044"/>
</linearGradient>
<linearGradient id="paint41_linear_0_1026" x1="39.6568" y1="87.4694" x2="41.9393" y2="87.4695" gradientUnits="userSpaceOnUse">
<stop stop-color="#FFA325"/>
<stop offset="0.1041" stop-color="#FF9C29"/>
<stop offset="0.6814" stop-color="#FF7C3D"/>
<stop offset="1" stop-color="#FF7044"/>
</linearGradient>
<linearGradient id="paint42_linear_0_1026" x1="35.2655" y1="45.1223" x2="42.9362" y2="45.5635" gradientUnits="userSpaceOnUse">
<stop stop-color="#FFD945"/>
<stop offset="0.3043" stop-color="#FFCD3E"/>
<stop offset="0.8558" stop-color="#FFAD2B"/>
<stop offset="1" stop-color="#FFA325"/>
</linearGradient>
<linearGradient id="paint43_linear_0_1026" x1="41.8619" y1="-4.07845" x2="28.6345" y2="-4.17685" gradientUnits="userSpaceOnUse">
<stop stop-color="#E87264" stop-opacity="0.01"/>
<stop offset="1" stop-color="#FF7044"/>
</linearGradient>
</defs>
</svg>
