<svg width="78" height="71" viewBox="0 0 78 71" fill="none" xmlns="http://www.w3.org/2000/svg">
<path fill-rule="evenodd" clip-rule="evenodd" d="M9.46483 70.6207C7.19283 70.6207 5.07959 69.4399 3.51434 67.2957C2.02372 65.2537 1.20303 62.5564 1.20303 59.7007C1.20303 56.845 2.02386 54.1479 3.51434 52.1057C5.07945 49.9614 7.19269 48.7807 9.46483 48.7807C11.737 48.7807 13.8501 49.9615 15.4153 52.1057C16.9058 54.1477 17.7266 56.845 17.7266 59.7007C17.7266 62.5564 16.9058 65.2535 15.4153 67.2957C13.8501 69.4399 11.7368 70.6207 9.46483 70.6207ZM13.1215 66.7162C14.608 65.1161 15.5714 62.5669 15.5714 59.7007C15.5714 56.8346 14.608 54.2855 13.1216 52.6854C13.7922 54.6726 14.1345 57.1938 14.1345 59.7007C14.1345 62.2077 13.7921 64.7289 13.1215 66.7162ZM5.80816 52.6852C4.32168 54.2853 3.35821 56.8345 3.35821 59.7007C3.35821 62.5668 4.32164 65.116 5.80809 66.7161C5.13748 64.7289 4.79517 62.2076 4.79517 59.7007C4.79517 57.1937 5.13751 54.6725 5.80816 52.6852ZM9.46483 50.936C8.71296 50.936 6.95034 53.9179 6.95034 59.7007C6.95034 65.4835 8.71283 68.4654 9.46483 68.4654C10.2167 68.4654 11.9793 65.4835 11.9793 59.7007C11.9792 53.9179 10.2167 50.936 9.46483 50.936Z" fill="url(#paint0_linear_0_1277)"/>
<path d="M9.46483 70.6207C8.86966 70.6207 8.38718 70.1382 8.38718 69.543V47.1284H10.5425V69.5432C10.5425 70.1382 10.06 70.6207 9.46483 70.6207Z" fill="url(#paint1_linear_0_1277)"/>
<path d="M15.4152 52.1058C14.1008 50.3051 12.3995 49.1872 10.5425 48.8741V47.1284H8.38718V47.6625L8.45904 47.703L17.4014 56.6454C17.0328 54.9538 16.3586 53.3983 15.4152 52.1058Z" fill="url(#paint2_linear_0_1277)"/>
<path d="M10.9382 47.703H7.99158C6.42469 47.703 5.15448 46.4328 5.15448 44.8659V41.5245H13.7754V44.8659C13.7753 46.4328 12.5051 47.703 10.9382 47.703Z" fill="url(#paint3_linear_0_1277)"/>
<path d="M5.15421 43.1052L9.752 47.703H10.9381C12.505 47.703 13.7752 46.4328 13.7752 44.8659V41.5245H5.15421V43.1052Z" fill="url(#paint4_linear_0_1277)"/>
<path d="M51.2747 43.1847H5.44358C3.93461 43.1847 2.71158 41.9615 2.71158 40.4527V39.0822H54.0068V40.4527C54.0069 41.9614 52.7836 43.1847 51.2747 43.1847Z" fill="url(#paint5_linear_0_1277)"/>
<path fill-rule="evenodd" clip-rule="evenodd" d="M36.0163 13.3626H49.5947C53.063 13.3626 55.8746 16.1742 55.8747 19.6426V35.532C55.8747 39.0003 53.063 41.812 49.5947 41.812H6.40537C2.93709 41.812 0.125366 39.0003 0.125366 35.532V17.111C0.125366 14.6491 0.724952 12.2243 1.87268 10.0462L3.73612 6.50938C5.8455 2.50607 9.99833 0 14.5234 0H24.967C29.0227 0 32.3105 3.28772 32.3105 7.34345V9.65683C32.3105 11.7034 33.9696 13.3626 36.0163 13.3626ZM27.377 13.219C27.7211 13.219 28 12.9401 28 12.596H28.0001V8.90028C28.0001 6.60345 26.1382 4.74152 23.8414 4.74152H14.116C11.155 4.74152 8.51419 6.60469 7.52137 9.39421L6.45612 12.387C6.31185 12.7927 6.61268 13.219 7.04316 13.219H27.377Z" fill="url(#paint6_linear_0_1277)"/>
<path d="M8.81819 31.3232H19.7382C21.1269 31.3232 22.2527 32.449 22.2527 33.8377C22.2527 35.2264 21.1269 36.3521 19.7382 36.3521H8.81819C7.4295 36.3521 6.30371 35.2264 6.30371 33.8377C6.30371 32.4488 7.42937 31.3232 8.81819 31.3232Z" fill="url(#paint7_linear_0_1277)"/>
<path d="M8.81819 24.4263H19.7382C21.1269 24.4263 22.2527 25.5521 22.2527 26.9408C22.2527 28.3295 21.1269 29.4553 19.7382 29.4553H8.81819C7.4295 29.4553 6.30371 28.3295 6.30371 26.9408C6.30371 25.5521 7.42937 24.4263 8.81819 24.4263Z" fill="url(#paint8_linear_0_1277)"/>
<path d="M8.81819 17.5294H19.7382C21.1269 17.5294 22.2527 18.6552 22.2527 20.0438C22.2527 21.4325 21.1269 22.5583 19.7382 22.5583H8.81819C7.4295 22.5583 6.30371 21.4325 6.30371 20.0438C6.30371 18.6552 7.42937 17.5294 8.81819 17.5294Z" fill="url(#paint9_linear_0_1277)"/>
<path d="M38.128 31.501C37.6044 30.9499 36.8665 30.6047 36.0464 30.6047C34.4593 30.6047 33.1727 31.8912 33.1727 33.4783C33.1727 34.2985 33.5181 35.0364 34.069 35.56L39.281 40.772C39.8046 41.323 40.5426 41.6683 41.3626 41.6683C42.9498 41.6683 44.2363 40.3818 44.2363 38.7946C44.2363 37.9746 43.891 37.2365 43.34 36.713L38.128 31.501Z" fill="url(#paint10_linear_0_1277)"/>
<circle cx="36.0466" cy="33.4783" r="2.87366" fill="url(#paint11_radial_0_1277)"/>
<path d="M45.7432 31.501C45.2196 30.9499 44.4817 30.6047 43.6615 30.6047C42.0745 30.6047 40.7879 31.8912 40.7879 33.4783C40.7879 34.2985 41.1333 35.0364 41.6841 35.56L46.8961 40.772C47.4197 41.323 48.1578 41.6683 48.9778 41.6683C50.565 41.6683 51.8515 40.3818 51.8515 38.7946C51.8515 37.9746 51.5062 37.2365 50.9552 36.713L45.7432 31.501Z" fill="url(#paint12_linear_0_1277)"/>
<circle cx="43.6613" cy="33.4783" r="2.87366" fill="url(#paint13_radial_0_1277)"/>
<path fill-rule="evenodd" clip-rule="evenodd" d="M32.3105 9.65683C32.3105 11.7034 33.9696 13.3626 36.0163 13.3626H0.597504C0.890469 12.2152 1.31654 11.1017 1.87268 10.0462L3.73612 6.50938C5.8455 2.50607 9.99833 0 14.5234 0H24.967C29.0227 0 32.3105 3.28772 32.3105 7.34345V9.65683ZM7.52137 9.39421L6.45612 12.387C6.31185 12.7926 6.61254 13.2189 7.04316 13.219H27.3771C27.7212 13.219 28.0001 12.9401 28.0001 12.596V8.90028C28.0001 6.60345 26.1382 4.74152 23.8414 4.74152H14.116C11.155 4.74152 8.51419 6.60469 7.52137 9.39421Z" fill="url(#paint14_linear_0_1277)"/>
<rect x="46.9197" y="24.7468" width="12.1616" height="5.52" fill="url(#paint15_linear_0_1277)"/>
<path d="M59.0807 24.7463H46.9193V26.0615L51.124 30.2663H59.0807V24.7463Z" fill="url(#paint16_linear_0_1277)"/>
<path d="M74.347 68.9496H31.653V49.5432C31.653 37.7536 41.2103 28.1963 53 28.1963C64.7897 28.1963 74.347 37.7536 74.347 49.5432V68.9496Z" fill="url(#paint17_linear_0_1277)"/>
<path d="M76.2169 70.6522H29.783C28.8312 70.6522 28.0596 69.8805 28.0596 68.9287C28.0596 67.9768 28.8312 67.2052 29.783 67.2052H76.2169C77.1687 67.2052 77.9403 67.9768 77.9403 68.9287C77.9403 69.8805 77.1687 70.6522 76.2169 70.6522Z" fill="url(#paint18_linear_0_1277)"/>
<circle cx="53" cy="48.2494" r="15.7463" fill="url(#paint19_linear_0_1277)"/>
<circle cx="53" cy="48.2493" r="14.619" fill="url(#paint20_linear_0_1277)"/>
<circle cx="53" cy="48.2493" r="14.619" fill="url(#paint21_linear_0_1277)"/>
<circle cx="53" cy="48.2494" r="0.826196" fill="url(#paint22_linear_0_1277)"/>
<path d="M63.5006 56.5287C63.1758 56.9409 62.8263 57.3336 62.4551 57.7047C60.7467 59.4131 58.5784 60.6608 56.1515 61.247L48.077 53.1724C47.6961 52.7923 50.7121 49.15 51.4221 48.366C51.4191 48.3272 51.4161 48.289 51.4161 48.2496C51.4161 47.3752 52.1256 46.6659 52.9998 46.6659C53.5067 46.6659 53.9562 46.9049 54.246 47.2752L63.5006 56.5287Z" fill="url(#paint23_linear_0_1277)"/>
<path d="M47.1869 54.5763L45.3034 56.4597C45.1615 56.6016 44.9316 56.6016 44.7898 56.4597C44.6479 56.3179 44.6479 56.088 44.7898 55.9462L46.6733 54.0627C46.8151 53.9208 47.045 53.9208 47.1869 54.0627C47.3287 54.2043 47.3287 54.4344 47.1869 54.5763Z" fill="url(#paint24_linear_0_1277)"/>
<path d="M61.5035 40.62L59.62 42.5035C59.4781 42.6453 59.2482 42.6453 59.1064 42.5035C58.9645 42.3616 58.9645 42.1317 59.1064 41.9899L60.9899 40.1064C61.1317 39.9645 61.3616 39.9645 61.5035 40.1064C61.6453 40.248 61.6453 40.4781 61.5035 40.62Z" fill="url(#paint25_linear_0_1277)"/>
<path d="M60.6965 56.4597L58.8131 54.5763C58.6712 54.4344 58.6712 54.2045 58.8131 54.0627C58.9549 53.9208 59.1848 53.9208 59.3266 54.0627L61.2101 55.9462C61.352 56.088 61.352 56.3179 61.2101 56.4597C61.0684 56.6016 60.8384 56.6016 60.6965 56.4597Z" fill="url(#paint26_linear_0_1277)"/>
<path d="M46.6732 42.4364L44.7897 40.553C44.6478 40.4111 44.6478 40.1812 44.7897 40.0394C44.9315 39.8975 45.1614 39.8975 45.3033 40.0394L47.1867 41.9228C47.3286 42.0647 47.3286 42.2946 47.1867 42.4364C47.045 42.5783 46.815 42.5783 46.6732 42.4364Z" fill="url(#paint27_linear_0_1277)"/>
<path d="M53.3633 37.0016V39.6653C53.3633 39.8659 53.2007 40.0286 53 40.0286C52.7995 40.0286 52.6367 39.866 52.6367 39.6653V37.0016C52.6367 36.8011 52.7994 36.6384 53 36.6384C53.2006 36.6385 53.3633 36.8011 53.3633 37.0016Z" fill="url(#paint28_linear_0_1277)"/>
<path d="M53.3633 56.8337V59.4974C53.3633 59.698 53.2007 59.8607 53 59.8607C52.7995 59.8607 52.6367 59.6981 52.6367 59.4974V56.8337C52.6367 56.6332 52.7994 56.4705 53 56.4705C53.2006 56.4705 53.3633 56.6332 53.3633 56.8337Z" fill="url(#paint29_linear_0_1277)"/>
<path d="M64.2478 48.6127H61.5841C61.3836 48.6127 61.2209 48.4501 61.2209 48.2494C61.2209 48.0489 61.3835 47.8862 61.5841 47.8862H64.2478C64.4484 47.8862 64.6111 48.0488 64.6111 48.2494C64.611 48.4501 64.4484 48.6127 64.2478 48.6127Z" fill="url(#paint30_linear_0_1277)"/>
<path d="M44.4158 48.6127H41.7522C41.5516 48.6127 41.3889 48.4501 41.3889 48.2494C41.3889 48.0489 41.5515 47.8862 41.7522 47.8862H44.4159C44.6164 47.8862 44.7791 48.0488 44.7791 48.2494C44.779 48.4501 44.6163 48.6127 44.4158 48.6127Z" fill="url(#paint31_linear_0_1277)"/>
<path d="M51.531 48.2494C51.9366 47.8438 52.5943 47.8438 53 48.2494C53.4056 48.6551 53.4056 49.3128 53 49.7185C52.5943 50.1241 48.4827 53.5781 48.0769 53.1725C47.6713 52.7668 51.1253 48.6551 51.531 48.2494Z" fill="white"/>
<circle cx="53" cy="48.2493" r="1.5837" fill="url(#paint32_linear_0_1277)"/>
<path d="M66.767 26.1258H39.2331C36.9995 26.1258 34.9435 24.8189 33.9954 22.7964L31.4165 17.2956C31.0388 16.4898 31.3858 15.5305 32.1915 15.1527C32.9971 14.775 33.9565 15.122 34.3344 15.9277L36.9133 21.4288C37.3332 22.3246 38.2438 22.9034 39.2331 22.9034H66.7671C67.7564 22.9034 68.667 22.3246 69.0869 21.4288L71.6658 15.9277C72.0436 15.122 73.0031 14.7751 73.8086 15.1527C74.6144 15.5305 74.9613 16.4898 74.5836 17.2956L72.0047 22.7966C71.0565 24.819 69.0007 26.1258 66.767 26.1258Z" fill="url(#paint33_linear_0_1277)"/>
<defs>
<linearGradient id="paint0_linear_0_1277" x1="-8.26766" y1="59.7007" x2="13.5547" y2="78.6268" gradientUnits="userSpaceOnUse">
<stop stop-color="#E2EDF2"/>
<stop offset="0.146" stop-color="#D9E5EA"/>
<stop offset="0.382" stop-color="#C2CDD5"/>
<stop offset="0.678" stop-color="#9BA8B3"/>
<stop offset="1" stop-color="#697786"/>
</linearGradient>
<linearGradient id="paint1_linear_0_1277" x1="8.99162" y1="80.5857" x2="12.9754" y2="80.5857" gradientUnits="userSpaceOnUse">
<stop stop-color="#E2EDF2"/>
<stop offset="0.146" stop-color="#D9E5EA"/>
<stop offset="0.382" stop-color="#C2CDD5"/>
<stop offset="0.678" stop-color="#9BA8B3"/>
<stop offset="1" stop-color="#697786"/>
</linearGradient>
<linearGradient id="paint2_linear_0_1277" x1="17.6071" y1="48.5876" x2="10.3442" y2="42.0718" gradientUnits="userSpaceOnUse">
<stop stop-color="#E2EDF2" stop-opacity="0.01"/>
<stop offset="0.197" stop-color="#C5D0D8" stop-opacity="0.197"/>
<stop offset="0.564" stop-color="#93A0AC" stop-opacity="0.564"/>
<stop offset="0.844" stop-color="#758290" stop-opacity="0.844"/>
<stop offset="1" stop-color="#697786"/>
</linearGradient>
<linearGradient id="paint3_linear_0_1277" x1="8.95699" y1="46.1253" x2="13.1734" y2="46.1253" gradientUnits="userSpaceOnUse">
<stop stop-color="#654E48"/>
<stop offset="1" stop-color="#503837"/>
</linearGradient>
<linearGradient id="paint4_linear_0_1277" x1="15.4237" y1="45.5677" x2="14.0555" y2="39.3088" gradientUnits="userSpaceOnUse">
<stop stop-color="#3E2E28" stop-opacity="0.01"/>
<stop offset="1" stop-color="#503837"/>
</linearGradient>
<linearGradient id="paint5_linear_0_1277" x1="48.1909" y1="44.7284" x2="48.1909" y2="41.5561" gradientUnits="userSpaceOnUse">
<stop stop-color="#FFE7A5"/>
<stop offset="0.216" stop-color="#FFE29C"/>
<stop offset="0.577" stop-color="#FFD482"/>
<stop offset="1" stop-color="#FFBF5C"/>
</linearGradient>
<linearGradient id="paint6_linear_0_1277" x1="21.1192" y1="34.4859" x2="21.1192" y2="44.8059" gradientUnits="userSpaceOnUse">
<stop stop-color="#FF5964"/>
<stop offset="0.242" stop-color="#FF505B"/>
<stop offset="0.643" stop-color="#FF3841"/>
<stop offset="1" stop-color="#FF1D25"/>
</linearGradient>
<linearGradient id="paint7_linear_0_1277" x1="20.0151" y1="34.6105" x2="20.0151" y2="30.9923" gradientUnits="userSpaceOnUse">
<stop stop-color="#FF5964"/>
<stop offset="0.242" stop-color="#FF505B"/>
<stop offset="0.643" stop-color="#FF3841"/>
<stop offset="1" stop-color="#FF1D25"/>
</linearGradient>
<linearGradient id="paint8_linear_0_1277" x1="20.0151" y1="27.7133" x2="20.0151" y2="24.0951" gradientUnits="userSpaceOnUse">
<stop stop-color="#FF5964"/>
<stop offset="0.242" stop-color="#FF505B"/>
<stop offset="0.643" stop-color="#FF3841"/>
<stop offset="1" stop-color="#FF1D25"/>
</linearGradient>
<linearGradient id="paint9_linear_0_1277" x1="20.0151" y1="20.8162" x2="20.0151" y2="17.198" gradientUnits="userSpaceOnUse">
<stop stop-color="#FF5964"/>
<stop offset="0.242" stop-color="#FF505B"/>
<stop offset="0.643" stop-color="#FF3841"/>
<stop offset="1" stop-color="#FF1D25"/>
</linearGradient>
<linearGradient id="paint10_linear_0_1277" x1="45.5674" y1="37.1702" x2="39.7364" y2="31.3393" gradientUnits="userSpaceOnUse">
<stop stop-color="#FF1D25" stop-opacity="0.01"/>
<stop offset="1" stop-color="#FF1D25"/>
</linearGradient>
<radialGradient id="paint11_radial_0_1277" cx="0" cy="0" r="1" gradientUnits="userSpaceOnUse" gradientTransform="translate(35.7951 32.172) scale(4.21458)">
<stop stop-color="#FFE7A5"/>
<stop offset="0.216" stop-color="#FFE29C"/>
<stop offset="0.577" stop-color="#FFD482"/>
<stop offset="1" stop-color="#FFBF5C"/>
</radialGradient>
<linearGradient id="paint12_linear_0_1277" x1="53.1817" y1="37.171" x2="47.3521" y2="31.3401" gradientUnits="userSpaceOnUse">
<stop stop-color="#FF1D25" stop-opacity="0.01"/>
<stop offset="1" stop-color="#FF1D25"/>
</linearGradient>
<radialGradient id="paint13_radial_0_1277" cx="0" cy="0" r="1" gradientUnits="userSpaceOnUse" gradientTransform="translate(43.4109 32.172) scale(4.21458)">
<stop stop-color="#FFE7A5"/>
<stop offset="0.216" stop-color="#FFE29C"/>
<stop offset="0.577" stop-color="#FFD482"/>
<stop offset="1" stop-color="#FFBF5C"/>
</radialGradient>
<linearGradient id="paint14_linear_0_1277" x1="10.931" y1="7.38471" x2="10.931" y2="12.9498" gradientUnits="userSpaceOnUse">
<stop stop-color="#FF5964"/>
<stop offset="0.242" stop-color="#FF505B"/>
<stop offset="0.643" stop-color="#FF3841"/>
<stop offset="1" stop-color="#FF1D25"/>
</linearGradient>
<linearGradient id="paint15_linear_0_1277" x1="54.4223" y1="28.5859" x2="59.1734" y2="28.5859" gradientUnits="userSpaceOnUse">
<stop stop-color="#FF5964"/>
<stop offset="0.242" stop-color="#FF505B"/>
<stop offset="0.643" stop-color="#FF3841"/>
<stop offset="1" stop-color="#FF1D25"/>
</linearGradient>
<linearGradient id="paint16_linear_0_1277" x1="63.1852" y1="27.5889" x2="62.035" y2="19.9685" gradientUnits="userSpaceOnUse">
<stop stop-color="#FF1D25" stop-opacity="0.01"/>
<stop offset="1" stop-color="#FF1D25"/>
</linearGradient>
<linearGradient id="paint17_linear_0_1277" x1="38.7265" y1="79.7427" x2="69.172" y2="43.7474" gradientUnits="userSpaceOnUse">
<stop stop-color="#59A696"/>
<stop offset="1" stop-color="#3FC29B"/>
</linearGradient>
<linearGradient id="paint18_linear_0_1277" x1="6.97505" y1="68.8106" x2="7.20298" y2="73.2917" gradientUnits="userSpaceOnUse">
<stop stop-color="#F87777"/>
<stop offset="1" stop-color="#EE4242"/>
</linearGradient>
<linearGradient id="paint19_linear_0_1277" x1="21.8524" y1="47.6782" x2="52.2027" y2="75.5505" gradientUnits="userSpaceOnUse">
<stop stop-color="#6BDEC5"/>
<stop offset="1" stop-color="#39B993"/>
</linearGradient>
<linearGradient id="paint20_linear_0_1277" x1="44.0958" y1="58.4471" x2="63.196" y2="77.5485" gradientUnits="userSpaceOnUse">
<stop stop-color="#E2EDF2"/>
<stop offset="0.146" stop-color="#D9E5EA"/>
<stop offset="0.382" stop-color="#C2CDD5"/>
<stop offset="0.678" stop-color="#9BA8B3"/>
<stop offset="1" stop-color="#697786"/>
</linearGradient>
<linearGradient id="paint21_linear_0_1277" x1="48.0612" y1="54.2098" x2="59.9821" y2="64.0874" gradientUnits="userSpaceOnUse">
<stop stop-color="#F8F6FB"/>
<stop offset="1" stop-color="#EFDCFB"/>
</linearGradient>
<linearGradient id="paint22_linear_0_1277" x1="51.7669" y1="47.8462" x2="51.7669" y2="50.3112" gradientUnits="userSpaceOnUse">
<stop stop-color="#F18D00"/>
<stop offset="1" stop-color="#ED7103"/>
</linearGradient>
<linearGradient id="paint23_linear_0_1277" x1="63.8213" y1="51.3478" x2="53.0195" y2="39.2097" gradientUnits="userSpaceOnUse">
<stop stop-color="#B7C4C9" stop-opacity="0.01"/>
<stop offset="1" stop-color="#909698"/>
</linearGradient>
<linearGradient id="paint24_linear_0_1277" x1="43.9401" y1="55.388" x2="46.114" y2="57.3818" gradientUnits="userSpaceOnUse">
<stop stop-color="#FFC198"/>
<stop offset="1" stop-color="#FFA162"/>
</linearGradient>
<linearGradient id="paint25_linear_0_1277" x1="58.2567" y1="41.4317" x2="60.4306" y2="43.4255" gradientUnits="userSpaceOnUse">
<stop stop-color="#FFC198"/>
<stop offset="1" stop-color="#FFA162"/>
</linearGradient>
<linearGradient id="paint26_linear_0_1277" x1="57.9633" y1="55.388" x2="60.1373" y2="57.3818" gradientUnits="userSpaceOnUse">
<stop stop-color="#FFC198"/>
<stop offset="1" stop-color="#FFA162"/>
</linearGradient>
<linearGradient id="paint27_linear_0_1277" x1="43.94" y1="41.3647" x2="46.1139" y2="43.3585" gradientUnits="userSpaceOnUse">
<stop stop-color="#FFC198"/>
<stop offset="1" stop-color="#FFA162"/>
</linearGradient>
<linearGradient id="paint28_linear_0_1277" x1="52.4298" y1="38.4982" x2="53.5026" y2="38.709" gradientUnits="userSpaceOnUse">
<stop stop-color="#FFC198"/>
<stop offset="1" stop-color="#FFA162"/>
</linearGradient>
<linearGradient id="paint29_linear_0_1277" x1="52.4298" y1="58.3303" x2="53.5026" y2="58.5411" gradientUnits="userSpaceOnUse">
<stop stop-color="#FFC198"/>
<stop offset="1" stop-color="#FFA162"/>
</linearGradient>
<linearGradient id="paint30_linear_0_1277" x1="60.2553" y1="48.2847" x2="60.5245" y2="49.4367" gradientUnits="userSpaceOnUse">
<stop stop-color="#FFC198"/>
<stop offset="1" stop-color="#FFA162"/>
</linearGradient>
<linearGradient id="paint31_linear_0_1277" x1="40.4233" y1="48.2847" x2="40.6925" y2="49.4367" gradientUnits="userSpaceOnUse">
<stop stop-color="#FFC198"/>
<stop offset="1" stop-color="#FFA162"/>
</linearGradient>
<linearGradient id="paint32_linear_0_1277" x1="51.6697" y1="48.5385" x2="53.288" y2="50.1568" gradientUnits="userSpaceOnUse">
<stop stop-color="#FF5964"/>
<stop offset="0.242" stop-color="#FF505B"/>
<stop offset="0.643" stop-color="#FF3841"/>
<stop offset="1" stop-color="#FF1D25"/>
</linearGradient>
<linearGradient id="paint33_linear_0_1277" x1="47.0633" y1="22.4186" x2="47.0633" y2="25.457" gradientUnits="userSpaceOnUse">
<stop stop-color="#FFE7A5"/>
<stop offset="0.216" stop-color="#FFE29C"/>
<stop offset="0.577" stop-color="#FFD482"/>
<stop offset="1" stop-color="#FFBF5C"/>
</linearGradient>
</defs>
</svg>
