<svg width="277" height="72" viewBox="0 0 277 72" fill="none" xmlns="http://www.w3.org/2000/svg">
<g clip-path="url(#clip0_0_2089)">
<path d="M82.418 12.556V15.57H76.126V18.826H80.834V21.752H76.126V28H72.364V12.556H82.418ZM88.1573 17.77C88.5973 17.0953 89.1473 16.5673 89.8073 16.186C90.4673 15.79 91.2006 15.592 92.0073 15.592V19.574H90.9733C90.0346 19.574 89.3306 19.7793 88.8613 20.19C88.3919 20.586 88.1573 21.29 88.1573 22.302V28H84.3953V15.724H88.1573V17.77ZM105.377 21.664C105.377 22.016 105.355 22.3827 105.311 22.764H96.7974C96.8561 23.5267 97.0981 24.1133 97.5234 24.524C97.9634 24.92 98.4987 25.118 99.1294 25.118C100.068 25.118 100.721 24.722 101.087 23.93H105.091C104.886 24.7367 104.512 25.4627 103.969 26.108C103.441 26.7533 102.774 27.2593 101.967 27.626C101.161 27.9927 100.259 28.176 99.2614 28.176C98.0587 28.176 96.9881 27.9193 96.0494 27.406C95.1107 26.8927 94.3774 26.1593 93.8494 25.206C93.3214 24.2527 93.0574 23.138 93.0574 21.862C93.0574 20.586 93.3141 19.4713 93.8274 18.518C94.3554 17.5647 95.0887 16.8313 96.0274 16.318C96.9661 15.8047 98.0441 15.548 99.2614 15.548C100.449 15.548 101.505 15.7973 102.429 16.296C103.353 16.7947 104.072 17.506 104.585 18.43C105.113 19.354 105.377 20.432 105.377 21.664ZM101.527 20.674C101.527 20.0287 101.307 19.5153 100.867 19.134C100.427 18.7527 99.8774 18.562 99.2174 18.562C98.5867 18.562 98.0514 18.7453 97.6114 19.112C97.1861 19.4787 96.9221 19.9993 96.8194 20.674H101.527ZM112.356 28.176C111.285 28.176 110.332 27.9927 109.496 27.626C108.66 27.2593 108 26.7607 107.516 26.13C107.032 25.4847 106.761 24.766 106.702 23.974H110.42C110.464 24.3993 110.662 24.744 111.014 25.008C111.366 25.272 111.799 25.404 112.312 25.404C112.781 25.404 113.141 25.316 113.39 25.14C113.654 24.9493 113.786 24.7073 113.786 24.414C113.786 24.062 113.603 23.8053 113.236 23.644C112.869 23.468 112.275 23.2773 111.454 23.072C110.574 22.8667 109.841 22.654 109.254 22.434C108.667 22.1993 108.161 21.84 107.736 21.356C107.311 20.8573 107.098 20.19 107.098 19.354C107.098 18.65 107.289 18.012 107.67 17.44C108.066 16.8533 108.638 16.3913 109.386 16.054C110.149 15.7167 111.051 15.548 112.092 15.548C113.632 15.548 114.842 15.9293 115.722 16.692C116.617 17.4547 117.13 18.4667 117.262 19.728H113.786C113.727 19.3027 113.537 18.9653 113.214 18.716C112.906 18.4667 112.495 18.342 111.982 18.342C111.542 18.342 111.205 18.43 110.97 18.606C110.735 18.7673 110.618 18.9947 110.618 19.288C110.618 19.64 110.801 19.904 111.168 20.08C111.549 20.256 112.136 20.432 112.928 20.608C113.837 20.8427 114.578 21.0773 115.15 21.312C115.722 21.532 116.221 21.8987 116.646 22.412C117.086 22.9107 117.313 23.5853 117.328 24.436C117.328 25.1547 117.123 25.8 116.712 26.372C116.316 26.9293 115.737 27.3693 114.974 27.692C114.226 28.0147 113.353 28.176 112.356 28.176ZM127.176 15.592C128.584 15.592 129.713 16.0613 130.564 17C131.414 17.924 131.84 19.2 131.84 20.828V28H128.1V21.334C128.1 20.5127 127.887 19.8747 127.462 19.42C127.036 18.9653 126.464 18.738 125.746 18.738C125.027 18.738 124.455 18.9653 124.03 19.42C123.604 19.8747 123.392 20.5127 123.392 21.334V28H119.63V11.72H123.392V17.374C123.773 16.8313 124.294 16.3987 124.954 16.076C125.614 15.7533 126.354 15.592 127.176 15.592ZM149.368 17.44C149.089 16.9267 148.686 16.538 148.158 16.274C147.645 15.9953 147.036 15.856 146.332 15.856C145.115 15.856 144.139 16.2593 143.406 17.066C142.673 17.858 142.306 18.9213 142.306 20.256C142.306 21.6787 142.687 22.7933 143.45 23.6C144.227 24.392 145.291 24.788 146.64 24.788C147.564 24.788 148.341 24.5533 148.972 24.084C149.617 23.6147 150.087 22.94 150.38 22.06H145.606V19.288H153.79V22.786C153.511 23.7247 153.035 24.5973 152.36 25.404C151.7 26.2107 150.857 26.8633 149.83 27.362C148.803 27.8607 147.645 28.11 146.354 28.11C144.829 28.11 143.465 27.78 142.262 27.12C141.074 26.4453 140.143 25.514 139.468 24.326C138.808 23.138 138.478 21.7813 138.478 20.256C138.478 18.7307 138.808 17.374 139.468 16.186C140.143 14.9833 141.074 14.052 142.262 13.392C143.45 12.7173 144.807 12.38 146.332 12.38C148.18 12.38 149.735 12.8273 150.996 13.722C152.272 14.6167 153.115 15.856 153.526 17.44H149.368ZM159.636 17.77C160.076 17.0953 160.626 16.5673 161.286 16.186C161.946 15.79 162.679 15.592 163.486 15.592V19.574H162.452C161.513 19.574 160.809 19.7793 160.34 20.19C159.87 20.586 159.636 21.29 159.636 22.302V28H155.874V15.724H159.636V17.77ZM170.872 28.176C169.669 28.176 168.584 27.9193 167.616 27.406C166.663 26.8927 165.907 26.1593 165.35 25.206C164.807 24.2527 164.536 23.138 164.536 21.862C164.536 20.6007 164.815 19.4933 165.372 18.54C165.929 17.572 166.692 16.8313 167.66 16.318C168.628 15.8047 169.713 15.548 170.916 15.548C172.119 15.548 173.204 15.8047 174.172 16.318C175.14 16.8313 175.903 17.572 176.46 18.54C177.017 19.4933 177.296 20.6007 177.296 21.862C177.296 23.1233 177.01 24.238 176.438 25.206C175.881 26.1593 175.111 26.8927 174.128 27.406C173.16 27.9193 172.075 28.176 170.872 28.176ZM170.872 24.92C171.591 24.92 172.199 24.656 172.698 24.128C173.211 23.6 173.468 22.8447 173.468 21.862C173.468 20.8793 173.219 20.124 172.72 19.596C172.236 19.068 171.635 18.804 170.916 18.804C170.183 18.804 169.574 19.068 169.09 19.596C168.606 20.1093 168.364 20.8647 168.364 21.862C168.364 22.8447 168.599 23.6 169.068 24.128C169.552 24.656 170.153 24.92 170.872 24.92ZM178.544 21.862C178.544 20.586 178.8 19.4713 179.314 18.518C179.842 17.5647 180.568 16.8313 181.492 16.318C182.43 15.8047 183.501 15.548 184.704 15.548C186.244 15.548 187.527 15.9513 188.554 16.758C189.595 17.5647 190.277 18.7013 190.6 20.168H186.596C186.258 19.2293 185.606 18.76 184.638 18.76C183.948 18.76 183.398 19.0313 182.988 19.574C182.577 20.102 182.372 20.8647 182.372 21.862C182.372 22.8593 182.577 23.6293 182.988 24.172C183.398 24.7 183.948 24.964 184.638 24.964C185.606 24.964 186.258 24.4947 186.596 23.556H190.6C190.277 24.9933 189.595 26.1227 188.554 26.944C187.512 27.7653 186.229 28.176 184.704 28.176C183.501 28.176 182.43 27.9193 181.492 27.406C180.568 26.8927 179.842 26.1593 179.314 25.206C178.8 24.2527 178.544 23.138 178.544 21.862ZM204.184 21.664C204.184 22.016 204.162 22.3827 204.118 22.764H195.604C195.663 23.5267 195.905 24.1133 196.33 24.524C196.77 24.92 197.305 25.118 197.936 25.118C198.875 25.118 199.527 24.722 199.894 23.93H203.898C203.693 24.7367 203.319 25.4627 202.776 26.108C202.248 26.7533 201.581 27.2593 200.774 27.626C199.967 27.9927 199.065 28.176 198.068 28.176C196.865 28.176 195.795 27.9193 194.856 27.406C193.917 26.8927 193.184 26.1593 192.656 25.206C192.128 24.2527 191.864 23.138 191.864 21.862C191.864 20.586 192.121 19.4713 192.634 18.518C193.162 17.5647 193.895 16.8313 194.834 16.318C195.773 15.8047 196.851 15.548 198.068 15.548C199.256 15.548 200.312 15.7973 201.236 16.296C202.16 16.7947 202.879 17.506 203.392 18.43C203.92 19.354 204.184 20.432 204.184 21.664ZM200.334 20.674C200.334 20.0287 200.114 19.5153 199.674 19.134C199.234 18.7527 198.684 18.562 198.024 18.562C197.393 18.562 196.858 18.7453 196.418 19.112C195.993 19.4787 195.729 19.9993 195.626 20.674H200.334ZM209.931 17.77C210.371 17.0953 210.921 16.5673 211.581 16.186C212.241 15.79 212.974 15.592 213.781 15.592V19.574H212.747C211.808 19.574 211.104 19.7793 210.635 20.19C210.165 20.586 209.931 21.29 209.931 22.302V28H206.169V15.724H209.931V17.77ZM228.119 15.724L220.419 33.83H216.371L219.187 27.582L214.193 15.724H218.395L221.233 23.402L224.049 15.724H228.119Z" fill="#FF5C45"/>
<path opacity="0.6" d="M75.172 48.098C74.528 48.098 73.9493 47.986 73.436 47.762C72.932 47.5287 72.5353 47.2113 72.246 46.81C71.9567 46.3993 71.8073 45.928 71.798 45.396H73.156C73.2027 45.8533 73.3893 46.2407 73.716 46.558C74.052 46.866 74.5373 47.02 75.172 47.02C75.7787 47.02 76.2547 46.8707 76.6 46.572C76.9547 46.264 77.132 45.872 77.132 45.396C77.132 45.0227 77.0293 44.7193 76.824 44.486C76.6187 44.2527 76.362 44.0753 76.054 43.954C75.746 43.8327 75.3307 43.702 74.808 43.562C74.164 43.394 73.646 43.226 73.254 43.058C72.8713 42.89 72.54 42.6287 72.26 42.274C71.9893 41.91 71.854 41.4247 71.854 40.818C71.854 40.286 71.9893 39.8147 72.26 39.404C72.5307 38.9933 72.9087 38.676 73.394 38.452C73.8887 38.228 74.4533 38.116 75.088 38.116C76.0027 38.116 76.7493 38.3447 77.328 38.802C77.916 39.2593 78.2473 39.866 78.322 40.622H76.922C76.8753 40.2487 76.6793 39.922 76.334 39.642C75.9887 39.3527 75.5313 39.208 74.962 39.208C74.43 39.208 73.996 39.348 73.66 39.628C73.324 39.8987 73.156 40.2813 73.156 40.776C73.156 41.1307 73.254 41.42 73.45 41.644C73.6553 41.868 73.9027 42.0407 74.192 42.162C74.4907 42.274 74.906 42.4047 75.438 42.554C76.082 42.7313 76.6 42.9087 76.992 43.086C77.384 43.254 77.72 43.52 78 43.884C78.28 44.2387 78.42 44.724 78.42 45.34C78.42 45.816 78.294 46.264 78.042 46.684C77.79 47.104 77.4167 47.4447 76.922 47.706C76.4273 47.9673 75.844 48.098 75.172 48.098ZM81.8488 41.378V45.9C81.8488 46.2733 81.9281 46.5393 82.0868 46.698C82.2455 46.8473 82.5208 46.922 82.9128 46.922H83.8508V48H82.7028C81.9935 48 81.4615 47.8367 81.1068 47.51C80.7521 47.1833 80.5748 46.6467 80.5748 45.9V41.378H79.5808V40.328H80.5748V38.396H81.8488V40.328H83.8508V41.378H81.8488ZM84.9184 44.136C84.9184 43.352 85.0771 42.666 85.3944 42.078C85.7117 41.4807 86.1457 41.0187 86.6964 40.692C87.2564 40.3653 87.8771 40.202 88.5584 40.202C89.2304 40.202 89.8137 40.3467 90.3084 40.636C90.8031 40.9253 91.1717 41.2893 91.4144 41.728V40.328H92.7024V48H91.4144V46.572C91.1624 47.02 90.7844 47.3933 90.2804 47.692C89.7857 47.9813 89.2071 48.126 88.5444 48.126C87.8631 48.126 87.2471 47.958 86.6964 47.622C86.1457 47.286 85.7117 46.8147 85.3944 46.208C85.0771 45.6013 84.9184 44.9107 84.9184 44.136ZM91.4144 44.15C91.4144 43.5713 91.2977 43.0673 91.0644 42.638C90.8311 42.2087 90.5137 41.882 90.1124 41.658C89.7204 41.4247 89.2864 41.308 88.8104 41.308C88.3344 41.308 87.9004 41.42 87.5084 41.644C87.1164 41.868 86.8037 42.1947 86.5704 42.624C86.3371 43.0533 86.2204 43.5573 86.2204 44.136C86.2204 44.724 86.3371 45.2373 86.5704 45.676C86.8037 46.1053 87.1164 46.4367 87.5084 46.67C87.9004 46.894 88.3344 47.006 88.8104 47.006C89.2864 47.006 89.7204 46.894 90.1124 46.67C90.5137 46.4367 90.8311 46.1053 91.0644 45.676C91.2977 45.2373 91.4144 44.7287 91.4144 44.15ZM101.463 40.328L96.8433 51.612H95.5273L97.0393 47.916L93.9453 40.328H95.3593L97.7673 46.544L100.147 40.328H101.463ZM113.994 38.242V48H112.72V43.576H107.75V48H106.476V38.242H107.75V42.526H112.72V38.242H113.994ZM119.516 48.126C118.797 48.126 118.144 47.9627 117.556 47.636C116.977 47.3093 116.52 46.8473 116.184 46.25C115.857 45.6433 115.694 44.9433 115.694 44.15C115.694 43.366 115.862 42.6753 116.198 42.078C116.543 41.4713 117.01 41.0093 117.598 40.692C118.186 40.3653 118.844 40.202 119.572 40.202C120.3 40.202 120.958 40.3653 121.546 40.692C122.134 41.0093 122.596 41.4667 122.932 42.064C123.277 42.6613 123.45 43.3567 123.45 44.15C123.45 44.9433 123.272 45.6433 122.918 46.25C122.572 46.8473 122.101 47.3093 121.504 47.636C120.906 47.9627 120.244 48.126 119.516 48.126ZM119.516 47.006C119.973 47.006 120.402 46.8987 120.804 46.684C121.205 46.4693 121.527 46.1473 121.77 45.718C122.022 45.2887 122.148 44.766 122.148 44.15C122.148 43.534 122.026 43.0113 121.784 42.582C121.541 42.1527 121.224 41.8353 120.832 41.63C120.44 41.4153 120.015 41.308 119.558 41.308C119.091 41.308 118.662 41.4153 118.27 41.63C117.887 41.8353 117.579 42.1527 117.346 42.582C117.112 43.0113 116.996 43.534 116.996 44.15C116.996 44.7753 117.108 45.3027 117.332 45.732C117.565 46.1613 117.873 46.4833 118.256 46.698C118.638 46.9033 119.058 47.006 119.516 47.006ZM134.351 40.188C134.948 40.188 135.48 40.314 135.947 40.566C136.414 40.8087 136.782 41.1773 137.053 41.672C137.324 42.1667 137.459 42.7687 137.459 43.478V48H136.199V43.66C136.199 42.8947 136.008 42.3113 135.625 41.91C135.252 41.4993 134.743 41.294 134.099 41.294C133.436 41.294 132.909 41.5087 132.517 41.938C132.125 42.358 131.929 42.9693 131.929 43.772V48H130.669V43.66C130.669 42.8947 130.478 42.3113 130.095 41.91C129.722 41.4993 129.213 41.294 128.569 41.294C127.906 41.294 127.379 41.5087 126.987 41.938C126.595 42.358 126.399 42.9693 126.399 43.772V48H125.125V40.328H126.399V41.434C126.651 41.0327 126.987 40.7247 127.407 40.51C127.836 40.2953 128.308 40.188 128.821 40.188C129.465 40.188 130.034 40.3327 130.529 40.622C131.024 40.9113 131.392 41.336 131.635 41.896C131.85 41.3547 132.204 40.9347 132.699 40.636C133.194 40.3373 133.744 40.188 134.351 40.188ZM146.549 43.87C146.549 44.1127 146.535 44.3693 146.507 44.64H140.375C140.421 45.396 140.678 45.9887 141.145 46.418C141.621 46.838 142.195 47.048 142.867 47.048C143.417 47.048 143.875 46.922 144.239 46.67C144.612 46.4087 144.873 46.0633 145.023 45.634H146.395C146.189 46.3713 145.779 46.9733 145.163 47.44C144.547 47.8973 143.781 48.126 142.867 48.126C142.139 48.126 141.485 47.9627 140.907 47.636C140.337 47.3093 139.889 46.8473 139.563 46.25C139.236 45.6433 139.073 44.9433 139.073 44.15C139.073 43.3567 139.231 42.6613 139.549 42.064C139.866 41.4667 140.309 41.0093 140.879 40.692C141.457 40.3653 142.12 40.202 142.867 40.202C143.595 40.202 144.239 40.3607 144.799 40.678C145.359 40.9953 145.788 41.434 146.087 41.994C146.395 42.5447 146.549 43.17 146.549 43.87ZM145.233 43.604C145.233 43.1187 145.125 42.7033 144.911 42.358C144.696 42.0033 144.402 41.7373 144.029 41.56C143.665 41.3733 143.259 41.28 142.811 41.28C142.167 41.28 141.616 41.4853 141.159 41.896C140.711 42.3067 140.454 42.876 140.389 43.604H145.233ZM149.546 46.236L147.978 50.002H147.124L148.146 46.236H149.546ZM157.832 48.098C157.188 48.098 156.609 47.986 156.096 47.762C155.592 47.5287 155.195 47.2113 154.906 46.81C154.617 46.3993 154.467 45.928 154.458 45.396H155.816C155.863 45.8533 156.049 46.2407 156.376 46.558C156.712 46.866 157.197 47.02 157.832 47.02C158.439 47.02 158.915 46.8707 159.26 46.572C159.615 46.264 159.792 45.872 159.792 45.396C159.792 45.0227 159.689 44.7193 159.484 44.486C159.279 44.2527 159.022 44.0753 158.714 43.954C158.406 43.8327 157.991 43.702 157.468 43.562C156.824 43.394 156.306 43.226 155.914 43.058C155.531 42.89 155.2 42.6287 154.92 42.274C154.649 41.91 154.514 41.4247 154.514 40.818C154.514 40.286 154.649 39.8147 154.92 39.404C155.191 38.9933 155.569 38.676 156.054 38.452C156.549 38.228 157.113 38.116 157.748 38.116C158.663 38.116 159.409 38.3447 159.988 38.802C160.576 39.2593 160.907 39.866 160.982 40.622H159.582C159.535 40.2487 159.339 39.922 158.994 39.642C158.649 39.3527 158.191 39.208 157.622 39.208C157.09 39.208 156.656 39.348 156.32 39.628C155.984 39.8987 155.816 40.2813 155.816 40.776C155.816 41.1307 155.914 41.42 156.11 41.644C156.315 41.868 156.563 42.0407 156.852 42.162C157.151 42.274 157.566 42.4047 158.098 42.554C158.742 42.7313 159.26 42.9087 159.652 43.086C160.044 43.254 160.38 43.52 160.66 43.884C160.94 44.2387 161.08 44.724 161.08 45.34C161.08 45.816 160.954 46.264 160.702 46.684C160.45 47.104 160.077 47.4447 159.582 47.706C159.087 47.9673 158.504 48.098 157.832 48.098ZM164.509 41.378V45.9C164.509 46.2733 164.588 46.5393 164.747 46.698C164.906 46.8473 165.181 46.922 165.573 46.922H166.511V48H165.363C164.654 48 164.122 47.8367 163.767 47.51C163.412 47.1833 163.235 46.6467 163.235 45.9V41.378H162.241V40.328H163.235V38.396H164.509V40.328H166.511V41.378H164.509ZM167.579 44.136C167.579 43.352 167.737 42.666 168.055 42.078C168.372 41.4807 168.806 41.0187 169.357 40.692C169.917 40.3653 170.537 40.202 171.219 40.202C171.891 40.202 172.474 40.3467 172.969 40.636C173.463 40.9253 173.832 41.2893 174.075 41.728V40.328H175.363V48H174.075V46.572C173.823 47.02 173.445 47.3933 172.941 47.692C172.446 47.9813 171.867 48.126 171.205 48.126C170.523 48.126 169.907 47.958 169.357 47.622C168.806 47.286 168.372 46.8147 168.055 46.208C167.737 45.6013 167.579 44.9107 167.579 44.136ZM174.075 44.15C174.075 43.5713 173.958 43.0673 173.725 42.638C173.491 42.2087 173.174 41.882 172.773 41.658C172.381 41.4247 171.947 41.308 171.471 41.308C170.995 41.308 170.561 41.42 170.169 41.644C169.777 41.868 169.464 42.1947 169.231 42.624C168.997 43.0533 168.881 43.5573 168.881 44.136C168.881 44.724 168.997 45.2373 169.231 45.676C169.464 46.1053 169.777 46.4367 170.169 46.67C170.561 46.894 170.995 47.006 171.471 47.006C171.947 47.006 172.381 46.894 172.773 46.67C173.174 46.4367 173.491 46.1053 173.725 45.676C173.958 45.2373 174.075 44.7287 174.075 44.15ZM184.124 40.328L179.504 51.612H178.188L179.7 47.916L176.606 40.328H178.02L180.428 46.544L182.808 40.328H184.124ZM192.231 48.098C191.587 48.098 191.008 47.986 190.495 47.762C189.991 47.5287 189.594 47.2113 189.305 46.81C189.015 46.3993 188.866 45.928 188.857 45.396H190.215C190.261 45.8533 190.448 46.2407 190.775 46.558C191.111 46.866 191.596 47.02 192.231 47.02C192.837 47.02 193.313 46.8707 193.659 46.572C194.013 46.264 194.191 45.872 194.191 45.396C194.191 45.0227 194.088 44.7193 193.883 44.486C193.677 44.2527 193.421 44.0753 193.113 43.954C192.805 43.8327 192.389 43.702 191.867 43.562C191.223 43.394 190.705 43.226 190.313 43.058C189.93 42.89 189.599 42.6287 189.319 42.274C189.048 41.91 188.913 41.4247 188.913 40.818C188.913 40.286 189.048 39.8147 189.319 39.404C189.589 38.9933 189.967 38.676 190.453 38.452C190.947 38.228 191.512 38.116 192.147 38.116C193.061 38.116 193.808 38.3447 194.387 38.802C194.975 39.2593 195.306 39.866 195.381 40.622H193.981C193.934 40.2487 193.738 39.922 193.393 39.642C193.047 39.3527 192.59 39.208 192.021 39.208C191.489 39.208 191.055 39.348 190.719 39.628C190.383 39.8987 190.215 40.2813 190.215 40.776C190.215 41.1307 190.313 41.42 190.509 41.644C190.714 41.868 190.961 42.0407 191.251 42.162C191.549 42.274 191.965 42.4047 192.497 42.554C193.141 42.7313 193.659 42.9087 194.051 43.086C194.443 43.254 194.779 43.52 195.059 43.884C195.339 44.2387 195.479 44.724 195.479 45.34C195.479 45.816 195.353 46.264 195.101 46.684C194.849 47.104 194.475 47.4447 193.981 47.706C193.486 47.9673 192.903 48.098 192.231 48.098ZM196.877 44.136C196.877 43.352 197.036 42.666 197.353 42.078C197.671 41.4807 198.105 41.0187 198.655 40.692C199.215 40.3653 199.836 40.202 200.517 40.202C201.189 40.202 201.773 40.3467 202.267 40.636C202.762 40.9253 203.131 41.2893 203.373 41.728V40.328H204.661V48H203.373V46.572C203.121 47.02 202.743 47.3933 202.239 47.692C201.745 47.9813 201.166 48.126 200.503 48.126C199.822 48.126 199.206 47.958 198.655 47.622C198.105 47.286 197.671 46.8147 197.353 46.208C197.036 45.6013 196.877 44.9107 196.877 44.136ZM203.373 44.15C203.373 43.5713 203.257 43.0673 203.023 42.638C202.79 42.2087 202.473 41.882 202.071 41.658C201.679 41.4247 201.245 41.308 200.769 41.308C200.293 41.308 199.859 41.42 199.467 41.644C199.075 41.868 198.763 42.1947 198.529 42.624C198.296 43.0533 198.179 43.5573 198.179 44.136C198.179 44.724 198.296 45.2373 198.529 45.676C198.763 46.1053 199.075 46.4367 199.467 46.67C199.859 46.894 200.293 47.006 200.769 47.006C201.245 47.006 201.679 46.894 202.071 46.67C202.473 46.4367 202.79 46.1053 203.023 45.676C203.257 45.2373 203.373 44.7287 203.373 44.15ZM209.936 41.378H208.326V48H207.052V41.378H206.058V40.328H207.052V39.782C207.052 38.9233 207.272 38.298 207.71 37.906C208.158 37.5047 208.872 37.304 209.852 37.304V38.368C209.292 38.368 208.896 38.48 208.662 38.704C208.438 38.9187 208.326 39.278 208.326 39.782V40.328H209.936V41.378ZM218.422 43.87C218.422 44.1127 218.408 44.3693 218.38 44.64H212.248C212.294 45.396 212.551 45.9887 213.018 46.418C213.494 46.838 214.068 47.048 214.74 47.048C215.29 47.048 215.748 46.922 216.112 46.67C216.485 46.4087 216.746 46.0633 216.896 45.634H218.268C218.062 46.3713 217.652 46.9733 217.036 47.44C216.42 47.8973 215.654 48.126 214.74 48.126C214.012 48.126 213.358 47.9627 212.78 47.636C212.21 47.3093 211.762 46.8473 211.436 46.25C211.109 45.6433 210.946 44.9433 210.946 44.15C210.946 43.3567 211.104 42.6613 211.422 42.064C211.739 41.4667 212.182 41.0093 212.752 40.692C213.33 40.3653 213.993 40.202 214.74 40.202C215.468 40.202 216.112 40.3607 216.672 40.678C217.232 40.9953 217.661 41.434 217.96 41.994C218.268 42.5447 218.422 43.17 218.422 43.87ZM217.106 43.604C217.106 43.1187 216.998 42.7033 216.784 42.358C216.569 42.0033 216.275 41.7373 215.902 41.56C215.538 41.3733 215.132 41.28 214.684 41.28C214.04 41.28 213.489 41.4853 213.032 41.896C212.584 42.3067 212.327 42.876 212.262 43.604H217.106Z" fill="#020313"/>
</g>
<g filter="url(#filter0_d_0_2089)">
<rect x="10" y="5" width="53" height="52" rx="12" fill="white"/>
</g>
<mask id="mask0_0_2089" style="mask-type:luminance" maskUnits="userSpaceOnUse" x="10" y="5" width="53" height="52">
<rect x="10" y="5" width="53" height="52" rx="12" fill="white"/>
</mask>
<g mask="url(#mask0_0_2089)">
<path d="M8.25159 26.0001C6.98838 26.0001 5.96429 26.9885 5.96429 28.2078V45H13.2484L16.9643 35.5L13.2484 26H8.25159V26.0001Z" fill="url(#paint0_linear_0_2089)"/>
<path d="M51.167 13.1425C47.4562 10.8748 42.6358 12.0877 40.4001 15.8516L27.9643 36.7881L41.4022 45L53.838 24.0635C56.0735 20.2997 54.8778 15.4102 51.167 13.1425Z" fill="url(#paint1_linear_0_2089)"/>
<path d="M51.0194 12.8827C50.4496 12.5365 49.8534 12.2732 49.2444 12.0889C52.4361 14.4518 53.3718 18.9218 51.2886 22.4088L39.1185 42.7804L41.379 44.1539L53.6564 23.6027C55.8636 19.9081 54.6829 15.1087 51.0194 12.8827Z" fill="url(#paint2_linear_0_2089)"/>
<path d="M47.7068 22.8042L43.8704 20.4732C42.9283 19.9008 41.7046 20.2069 41.1369 21.157C40.5693 22.107 40.8729 23.3411 41.815 23.9136L45.6515 26.2446C46.5935 26.817 47.8173 26.5109 48.385 25.5608C48.9525 24.6108 48.649 23.3766 47.7068 22.8042Z" fill="url(#paint3_linear_0_2089)"/>
<path d="M42.8397 30.9514L39.0032 28.6204C38.0612 28.048 36.8374 28.3542 36.2697 29.3042C35.7022 30.2542 36.0057 31.4883 36.9479 32.0608L40.7843 34.3919C41.7264 34.9642 42.9501 34.6581 43.5178 33.7081C44.0853 32.758 43.7818 31.5238 42.8397 30.9514Z" fill="url(#paint4_linear_0_2089)"/>
<path d="M29.7565 26H12.9643V45H31.9643V28.2077C31.9642 26.9883 30.9757 26 29.7565 26V26Z" fill="url(#paint5_linear_0_2089)"/>
<path d="M25.6391 30H18.2894C17.5576 30 16.9643 30.5938 16.9643 31.3262V32.6738C16.9643 33.4062 17.5576 34 18.2894 34H25.6391C26.371 34 26.9643 33.4062 26.9643 32.6738V31.3262C26.9642 30.5938 26.371 30 25.6391 30Z" fill="url(#paint6_linear_0_2089)"/>
<path d="M6.92515 44.4498L1.96429 38V66.7503C1.96429 69.0973 3.87879 71 6.2406 71H17.9281L21.9643 54.5L17.9281 38L6.92515 44.4498Z" fill="url(#paint7_linear_0_2089)"/>
<path d="M2.00565 38L-2.86916 48.4917C-3.41245 49.661 -2.56028 51 -1.27285 51H9.61147C11.0221 51 12.3046 50.1808 12.9 48.8996L17.9643 38H2.00565Z" fill="url(#paint8_linear_0_2089)"/>
<path d="M17.9643 38V71H44.692C47.0515 71 48.9643 69.0974 48.9643 66.7503V38L34.6056 41.9292L17.9643 38Z" fill="url(#paint9_linear_0_2089)"/>
<path d="M53.798 48.4917L48.9314 38H17.9643L23.0201 48.8996C23.6144 50.1808 24.8949 51 26.3031 51H52.2044C53.4897 51 54.3404 49.661 53.798 48.4917Z" fill="url(#paint10_linear_0_2089)"/>
</g>
<defs>
<filter id="filter0_d_0_2089" x="0" y="0" width="73" height="72" filterUnits="userSpaceOnUse" color-interpolation-filters="sRGB">
<feFlood flood-opacity="0" result="BackgroundImageFix"/>
<feColorMatrix in="SourceAlpha" type="matrix" values="0 0 0 0 0 0 0 0 0 0 0 0 0 0 0 0 0 0 127 0" result="hardAlpha"/>
<feMorphology radius="1" operator="dilate" in="SourceAlpha" result="effect1_dropShadow_0_2089"/>
<feOffset dy="5"/>
<feGaussianBlur stdDeviation="4.5"/>
<feColorMatrix type="matrix" values="0 0 0 0 0 0 0 0 0 0 0 0 0 0 0 0 0 0 0.0592767 0"/>
<feBlend mode="normal" in2="BackgroundImageFix" result="effect1_dropShadow_0_2089"/>
<feBlend mode="normal" in="SourceGraphic" in2="effect1_dropShadow_0_2089" result="shape"/>
</filter>
<linearGradient id="paint0_linear_0_2089" x1="2.47646" y1="35.8608" x2="15.7444" y2="43.4225" gradientUnits="userSpaceOnUse">
<stop stop-color="#FFE1A1"/>
<stop offset="0.993059" stop-color="#FEDC93"/>
</linearGradient>
<linearGradient id="paint1_linear_0_2089" x1="39.5751" y1="-8.61419" x2="3.67015" y2="14.0402" gradientUnits="userSpaceOnUse">
<stop stop-color="#FFA981"/>
<stop offset="0.428" stop-color="#FF8666"/>
<stop offset="1" stop-color="#FF5C45"/>
</linearGradient>
<linearGradient id="paint2_linear_0_2089" x1="43.4811" y1="-5.64386" x2="19.5368" y2="4.73238" gradientUnits="userSpaceOnUse">
<stop stop-color="#FF5C45"/>
<stop offset="0.572" stop-color="#FF8666"/>
<stop offset="1" stop-color="#FFA981"/>
</linearGradient>
<linearGradient id="paint3_linear_0_2089" x1="38.3714" y1="23.4794" x2="43.4295" y2="29.6131" gradientUnits="userSpaceOnUse">
<stop stop-color="#FFD77A"/>
<stop offset="1" stop-color="#FFDA5E"/>
</linearGradient>
<linearGradient id="paint4_linear_0_2089" x1="33.5043" y1="31.6267" x2="38.5623" y2="37.7603" gradientUnits="userSpaceOnUse">
<stop stop-color="#FFD77A"/>
<stop offset="1" stop-color="#FFDA5E"/>
</linearGradient>
<linearGradient id="paint5_linear_0_2089" x1="23.309" y1="16.5" x2="4.30902" y2="33.8105" gradientUnits="userSpaceOnUse">
<stop stop-color="#6BDEC5"/>
<stop offset="1" stop-color="#39B993"/>
</linearGradient>
<linearGradient id="paint6_linear_0_2089" x1="16.7058" y1="32.6653" x2="19.2921" y2="37.4379" gradientUnits="userSpaceOnUse">
<stop stop-color="#F8F6FB"/>
<stop offset="1" stop-color="#EFDCFB"/>
</linearGradient>
<linearGradient id="paint7_linear_0_2089" x1="11.3357" y1="84.5493" x2="38.9034" y2="64.9277" gradientUnits="userSpaceOnUse">
<stop stop-color="#FFA162"/>
<stop offset="0.29142" stop-color="#FFA365"/>
<stop offset="1" stop-color="#FFC198"/>
</linearGradient>
<linearGradient id="paint8_linear_0_2089" x1="4.88778" y1="28.7165" x2="-4.82292" y2="49.5553" gradientUnits="userSpaceOnUse">
<stop stop-color="#F99E61"/>
<stop offset="1" stop-color="#D78650"/>
</linearGradient>
<linearGradient id="paint9_linear_0_2089" x1="9.13505" y1="56.1033" x2="36.4226" y2="79.6133" gradientUnits="userSpaceOnUse">
<stop stop-color="#FFC198"/>
<stop offset="1" stop-color="#FFA162"/>
</linearGradient>
<linearGradient id="paint10_linear_0_2089" x1="8.23217" y1="44.9264" x2="15.3616" y2="63.0338" gradientUnits="userSpaceOnUse">
<stop stop-color="#F99E61"/>
<stop offset="1" stop-color="#D78650"/>
</linearGradient>
<clipPath id="clip0_0_2089">
<rect width="158" height="43" fill="white" transform="translate(71 10)"/>
</clipPath>
</defs>
</svg>
