<svg width="571" height="378" viewBox="0 0 571 378" fill="none" xmlns="http://www.w3.org/2000/svg">
<rect opacity="0.5" x="26" y="58" width="520" height="300" fill="url(#paint0_linear_0_723)"/>
<mask id="mask0_0_723" style="mask-type:luminance" maskUnits="userSpaceOnUse" x="26" y="58" width="520" height="300">
<rect x="26" y="58" width="520" height="300" fill="white"/>
</mask>
<g mask="url(#mask0_0_723)">
<path opacity="0.31064" fill-rule="evenodd" clip-rule="evenodd" d="M560.75 35C560.75 35 353.75 307 -8.75 342.5C-371.25 378 -8.75 386 -8.75 386L582.25 398.5L571.75 75L560.75 35Z" fill="url(#paint1_linear_0_723)"/>
</g>
<path fill-rule="evenodd" clip-rule="evenodd" d="M194.734 260.777C178.144 276.709 214.198 263.462 204.62 270.719C204.62 270.719 210.991 276.556 223.313 286.368C240.038 299.455 259.616 303.276 279.828 275.331C298.756 251.995 312.34 221.264 329.566 194.881C336.736 184.087 338.987 170.402 332.486 158.97C325.985 147.538 313.151 141.259 300.144 143.146C287.14 145.033 279.747 154.853 273.625 167.509L242.494 231.126C231.96 252.658 221.089 266.291 194.734 260.777Z" fill="url(#paint2_linear_0_723)"/>
<path opacity="0.376651" fill-rule="evenodd" clip-rule="evenodd" d="M246.862 298.581C247.985 297.188 249.1 295.718 250.202 294.167C251.878 291.697 253.534 289.237 255.17 286.791C254.576 283.755 255.247 280.486 257.29 277.849L257.702 277.317C258.341 276.496 259.069 275.788 259.864 275.199C260.144 274.414 260.504 273.679 260.935 272.999C261.035 272.778 261.141 272.563 261.254 272.35C261.653 271.374 262.185 270.471 262.827 269.661L263.353 268.982C263.646 268.462 263.974 267.993 264.32 267.534C264.385 267.418 264.449 267.306 264.517 267.195C264.735 266.695 264.999 266.229 265.258 265.749C265.536 265.232 265.852 264.746 266.196 264.292L266.35 264.021C266.619 263.256 266.952 262.543 267.378 261.851L267.803 261.132C268.175 260.506 268.596 259.97 269.039 259.398C270.059 258.081 271.318 257.057 272.705 256.341C272.824 256.177 272.943 256.016 273.067 255.859C273.414 255.392 273.688 254.9 274.053 254.431L276.352 251.464C276.826 250.707 277.33 250.04 277.862 249.356C278.186 248.704 278.503 248.113 278.929 247.516C279.236 246.905 279.593 246.334 279.992 245.807L280.113 245.609C280.496 244.709 280.985 243.885 281.558 243.146C281.926 242.453 282.333 241.842 282.766 241.175C282.935 240.916 283.113 240.665 283.3 240.423L283.54 240.114C284.386 239.022 285.396 238.132 286.509 237.451C289.408 232.609 292.222 227.821 294.949 223.087L273.466 221.596C254.637 235.836 243.375 249.844 243.339 264.217C242.839 278.345 237.829 289.849 230.886 297.473L246.862 298.581Z" fill="url(#paint3_linear_0_723)"/>
<path fill-rule="evenodd" clip-rule="evenodd" d="M305.437 144.458C297.266 148.378 292.083 154.324 289.887 162.296C280.441 199.026 269.437 257.702 256.873 338.323C255.705 345.024 255.316 357.245 261.092 357.678C283.232 359.339 305.373 357.124 328.066 357.678C353.599 358.301 380.5 357.5 403 358C409.212 358.138 404.407 355.147 404.529 349.539C405.881 231.407 406.544 173.441 406.544 173.441C409.859 159.982 404.275 150.896 389.795 146.188C346.662 153.325 318.542 152.748 305.437 144.458Z" fill="url(#paint4_linear_0_723)"/>
<mask id="mask1_0_723" style="mask-type:luminance" maskUnits="userSpaceOnUse" x="256" y="144" width="152" height="215">
<path fill-rule="evenodd" clip-rule="evenodd" d="M305.437 144.458C297.266 148.378 292.083 154.324 289.887 162.296C280.441 199.026 269.437 257.702 256.873 338.323C255.705 345.024 255.316 357.245 261.092 357.678C283.232 359.339 305.373 357.124 328.066 357.678C353.599 358.301 380.5 357.5 403 358C409.212 358.138 404.407 355.147 404.529 349.539C405.881 231.407 406.544 173.441 406.544 173.441C409.859 159.982 404.275 150.896 389.795 146.188C346.662 153.325 318.542 152.748 305.437 144.458Z" fill="white"/>
</mask>
<g mask="url(#mask1_0_723)">
<path opacity="0.400507" fill-rule="evenodd" clip-rule="evenodd" d="M413.976 275.6C398.173 212.462 390.273 180.892 390.273 180.892C379.604 175.869 366.982 177.611 358.069 185.333C349.157 193.058 342.392 206.07 345.835 217.355C353.612 242.219 351.89 280.684 322.695 289.648C370.024 306.643 408.327 301.663 413.976 275.6ZM333.083 292.968C368.8 311.483 394.016 321.089 408.73 321.789C408.73 321.789 408.594 331.282 408.321 350.269C407.557 359.661 391.138 367.872 362.463 377.23C384.139 356.903 348.682 327.386 320.871 315.849C329.561 298.486 333.633 290.86 333.083 292.968Z" fill="url(#paint5_linear_0_723)"/>
</g>
<path fill-rule="evenodd" clip-rule="evenodd" d="M378.628 143.809C381.847 143.685 385.424 144 389.795 146.188C359.789 188.167 304.183 185.683 305.436 144.457C308.083 142.768 309.276 142.445 311.363 142.429C313.813 144.965 318.74 146.974 322.429 147.546C323.303 147.752 324.204 147.892 325.129 147.956L345.782 149.389C347.028 149.476 348.158 149.421 349.292 149.251C349.983 149.186 350.645 149.07 351.327 148.948C353.943 148.484 356.306 147.431 358.304 145.95C358.476 146 358.645 146.048 358.819 146.092C360.509 146.76 362.264 147.13 364.018 147.22L367.324 147.449C371.453 147.736 375.551 146.106 378.628 143.809Z" fill="white"/>
<path fill-rule="evenodd" clip-rule="evenodd" d="M324.375 130.053C351.796 132.058 365.505 133.061 365.505 133.061C363.869 140.065 368.243 143.648 378.629 143.809C354.704 177.282 310.363 175.301 311.364 142.429C318.501 142.239 322.837 138.114 324.375 130.053Z" fill="url(#paint6_linear_0_723)"/>
<mask id="mask2_0_723" style="mask-type:luminance" maskUnits="userSpaceOnUse" x="311" y="130" width="68" height="39">
<path fill-rule="evenodd" clip-rule="evenodd" d="M324.375 130.053C351.796 132.058 365.505 133.061 365.505 133.061C363.869 140.065 368.243 143.648 378.629 143.809C354.704 177.282 310.363 175.301 311.364 142.429C318.501 142.239 322.837 138.114 324.375 130.053Z" fill="white"/>
</mask>
<g mask="url(#mask2_0_723)">
<path opacity="0.290574" fill-rule="evenodd" clip-rule="evenodd" d="M368.064 134.838C355.678 134.38 343.333 133.154 331.094 131.17C339.529 144.052 355.789 149.037 369.839 143.048C368.217 140.648 367.579 137.704 368.064 134.838Z" fill="url(#paint7_linear_0_723)"/>
</g>
<path fill-rule="evenodd" clip-rule="evenodd" d="M333.911 46.0613C390.482 36.2186 410.122 51.6822 392.83 92.4553C386.547 138.922 346.139 144.068 323.486 129.871C306.719 119.364 300.956 97.8299 319.294 76.8549C321.731 73.8665 322.077 72.1694 322.648 67.3197C324.233 55.4708 327.986 48.3847 333.911 46.0613Z" fill="url(#paint8_linear_0_723)"/>
<path fill-rule="evenodd" clip-rule="evenodd" d="M405.814 36.8478C407.659 37.7875 409.346 38.8238 410.874 39.941C410.95 39.9963 411.025 40.0519 411.1 40.1077C411.181 40.1683 411.262 40.2292 411.343 40.2903L411.343 40.2905C414.39 42.6048 416.761 45.2559 418.423 48.1288C418.423 48.1292 418.423 48.1296 418.422 48.13C424.543 58.7077 421.033 72.3058 406.06 83.2462C385.663 98.2542 374.983 94.7876 383.21 89.0024C387.335 86.1798 390.109 81.6244 390.899 76.5812C390.898 76.5812 390.898 76.5813 390.898 76.5813C391.055 75.5782 391.133 74.5574 391.128 73.5253C391.096 67.3054 388.029 61.6506 383.049 58.622C380.473 59.6154 378.284 59.3707 376.485 57.8894L376.485 57.888C375.808 57.3294 375.185 56.595 374.617 55.6846C365.584 57.6506 360.296 56.2933 358.752 51.6159C346.783 56.3867 336.328 54.9697 326.373 49.7787C294.612 33.5728 305.635 -6.23903 336.542 9.42585C340.458 -3.72402 357.841 -3.28606 377.793 16.0998C386.078 5.03183 401.962 12.1953 405.814 36.8478Z" fill="url(#paint9_linear_0_723)"/>
<path fill-rule="evenodd" clip-rule="evenodd" d="M363.421 74.3996C365.224 74.7392 366.408 76.4778 366.067 78.2801C365.727 80.0824 363.992 81.2672 362.188 80.9275C360.389 80.5879 359.201 78.8493 359.542 77.047C359.883 75.2428 361.619 74.0599 363.421 74.3996Z" fill="#00545B"/>
<path fill-rule="evenodd" clip-rule="evenodd" d="M334.654 64.2773C336.456 64.6169 337.64 66.3555 337.301 68.1579C336.959 69.9602 335.223 71.145 333.422 70.8053C331.622 70.4638 330.434 68.7271 330.775 66.9248C331.116 65.1225 332.851 63.9377 334.654 64.2773Z" fill="#00545B"/>
<path fill-rule="evenodd" clip-rule="evenodd" d="M376.702 72.622C378.004 74.5509 380.015 74.4704 380.264 72.6558C380.776 66.5068 376.607 61.8986 367.756 58.8361C365.588 58.1196 363.351 58.8249 362.369 60.6379C361.386 62.4493 361.876 65.0045 363.96 65.8321C371.601 69.0701 375.85 71.3339 376.702 72.622Z" fill="url(#paint10_linear_0_723)"/>
<path fill-rule="evenodd" clip-rule="evenodd" d="M330.26 54.3611C328.215 54.9907 326.824 53.7702 327.691 52.3259C330.874 47.6276 336.516 46.7404 344.619 49.6644C346.585 50.4034 347.78 52.2019 347.438 54.0681C347.097 55.9342 345.269 57.4783 343.3 56.8665C335.961 54.7685 331.614 53.9328 330.26 54.3611Z" fill="url(#paint11_linear_0_723)"/>
<path fill-rule="evenodd" clip-rule="evenodd" d="M345.367 73.6779C349.638 70.0503 352.321 72.1885 350.351 77.7048C350.351 77.7048 349.242 80.9057 347.027 87.3076C348.205 87.4187 349.29 88.2189 349.821 89.3669C350.349 90.5133 350.223 91.8014 349.498 92.6741C348.774 93.5468 347.58 93.8479 346.432 93.4486C345.23 92.629 343.761 92.5389 342.64 93.2151C340.557 94.1925 337.988 93.8173 335.975 92.2394C333.963 90.6615 332.843 88.1449 333.066 85.7103C333.293 83.2758 334.826 81.3292 337.046 80.6594C342.593 76.0045 345.367 73.6779 345.367 73.6779Z" fill="url(#paint12_linear_0_723)"/>
<path fill-rule="evenodd" clip-rule="evenodd" d="M352.898 102.227C354.489 101.486 355.628 102.844 354.124 104.446C341.597 119.297 324.918 115.607 325.996 97.7846C326.116 95.0957 327.395 94.4404 328.011 96.2582C329.343 100.3 332.762 103.227 337.467 104.354C342.173 105.483 347.752 104.713 352.898 102.227Z" fill="white"/>
<path fill-rule="evenodd" clip-rule="evenodd" d="M388.421 90.5935C373.643 105.453 380.855 116.777 399.677 108.363C417.556 100.193 403.07 76.2425 388.421 90.5935Z" fill="url(#paint13_linear_0_723)"/>
<path fill-rule="evenodd" clip-rule="evenodd" d="M392.279 96.0678C384.1 104.294 388.09 110.562 398.51 105.904C408.406 101.383 400.389 88.1234 392.279 96.0678Z" fill="#F89B71"/>
<path fill-rule="evenodd" clip-rule="evenodd" d="M281.453 268.407C293.877 282.92 300.087 290.176 300.087 290.176C300.087 290.176 322.408 289.334 367.048 287.653C373.03 288.582 378.98 300.75 384.902 324.16C384.902 324.16 356.817 320.946 300.647 314.518C289.991 313.716 282.635 309.942 278.586 303.197C267.716 291.32 262.282 285.381 262.282 285.381C260.245 285.045 258.167 285.666 256.648 287.066C255.129 288.465 254.34 290.485 254.505 292.545C254.631 293.987 253.167 294.974 251.848 295.408C250.525 295.839 248.796 295.908 248.014 294.667C240.165 279.843 238.235 270.105 242.892 267.071C252.523 261.331 259.277 258.842 263.155 259.602C271.965 261.436 278.063 264.371 281.453 268.407Z" fill="url(#paint14_linear_0_723)"/>
<mask id="mask3_0_723" style="mask-type:luminance" maskUnits="userSpaceOnUse" x="240" y="259" width="145" height="66">
<path fill-rule="evenodd" clip-rule="evenodd" d="M281.453 268.407C293.877 282.92 300.087 290.176 300.087 290.176C300.087 290.176 322.408 289.334 367.048 287.653C373.03 288.582 378.98 300.75 384.902 324.16C384.902 324.16 356.817 320.946 300.647 314.518C289.991 313.716 282.635 309.942 278.586 303.197C267.716 291.32 262.282 285.381 262.282 285.381C260.245 285.045 258.167 285.666 256.648 287.066C255.129 288.465 254.34 290.485 254.505 292.545C254.631 293.987 253.167 294.974 251.848 295.408C250.525 295.839 248.796 295.908 248.014 294.667C240.165 279.843 238.235 270.105 242.892 267.071C252.523 261.331 259.277 258.842 263.155 259.602C271.965 261.436 278.063 264.371 281.453 268.407Z" fill="white"/>
</mask>
<g mask="url(#mask3_0_723)">
<path fill-rule="evenodd" clip-rule="evenodd" d="M265.321 286.543C262.18 281.855 258.102 283.144 260.944 286.475L277.361 304.085C283.14 311.273 292.169 315.4 304.451 316.466C364.722 323.269 394.857 326.672 394.857 326.672C395.793 318.065 393.235 306.734 385.148 303.725C369.558 301.751 356.511 308.532 341.312 311.484C326.551 314.216 308.827 314.389 302.114 307.659C296.409 301.973 290.454 298.635 284.25 297.646C275.136 295.403 268.828 291.703 265.321 286.543Z" fill="url(#paint15_linear_0_723)"/>
</g>
<path fill-rule="evenodd" clip-rule="evenodd" d="M367.308 285.388C364.016 308.165 383.459 313.5 380.366 325.118C380.366 325.118 388.977 325.798 404.722 325.947C425.952 325.973 435.49 313.448 435.349 280.594C435.936 250.542 434.914 219.813 432.286 188.406C431.304 175.482 424.671 163.306 412.519 158.294C400.37 153.281 386.392 156.229 377.296 165.723C368.2 175.217 368.406 187.511 371.355 201.26L385.903 270.583C388.515 283.033 381.9 284.108 367.308 285.388Z" fill="url(#paint16_linear_0_723)"/>
<mask id="mask4_0_723" style="mask-type:luminance" maskUnits="userSpaceOnUse" x="366" y="155" width="70" height="171">
<path fill-rule="evenodd" clip-rule="evenodd" d="M367.308 285.388C364.016 308.165 383.459 313.5 380.366 325.118C380.366 325.118 388.977 325.798 404.722 325.947C425.952 325.973 435.49 313.448 435.349 280.594C435.936 250.542 434.914 219.813 432.286 188.406C431.304 175.482 424.671 163.306 412.519 158.294C400.37 153.281 386.392 156.229 377.296 165.723C368.2 175.217 368.406 187.511 371.355 201.26L385.903 270.583C388.515 283.033 381.9 284.108 367.308 285.388Z" fill="white"/>
</mask>
<g mask="url(#mask4_0_723)">
<path opacity="0.32373" fill-rule="evenodd" clip-rule="evenodd" d="M410.727 337.961C405.916 341.392 406.202 343.2 410.666 343.282C430.734 343.157 440.705 325.466 441.507 297.427C441.528 293.797 441.538 290.194 441.534 286.615C438.889 283.952 437.357 280.198 437.638 276.151L437.693 275.335C437.781 274.075 438.04 272.868 438.442 271.733C438.194 270.75 438.064 269.764 438.036 268.785C437.989 268.496 437.95 268.204 437.919 267.917C437.664 266.66 437.591 265.388 437.691 264.134L437.761 263.093C437.705 262.369 437.72 261.676 437.757 260.975C437.746 260.819 437.736 260.66 437.728 260.502C437.611 259.848 437.562 259.196 437.5 258.541C437.431 257.829 437.422 257.124 437.461 256.433L437.433 256.056C437.189 255.101 437.043 254.155 437.004 253.167L436.948 252.155C436.899 251.271 436.961 250.443 437.024 249.568C437.162 247.547 437.742 245.66 438.653 243.997C438.661 243.75 438.672 243.508 438.694 243.265C438.729 242.559 438.67 241.876 438.723 241.155L439.037 236.604C439.004 235.518 439.06 234.504 439.135 233.453C439.021 232.574 438.943 231.764 438.967 230.872C438.865 230.048 438.84 229.23 438.887 228.428L438.875 228.144C438.653 226.977 438.588 225.813 438.668 224.678C438.571 223.731 438.569 222.839 438.557 221.872C438.551 221.494 438.563 221.12 438.586 220.75L438.62 220.277C438.735 218.6 439.152 217.019 439.812 215.576C439.322 205.831 438.727 196.316 438.026 187.03C436.522 172.031 431.138 160.541 421.537 154.886C416.808 152.843 415.717 154.052 418.261 158.514C424.69 169.919 427.599 180.778 422.653 191.023C407.884 226.287 402.739 254.318 414.387 271.84C431.091 298.86 426.192 327.272 410.727 337.961Z" fill="url(#paint17_linear_0_723)"/>
</g>
<path fill-rule="evenodd" clip-rule="evenodd" d="M167.155 284.425C173.011 283.792 181.621 287.713 186.291 293.135L195.56 303.904C200.232 309.327 199.262 314.281 193.406 314.914C187.552 315.545 178.942 311.626 174.274 306.202L165.001 295.435C160.333 290.012 161.301 285.057 167.155 284.425Z" fill="url(#paint18_linear_0_723)"/>
<path fill-rule="evenodd" clip-rule="evenodd" d="M142.739 259.58C140.149 259.83 139.084 263.034 141.009 264.785L196.886 315.598H246.915C248.02 315.598 248.915 314.703 248.915 313.598V303.705C248.915 303.167 248.698 302.651 248.314 302.275L201.759 256.741C200.073 255.091 197.745 254.27 195.397 254.497L142.739 259.58Z" fill="url(#paint19_linear_0_723)"/>
<path fill-rule="evenodd" clip-rule="evenodd" d="M151.712 266.251C149.102 266.488 148.03 269.722 149.98 271.471L197.976 314.533C198.343 314.862 198.819 315.044 199.312 315.044H243.907C245.714 315.044 246.594 312.839 245.285 311.595L194.878 263.693C194.043 262.9 192.907 262.505 191.76 262.609L151.712 266.251Z" fill="url(#paint20_linear_0_723)"/>
<path fill-rule="evenodd" clip-rule="evenodd" d="M168.869 289.966C175.843 289.412 187.004 294.27 193.676 300.762L201.134 308.022C207.803 314.514 207.557 320.279 200.583 320.835C193.61 321.389 182.447 316.53 175.777 310.038L168.319 302.779C161.649 296.285 161.895 290.52 168.869 289.966Z" fill="url(#paint21_linear_0_723)"/>
<path fill-rule="evenodd" clip-rule="evenodd" d="M83 136H199V33H83V136Z" fill="url(#paint22_linear_0_723)"/>
<mask id="mask5_0_723" style="mask-type:luminance" maskUnits="userSpaceOnUse" x="53" y="30" width="146" height="100">
<path fill-rule="evenodd" clip-rule="evenodd" d="M53 30.6187H199V129.585H53V30.6187Z" fill="white"/>
</mask>
<g mask="url(#mask5_0_723)">
<path fill-rule="evenodd" clip-rule="evenodd" d="M199 30.163L189.098 30.88L82.3843 30.6187C82.3843 30.6187 77.5095 98.744 56.7922 129.485L179.091 130.922L199 30.163Z" fill="url(#paint23_linear_0_723)"/>
</g>
<path fill-rule="evenodd" clip-rule="evenodd" d="M96.6463 48.9408L93.2076 69.6101L113.828 70.3615L116.73 49.9748L96.6463 48.9408Z" fill="url(#paint24_linear_0_723)"/>
<path fill-rule="evenodd" clip-rule="evenodd" d="M92.6509 74.3893L87.5314 95.0586L108.501 95.7004L112.502 74.8722L92.6509 74.3893Z" fill="url(#paint25_linear_0_723)"/>
<path fill-rule="evenodd" clip-rule="evenodd" d="M86.277 100.662L80.9788 121.331L103.042 121.973L107.451 101.541L86.277 100.662Z" fill="url(#paint26_linear_0_723)"/>
<path fill-rule="evenodd" clip-rule="evenodd" d="M122.875 50.1785L119.734 69.7873L139.221 70.4466L141.217 50.8463L122.875 50.1785Z" fill="url(#paint27_linear_0_723)"/>
<path fill-rule="evenodd" clip-rule="evenodd" d="M117.958 75.494L114.558 95.4826L133.484 95.5643L137.023 75.8966L117.958 75.494Z" fill="url(#paint28_linear_0_723)"/>
<path fill-rule="evenodd" clip-rule="evenodd" d="M113.801 101.842L110.045 121.222L129.478 121.881L132.488 101.762L113.801 101.842Z" fill="url(#paint29_linear_0_723)"/>
<path fill-rule="evenodd" clip-rule="evenodd" d="M146.881 50.4077L144.701 69.7876L164.188 70.4462L165.563 50.328L146.881 50.4077Z" fill="url(#paint30_linear_0_723)"/>
<path fill-rule="evenodd" clip-rule="evenodd" d="M142.767 75.8561L139.01 95.2367L158.444 95.8953L161.454 75.7764L142.767 75.8561Z" fill="url(#paint31_linear_0_723)"/>
<path fill-rule="evenodd" clip-rule="evenodd" d="M137.558 102.129L133.958 121.509L151.99 122.168L154.902 102.049L137.558 102.129Z" fill="url(#paint32_linear_0_723)"/>
<path fill-rule="evenodd" clip-rule="evenodd" d="M103.452 33.0011C105.477 33.0011 107.118 34.6562 107.118 36.6977C107.118 38.7391 105.477 40.3935 103.452 40.3935C101.428 40.3935 99.7861 38.7391 99.7861 36.6977C99.7861 34.6562 101.428 33.0011 103.452 33.0011Z" fill="url(#paint33_linear_0_723)"/>
<path fill-rule="evenodd" clip-rule="evenodd" d="M127.809 33.3148C129.833 33.3148 131.475 34.9699 131.475 37.0114C131.475 39.0528 129.833 40.7073 127.809 40.7073C125.784 40.7073 124.143 39.0528 124.143 37.0114C124.143 34.9699 125.784 33.3148 127.809 33.3148Z" fill="url(#paint34_linear_0_723)"/>
<path fill-rule="evenodd" clip-rule="evenodd" d="M152.955 33.1328C154.98 33.1328 156.621 34.7872 156.621 36.8293C156.621 38.8708 154.98 40.5252 152.955 40.5252C150.931 40.5252 149.289 38.8708 149.289 36.8293C149.289 34.7872 150.931 33.1328 152.955 33.1328Z" fill="url(#paint35_linear_0_723)"/>
<path fill-rule="evenodd" clip-rule="evenodd" d="M177.542 33.0954C179.566 33.0954 181.208 34.7505 181.208 36.792C181.208 38.8334 179.566 40.4879 177.542 40.4879C175.517 40.4879 173.876 38.8334 173.876 36.792C173.876 34.7505 175.517 33.0954 177.542 33.0954Z" fill="url(#paint36_linear_0_723)"/>
<mask id="mask6_0_723" style="mask-type:luminance" maskUnits="userSpaceOnUse" x="90" y="23" width="17" height="18">
<path fill-rule="evenodd" clip-rule="evenodd" d="M90.4778 23.1277H106.486V40.4217H90.4778V23.1277Z" fill="white"/>
</mask>
<g mask="url(#mask6_0_723)">
<path fill-rule="evenodd" clip-rule="evenodd" d="M106.459 30.9201L102.045 30.8365C102.045 30.8365 101.427 27.8135 98.4781 28.2842C95.5281 28.7555 95.3217 31.3357 95.431 32.2861C95.6316 34.03 98.0872 36.7476 101.682 33.9736C101.682 33.9736 103.925 33.536 105.029 35.8828C105.602 37.0963 104.681 37.7375 103.524 38.8804C99.8657 42.4914 90.0228 39.5715 90.4941 32.0637C91.0715 22.8729 98.228 22.5527 101.027 23.4739C104.257 24.5364 106.771 27.9211 106.459 30.9201Z" fill="url(#paint37_linear_0_723)"/>
</g>
<path fill-rule="evenodd" clip-rule="evenodd" d="M131.54 31.2753L127.126 31.1917C127.126 31.1917 126.508 28.1687 123.559 28.6394C120.609 29.11 120.402 31.6909 120.512 32.6413C120.712 34.3851 123.167 37.1028 126.763 34.3287C126.763 34.3287 129.006 33.8912 130.11 36.2373C130.682 37.4515 129.762 38.0927 128.604 39.235C124.947 42.8459 115.103 39.9267 115.575 32.4189C116.152 23.2281 123.309 22.9079 126.108 23.8291C129.337 24.8916 131.851 28.2757 131.54 31.2753Z" fill="url(#paint38_linear_0_723)"/>
<path fill-rule="evenodd" clip-rule="evenodd" d="M156.28 31.1271L151.866 31.0435C151.866 31.0435 151.248 28.0205 148.299 28.4912C145.349 28.9618 145.142 31.5427 145.252 32.4924C145.452 34.237 147.908 36.9539 151.503 34.1806C151.503 34.1806 153.746 33.7423 154.851 36.0891C155.422 37.3034 154.502 37.9445 153.345 39.0868C149.686 42.6977 139.844 39.7785 140.315 32.2707C140.893 23.0799 148.049 22.7597 150.848 23.6802C154.077 24.7434 156.591 28.1275 156.28 31.1271Z" fill="url(#paint39_linear_0_723)"/>
<path fill-rule="evenodd" clip-rule="evenodd" d="M180.815 30.9518L176.401 30.8681C176.401 30.8681 175.783 27.8452 172.834 28.3158C169.884 28.7865 169.678 31.3673 169.787 32.317C169.987 34.0616 172.443 36.7792 176.038 34.0052C176.038 34.0052 178.281 33.5676 179.385 35.9137C179.958 37.128 179.037 37.7691 177.88 38.9114C174.222 42.5224 164.379 39.6031 164.85 32.0953C165.427 22.9046 172.585 22.5843 175.383 23.5049C178.613 24.5681 181.127 27.9521 180.815 30.9518Z" fill="url(#paint40_linear_0_723)"/>
<path d="M232 122.5C232 140.449 217.449 155 199.5 155C181.551 155 167 140.449 167 122.5C167 104.551 181.551 90 199.5 90C217.449 90 232 104.551 232 122.5Z" fill="url(#paint41_linear_0_723)"/>
<path d="M227 123C227 137.912 214.912 150 200 150C185.088 150 173 137.912 173 123C173 108.088 185.088 96 200 96C214.912 96 227 108.088 227 123Z" fill="url(#paint42_linear_0_723)"/>
<path d="M199.402 105.92C198.577 105.92 197.908 105.181 197.908 104.269V101.651C197.908 100.739 198.577 100 199.402 100C200.226 100 200.895 100.739 200.895 101.651V104.269C200.895 105.181 200.226 105.92 199.402 105.92Z" fill="url(#paint43_linear_0_723)"/>
<path d="M199.402 145.877C198.577 145.877 197.908 145.138 197.908 144.226V141.608C197.908 140.696 198.577 139.957 199.402 139.957C200.226 139.957 200.895 140.696 200.895 141.608V144.226C200.895 145.138 200.226 145.877 199.402 145.877Z" fill="url(#paint44_linear_0_723)"/>
<path d="M215.829 122.938C215.829 122.121 216.575 121.458 217.495 121.458H220.137C221.057 121.458 221.803 122.121 221.803 122.938C221.803 123.756 221.057 124.418 220.137 124.418H217.495C216.575 124.418 215.829 123.756 215.829 122.938V122.938Z" fill="url(#paint45_linear_0_723)"/>
<path d="M177 122.938C177 122.121 177.746 121.458 178.666 121.458H181.308C182.228 121.458 182.974 122.121 182.974 122.938C182.974 123.756 182.228 124.418 181.308 124.418H178.666C177.746 124.418 177 123.756 177 122.938Z" fill="url(#paint46_linear_0_723)"/>
<path opacity="0.48098" d="M199.539 107.89C199.4 107.6 199.107 107.399 198.767 107.399C198.292 107.399 197.908 107.788 197.908 108.268V122.746C197.908 122.976 197.998 123.197 198.159 123.36L198.559 123.765L215.293 140.697C218.247 137.912 220.512 134.389 221.803 130.419L199.539 107.89Z" fill="url(#paint47_linear_0_723)"/>
<path d="M205.99 130.338C205.765 130.338 205.541 130.255 205.369 130.088L198.165 123.087C198 122.926 197.908 122.709 197.908 122.483V108.253C197.908 107.782 198.301 107.399 198.787 107.399C199.272 107.399 199.665 107.782 199.665 108.253V122.129L206.612 128.88C206.954 129.213 206.954 129.754 206.612 130.088C206.44 130.255 206.215 130.338 205.99 130.338Z" fill="url(#paint48_linear_0_723)" stroke="#F8C866"/>
<path d="M201.642 122.938C201.642 124.164 200.639 125.158 199.402 125.158C198.164 125.158 197.161 124.164 197.161 122.938C197.161 121.712 198.164 120.718 199.402 120.718C200.639 120.718 201.642 121.712 201.642 122.938Z" fill="url(#paint49_linear_0_723)"/>
<path d="M567.851 365.477L518.79 376.804C517.808 377.03 516.823 376.397 516.591 375.389L509.335 343.962C509.103 342.954 509.71 341.953 510.691 341.727L559.752 330.4C560.734 330.173 561.719 330.807 561.951 331.815L569.207 363.242C569.439 364.25 568.832 365.251 567.851 365.477Z" fill="url(#paint50_linear_0_723)"/>
<path d="M510.063 346.176L562.679 334.029L564.479 341.824L511.863 353.971L510.063 346.176Z" fill="url(#paint51_linear_0_723)"/>
<path d="M515.176 369.765L516.311 374.684C516.554 375.734 517.546 376.402 518.528 376.176L567.589 364.849C568.57 364.622 569.17 363.587 568.927 362.537L567.792 357.618L515.176 369.765Z" fill="url(#paint52_linear_0_723)"/>
<path d="M520 358.699L531.692 356L532.142 357.949L520.45 360.648L520 358.699Z" fill="url(#paint53_linear_0_723)"/>
<path d="M522 363.699L533.692 361L534.142 362.949L522.45 365.648L522 363.699Z" fill="url(#paint54_linear_0_723)"/>
<circle cx="555.293" cy="352.346" r="7" transform="rotate(-13 555.293 352.346)" fill="url(#paint55_linear_0_723)"/>
<path d="M558.109 353.72C558.222 353.974 558.263 354.242 558.231 354.525C558.202 354.8 558.093 355.068 557.905 355.326C557.719 355.578 557.462 355.792 557.131 355.969L557.395 356.561L556.927 356.769L556.66 356.17C556.154 356.343 555.696 356.371 555.288 356.255C554.878 356.134 554.573 355.861 554.372 355.437L555.469 354.949C555.654 355.287 555.929 355.418 556.293 355.344L555.671 353.948C555.281 354.016 554.96 354.054 554.706 354.062C554.453 354.07 554.205 354.011 553.962 353.886C553.719 353.76 553.523 353.529 553.374 353.193C553.185 352.769 553.182 352.356 553.365 351.954C553.552 351.549 553.879 351.22 554.344 350.966L554.08 350.374L554.548 350.166L554.811 350.758C555.296 350.589 555.732 350.564 556.118 350.684C556.509 350.802 556.817 351.067 557.042 351.481L555.939 351.972C555.861 351.837 555.756 351.738 555.623 351.675C555.492 351.605 555.346 351.579 555.185 351.598L555.8 352.98C556.207 352.909 556.535 352.872 556.783 352.866C557.035 352.853 557.281 352.91 557.524 353.035C557.765 353.156 557.96 353.384 558.109 353.72ZM554.418 352.667C554.489 352.828 554.597 352.938 554.74 352.997C554.88 353.051 555.058 353.068 555.271 353.049L554.708 351.785C554.543 351.887 554.434 352.015 554.379 352.167C554.325 352.32 554.338 352.487 554.418 352.667ZM556.767 355.15C556.937 355.034 557.047 354.894 557.097 354.732C557.152 354.567 557.143 354.402 557.069 354.236C556.998 354.075 556.889 353.969 556.743 353.917C556.598 353.865 556.416 353.85 556.197 353.871L556.767 355.15Z" fill="white"/>
<circle cx="473.5" cy="141.5" r="13.5" fill="white"/>
<path fill-rule="evenodd" clip-rule="evenodd" d="M476.162 147.765L476.283 148.529C476.381 149.146 475.938 149.726 475.293 149.828L474.523 149.95C473.878 150.052 473.277 149.637 473.18 149.021L473.061 148.268C471.869 148.378 470.712 148.142 469.727 147.63C469.11 147.308 468.943 146.533 469.358 145.981L469.828 145.372C470.175 144.91 470.81 144.785 471.339 145.03C471.827 145.262 472.396 145.354 472.979 145.262L475.3 144.894C475.759 144.822 476.155 144.51 476.273 144.09C476.461 143.429 475.989 142.817 475.347 142.742L471.208 142.238C469.372 142.012 467.943 140.702 467.611 138.968C467.213 136.856 468.702 134.81 470.838 134.235L470.717 133.471C470.619 132.854 471.062 132.274 471.707 132.172L472.477 132.05C473.122 131.948 473.723 132.363 473.82 132.979L473.939 133.732C475.131 133.622 476.288 133.858 477.279 134.369C477.89 134.692 478.057 135.467 477.641 136.013L477.172 136.628C476.825 137.09 476.19 137.215 475.667 136.969C475.173 136.738 474.604 136.646 474.021 136.738L471.694 137.107C471.11 137.199 470.647 137.691 470.686 138.256C470.718 138.78 471.12 139.19 471.653 139.258L475.792 139.762C477.628 139.988 479.057 141.298 479.389 143.032C479.787 145.144 478.298 147.19 476.162 147.765ZM471.232 127.179C463.325 128.431 457.926 135.862 459.179 143.768C460.431 151.675 467.862 157.074 475.768 155.821C483.675 154.569 489.074 147.138 487.821 139.232C486.569 131.325 479.138 125.926 471.232 127.179Z" fill="url(#paint56_linear_0_723)"/>
<circle cx="28.5" cy="257.5" r="19.5" transform="rotate(-9 28.5 257.5)" fill="white"/>
<path fill-rule="evenodd" clip-rule="evenodd" d="M33.7592 265.91L34.1077 266.982C34.3887 267.847 33.8842 268.783 32.9785 269.077L31.8986 269.428C30.993 269.723 30.0345 269.262 29.7536 268.397L29.4104 267.341C27.7207 267.771 26.0016 267.695 24.4679 267.182C23.5064 266.86 23.0888 265.782 23.5607 264.894L24.098 263.91C24.4917 263.166 25.3778 262.841 26.1943 263.073C26.9504 263.296 27.789 263.299 28.6076 263.033L31.8645 261.975C32.509 261.765 33.0078 261.226 33.082 260.596C33.2016 259.601 32.3825 258.828 31.4421 258.867L25.3701 259.084C22.676 259.178 20.3205 257.618 19.4478 255.199C18.3935 252.25 20.0703 248.966 23.0128 247.651L22.6643 246.579C22.3833 245.714 22.8879 244.778 23.7936 244.483L24.8734 244.133C25.7791 243.838 26.7375 244.299 27.0185 245.164L27.3616 246.22C29.0513 245.79 30.7704 245.866 32.3129 246.376C33.2656 246.701 33.6832 247.779 33.2087 248.659L32.6741 249.651C32.2804 250.395 31.3942 250.719 30.5865 250.485C29.8217 250.265 28.983 250.262 28.1644 250.528L24.8988 251.589C24.0802 251.855 23.5264 252.669 23.7107 253.473C23.8761 254.219 24.5484 254.718 25.33 254.694L31.402 254.477C34.0961 254.383 36.4516 255.943 37.3243 258.362C38.3786 261.311 36.7018 264.595 33.7592 265.91ZM21.9709 237.406C10.8771 241.01 4.80094 252.935 8.40554 264.029C12.0101 275.123 23.9353 281.199 35.0291 277.594C46.1229 273.99 52.1991 262.065 48.5945 250.971C44.9899 239.877 33.0647 233.801 21.9709 237.406Z" fill="url(#paint57_linear_0_723)"/>
<defs>
<linearGradient id="paint0_linear_0_723" x1="-137.438" y1="212.851" x2="73.5187" y2="572.814" gradientUnits="userSpaceOnUse">
<stop stop-color="#FFE1A1"/>
<stop offset="1" stop-color="#FEDC93"/>
</linearGradient>
<linearGradient id="paint1_linear_0_723" x1="306.445" y1="-96.3948" x2="75.1735" y2="428.867" gradientUnits="userSpaceOnUse">
<stop stop-color="#F7CD6D"/>
<stop offset="1" stop-color="#FFDA5E" stop-opacity="0.01"/>
</linearGradient>
<linearGradient id="paint2_linear_0_723" x1="295.567" y1="340.964" x2="401.484" y2="221.619" gradientUnits="userSpaceOnUse">
<stop stop-color="#59A696"/>
<stop offset="1" stop-color="#39B993"/>
</linearGradient>
<linearGradient id="paint3_linear_0_723" x1="222.244" y1="123.461" x2="51.6239" y2="280.783" gradientUnits="userSpaceOnUse">
<stop stop-color="#6BDEC5"/>
<stop offset="1" stop-color="#39B993"/>
</linearGradient>
<linearGradient id="paint4_linear_0_723" x1="311.092" y1="3.36375" x2="99.9642" y2="178.724" gradientUnits="userSpaceOnUse">
<stop stop-color="#6BDEC5"/>
<stop offset="1" stop-color="#39B993"/>
</linearGradient>
<linearGradient id="paint5_linear_0_723" x1="396.18" y1="124.949" x2="349.604" y2="136.256" gradientUnits="userSpaceOnUse">
<stop stop-color="#6BDEC5"/>
<stop offset="0.620042" stop-color="#6ADDC4"/>
<stop offset="1" stop-color="#39B993"/>
</linearGradient>
<linearGradient id="paint6_linear_0_723" x1="311.347" y1="130.053" x2="311.347" y2="168.014" gradientUnits="userSpaceOnUse">
<stop stop-color="#FFB584"/>
<stop offset="1" stop-color="#FFB686"/>
</linearGradient>
<linearGradient id="paint7_linear_0_723" x1="328.577" y1="143.566" x2="360.147" y2="152.452" gradientUnits="userSpaceOnUse">
<stop stop-color="#DC934B"/>
<stop offset="1" stop-color="#DB843C"/>
</linearGradient>
<linearGradient id="paint8_linear_0_723" x1="307.965" y1="43.1901" x2="307.965" y2="136.843" gradientUnits="userSpaceOnUse">
<stop stop-color="#FFBB8D"/>
<stop offset="1" stop-color="#FFBA8C"/>
</linearGradient>
<linearGradient id="paint9_linear_0_723" x1="307.299" y1="0.415298" x2="307.299" y2="93.9457" gradientUnits="userSpaceOnUse">
<stop stop-color="#0A717A"/>
<stop offset="1" stop-color="#00545B"/>
</linearGradient>
<linearGradient id="paint10_linear_0_723" x1="361.881" y1="58.5601" x2="361.881" y2="74.0428" gradientUnits="userSpaceOnUse">
<stop stop-color="#033B40"/>
<stop offset="1" stop-color="#00545B"/>
</linearGradient>
<linearGradient id="paint11_linear_0_723" x1="327.428" y1="47.9819" x2="327.428" y2="57.0025" gradientUnits="userSpaceOnUse">
<stop stop-color="#033B40"/>
<stop offset="1" stop-color="#00545B"/>
</linearGradient>
<linearGradient id="paint12_linear_0_723" x1="344.358" y1="58.5749" x2="326.741" y2="82.4968" gradientUnits="userSpaceOnUse">
<stop stop-color="#E08E58" stop-opacity="0.323481"/>
<stop offset="1" stop-color="#E0925E"/>
</linearGradient>
<linearGradient id="paint13_linear_0_723" x1="372.174" y1="97.0083" x2="392.01" y2="119.931" gradientUnits="userSpaceOnUse">
<stop stop-color="#FFC198"/>
<stop offset="1" stop-color="#FFB380"/>
</linearGradient>
<linearGradient id="paint14_linear_0_723" x1="196.423" y1="287.533" x2="233.451" y2="375.074" gradientUnits="userSpaceOnUse">
<stop stop-color="#FFC198"/>
<stop offset="1" stop-color="#FFB380"/>
</linearGradient>
<linearGradient id="paint15_linear_0_723" x1="221.52" y1="307.176" x2="243.97" y2="371.566" gradientUnits="userSpaceOnUse">
<stop stop-color="#FFC198"/>
<stop offset="1" stop-color="#FFA162"/>
</linearGradient>
<linearGradient id="paint16_linear_0_723" x1="378.549" y1="371.552" x2="476.549" y2="326.954" gradientUnits="userSpaceOnUse">
<stop stop-color="#59A696"/>
<stop offset="1" stop-color="#39B993"/>
</linearGradient>
<linearGradient id="paint17_linear_0_723" x1="448.165" y1="-62.5653" x2="356.476" y2="-55.6099" gradientUnits="userSpaceOnUse">
<stop stop-color="#6BDEC5"/>
<stop offset="1" stop-color="#39B993"/>
</linearGradient>
<linearGradient id="paint18_linear_0_723" x1="150.948" y1="297.643" x2="174.735" y2="327.626" gradientUnits="userSpaceOnUse">
<stop stop-color="#FFC198"/>
<stop offset="1" stop-color="#FFB380"/>
</linearGradient>
<linearGradient id="paint19_linear_0_723" x1="15.2359" y1="32.024" x2="-1.37592" y2="302.863" gradientUnits="userSpaceOnUse">
<stop stop-color="#F87777"/>
<stop offset="1" stop-color="#EE4242"/>
</linearGradient>
<linearGradient id="paint20_linear_0_723" x1="394.796" y1="311.328" x2="349.251" y2="169.781" gradientUnits="userSpaceOnUse">
<stop stop-color="#FFA981"/>
<stop offset="0.428" stop-color="#FF8666"/>
<stop offset="1" stop-color="#FF5C45"/>
<stop offset="1" stop-color="#FF5C45"/>
</linearGradient>
<linearGradient id="paint21_linear_0_723" x1="150.54" y1="303.352" x2="173.602" y2="336.867" gradientUnits="userSpaceOnUse">
<stop stop-color="#FFC198"/>
<stop offset="1" stop-color="#FFB380"/>
</linearGradient>
<linearGradient id="paint22_linear_0_723" x1="33.967" y1="80.9702" x2="95.4474" y2="175.04" gradientUnits="userSpaceOnUse">
<stop stop-color="#F87777"/>
<stop offset="1" stop-color="#EE4242"/>
</linearGradient>
<linearGradient id="paint23_linear_0_723" x1="13.6323" y1="88.9574" x2="102.972" y2="200.872" gradientUnits="userSpaceOnUse">
<stop stop-color="#FFA162"/>
<stop offset="0.32348" stop-color="#EF9B63"/>
<stop offset="0.636296" stop-color="#F0A675"/>
<stop offset="1" stop-color="#FFC198"/>
</linearGradient>
<linearGradient id="paint24_linear_0_723" x1="95.9331" y1="53.9048" x2="95.9331" y2="70.3615" gradientUnits="userSpaceOnUse">
<stop stop-color="#F4F6FA"/>
<stop offset="1" stop-color="white"/>
</linearGradient>
<linearGradient id="paint25_linear_0_723" x1="90.4247" y1="79.3278" x2="90.4247" y2="95.7004" gradientUnits="userSpaceOnUse">
<stop stop-color="#F4F6FA"/>
<stop offset="1" stop-color="white"/>
</linearGradient>
<linearGradient id="paint26_linear_0_723" x1="84.0461" y1="105.6" x2="84.0461" y2="121.973" gradientUnits="userSpaceOnUse">
<stop stop-color="#F4F6FA"/>
<stop offset="1" stop-color="white"/>
</linearGradient>
<linearGradient id="paint27_linear_0_723" x1="122.223" y1="54.8754" x2="122.223" y2="70.4466" gradientUnits="userSpaceOnUse">
<stop stop-color="#F4F6FA"/>
<stop offset="1" stop-color="white"/>
</linearGradient>
<linearGradient id="paint28_linear_0_723" x1="105.063" y1="84.8414" x2="117.072" y2="103.104" gradientUnits="userSpaceOnUse">
<stop stop-color="#F87777"/>
<stop offset="1" stop-color="#EE4242"/>
</linearGradient>
<linearGradient id="paint29_linear_0_723" x1="112.645" y1="106.424" x2="112.645" y2="121.881" gradientUnits="userSpaceOnUse">
<stop stop-color="#F4F6FA"/>
<stop offset="1" stop-color="white"/>
</linearGradient>
<linearGradient id="paint30_linear_0_723" x1="147.118" y1="54.9901" x2="147.118" y2="70.4462" gradientUnits="userSpaceOnUse">
<stop stop-color="#F4F6FA"/>
<stop offset="1" stop-color="white"/>
</linearGradient>
<linearGradient id="paint31_linear_0_723" x1="141.611" y1="80.4387" x2="141.611" y2="95.8953" gradientUnits="userSpaceOnUse">
<stop stop-color="#F4F6FA"/>
<stop offset="1" stop-color="white"/>
</linearGradient>
<linearGradient id="paint32_linear_0_723" x1="136.384" y1="106.711" x2="136.384" y2="122.168" gradientUnits="userSpaceOnUse">
<stop stop-color="#F4F6FA"/>
<stop offset="1" stop-color="white"/>
</linearGradient>
<linearGradient id="paint33_linear_0_723" x1="99.5966" y1="37.9269" x2="105.035" y2="41.9086" gradientUnits="userSpaceOnUse">
<stop stop-color="#F8F6FB"/>
<stop offset="1" stop-color="#EFDCFB"/>
</linearGradient>
<linearGradient id="paint34_linear_0_723" x1="123.953" y1="38.2406" x2="129.392" y2="42.2223" gradientUnits="userSpaceOnUse">
<stop stop-color="#F8F6FB"/>
<stop offset="1" stop-color="#EFDCFB"/>
</linearGradient>
<linearGradient id="paint35_linear_0_723" x1="149.1" y1="38.0585" x2="154.538" y2="42.0402" gradientUnits="userSpaceOnUse">
<stop stop-color="#F8F6FB"/>
<stop offset="1" stop-color="#EFDCFB"/>
</linearGradient>
<linearGradient id="paint36_linear_0_723" x1="173.686" y1="38.0212" x2="179.125" y2="42.0029" gradientUnits="userSpaceOnUse">
<stop stop-color="#F8F6FB"/>
<stop offset="1" stop-color="#EFDCFB"/>
</linearGradient>
<linearGradient id="paint37_linear_0_723" x1="113.253" y1="7.6702" x2="79.6366" y2="18.4639" gradientUnits="userSpaceOnUse">
<stop stop-color="#FFA981"/>
<stop offset="0.428" stop-color="#FF8666"/>
<stop offset="1" stop-color="#FF5C45"/>
</linearGradient>
<linearGradient id="paint38_linear_0_723" x1="138.334" y1="8.02585" x2="104.718" y2="18.8198" gradientUnits="userSpaceOnUse">
<stop stop-color="#FFA981"/>
<stop offset="0.428" stop-color="#FF8666"/>
<stop offset="1" stop-color="#FF5C45"/>
</linearGradient>
<linearGradient id="paint39_linear_0_723" x1="163.074" y1="7.87708" x2="129.457" y2="18.6709" gradientUnits="userSpaceOnUse">
<stop stop-color="#FFA981"/>
<stop offset="0.428" stop-color="#FF8666"/>
<stop offset="1" stop-color="#FF5C45"/>
</linearGradient>
<linearGradient id="paint40_linear_0_723" x1="187.609" y1="7.70171" x2="153.993" y2="18.4955" gradientUnits="userSpaceOnUse">
<stop stop-color="#FFA981"/>
<stop offset="0.428" stop-color="#FF8666"/>
<stop offset="1" stop-color="#FF5C45"/>
</linearGradient>
<linearGradient id="paint41_linear_0_723" x1="149.995" y1="142.807" x2="207.64" y2="176.816" gradientUnits="userSpaceOnUse">
<stop stop-color="#F87777"/>
<stop offset="1" stop-color="#EE4242"/>
</linearGradient>
<linearGradient id="paint42_linear_0_723" x1="179.257" y1="108.514" x2="179.257" y2="150" gradientUnits="userSpaceOnUse">
<stop stop-color="#F4F6FA"/>
<stop offset="1" stop-color="white"/>
</linearGradient>
<linearGradient id="paint43_linear_0_723" x1="202.158" y1="94.7092" x2="195.444" y2="95.8843" gradientUnits="userSpaceOnUse">
<stop stop-color="#FFA981"/>
<stop offset="0.428" stop-color="#FF8666"/>
<stop offset="1" stop-color="#FF5C45"/>
</linearGradient>
<linearGradient id="paint44_linear_0_723" x1="202.158" y1="134.666" x2="195.444" y2="135.841" gradientUnits="userSpaceOnUse">
<stop stop-color="#FFA981"/>
<stop offset="0.428" stop-color="#FF8666"/>
<stop offset="1" stop-color="#FF5C45"/>
</linearGradient>
<linearGradient id="paint45_linear_0_723" x1="224.329" y1="118.813" x2="215.042" y2="125.315" gradientUnits="userSpaceOnUse">
<stop stop-color="#FFA981"/>
<stop offset="0.428" stop-color="#FF8666"/>
<stop offset="1" stop-color="#FF5C45"/>
</linearGradient>
<linearGradient id="paint46_linear_0_723" x1="185.499" y1="118.813" x2="176.213" y2="125.315" gradientUnits="userSpaceOnUse">
<stop stop-color="#FFA981"/>
<stop offset="0.428" stop-color="#FF8666"/>
<stop offset="1" stop-color="#FF5C45"/>
</linearGradient>
<linearGradient id="paint47_linear_0_723" x1="209.445" y1="95.5022" x2="168.465" y2="95.4425" gradientUnits="userSpaceOnUse">
<stop stop-color="#A1B5D8" stop-opacity="0.01"/>
<stop offset="0.0343" stop-color="#9FB3D5" stop-opacity="0.035294"/>
<stop offset="0.4515" stop-color="#8898AF" stop-opacity="0.45098"/>
<stop offset="0.788" stop-color="#798898" stop-opacity="0.788235"/>
<stop offset="1" stop-color="#748290"/>
</linearGradient>
<linearGradient id="paint48_linear_0_723" x1="195.067" y1="119.304" x2="207.541" y2="124.101" gradientUnits="userSpaceOnUse">
<stop stop-color="#FFD77A"/>
<stop offset="1" stop-color="#FFDA5E"/>
</linearGradient>
<linearGradient id="paint49_linear_0_723" x1="203.536" y1="116.75" x2="194.29" y2="119.987" gradientUnits="userSpaceOnUse">
<stop stop-color="#FFA981"/>
<stop offset="0.428" stop-color="#FF8666"/>
<stop offset="1" stop-color="#FF5C45"/>
</linearGradient>
<linearGradient id="paint50_linear_0_723" x1="531.173" y1="318.525" x2="510.007" y2="374.568" gradientUnits="userSpaceOnUse">
<stop stop-color="#FFA981"/>
<stop offset="0.428" stop-color="#FF8666"/>
<stop offset="1" stop-color="#FF5C45"/>
</linearGradient>
<linearGradient id="paint51_linear_0_723" x1="516.577" y1="346.575" x2="517.959" y2="352.564" gradientUnits="userSpaceOnUse">
<stop stop-color="#F4F6FA"/>
<stop offset="1" stop-color="white"/>
</linearGradient>
<linearGradient id="paint52_linear_0_723" x1="543.155" y1="356.649" x2="545.013" y2="373.152" gradientUnits="userSpaceOnUse">
<stop stop-color="#FFA981"/>
<stop offset="0.428" stop-color="#FF8666"/>
<stop offset="1" stop-color="#FF5C45"/>
<stop offset="1" stop-color="#FF5C45"/>
</linearGradient>
<linearGradient id="paint53_linear_0_723" x1="521.459" y1="358.838" x2="521.805" y2="360.335" gradientUnits="userSpaceOnUse">
<stop stop-color="#F4F6FA"/>
<stop offset="1" stop-color="white"/>
</linearGradient>
<linearGradient id="paint54_linear_0_723" x1="523.459" y1="363.838" x2="523.805" y2="365.335" gradientUnits="userSpaceOnUse">
<stop stop-color="#F4F6FA"/>
<stop offset="1" stop-color="white"/>
</linearGradient>
<linearGradient id="paint55_linear_0_723" x1="550.665" y1="363.1" x2="561.286" y2="351.113" gradientUnits="userSpaceOnUse">
<stop stop-color="#39B993"/>
<stop offset="1" stop-color="#56CEB0"/>
</linearGradient>
<linearGradient id="paint56_linear_0_723" x1="445.089" y1="145.467" x2="476.708" y2="166.446" gradientUnits="userSpaceOnUse">
<stop stop-color="#6BDEC5"/>
<stop offset="1" stop-color="#39B993"/>
</linearGradient>
<linearGradient id="paint57_linear_0_723" x1="-11.4855" y1="269.686" x2="38.8028" y2="292.671" gradientUnits="userSpaceOnUse">
<stop stop-color="#6BDEC5"/>
<stop offset="1" stop-color="#39B993"/>
</linearGradient>
</defs>
</svg>
