<svg width="91" height="94" viewBox="0 0 91 94" fill="none" xmlns="http://www.w3.org/2000/svg">
<path d="M52.706 28.1275C54.6271 34.5133 57.9264 64.2374 51.4928 65.9921C45.0593 67.7468 31.3292 40.8676 29.4081 34.4819C27.4869 28.0961 31.1449 21.497 37.5784 19.7423C44.0119 17.9876 50.7848 21.7418 52.706 28.1275Z" fill="url(#paint0_linear_0_1111)"/>
<path d="M51.9228 32.9066C51.8307 33.0727 51.6749 33.2036 51.4774 33.2598L44.1186 35.353C43.7234 35.4654 43.3106 35.2366 43.1965 34.8419C43.0825 34.4473 43.3104 34.0361 43.7054 33.9237L51.0642 31.8305C51.4594 31.7181 51.8722 31.9469 51.9863 32.3416C52.0434 32.5389 52.0149 32.7404 51.9228 32.9066Z" fill="#FF5D00"/>
<path d="M52.701 38.3848C52.6089 38.551 52.4531 38.6819 52.2555 38.7381L45.3783 40.6943C44.9831 40.8067 44.5703 40.5779 44.4562 40.1832C44.3422 39.7886 44.5701 39.3774 44.9651 39.265L51.8423 37.3087C52.2375 37.1964 52.6504 37.4252 52.7645 37.8199C52.8215 38.0172 52.7931 38.2187 52.701 38.3848Z" fill="#FF5D00"/>
<path d="M53.2272 43.9348C53.1351 44.101 52.9794 44.2319 52.7818 44.2881L46.548 46.0614C46.1528 46.1737 45.7399 45.9449 45.6258 45.5502C45.5118 45.1556 45.7397 44.7445 46.1347 44.632L52.3686 42.8588C52.7638 42.7464 53.1766 42.9752 53.2908 43.3699C53.3477 43.5672 53.3194 43.7687 53.2272 43.9348Z" fill="#FF5D00"/>
<path d="M53.5226 49.5504C53.4305 49.7166 53.2747 49.8475 53.0772 49.9037L47.6378 51.4509C47.2426 51.5633 46.8298 51.3344 46.7157 50.9398C46.6016 50.5451 46.8295 50.134 47.2246 50.0216L52.664 48.4743C53.0592 48.362 53.472 48.5908 53.5861 48.9855C53.6432 49.1828 53.6148 49.3842 53.5226 49.5504Z" fill="#FF5D00"/>
<path d="M53.5239 55.2496C53.4318 55.4157 53.276 55.5466 53.0785 55.6028L48.621 56.8709C48.2258 56.9832 47.813 56.7544 47.6988 56.3597C47.5848 55.9651 47.8127 55.554 48.2078 55.4415L52.6653 54.1735C53.0605 54.0611 53.4733 54.29 53.5874 54.6847C53.6444 54.8821 53.616 55.0835 53.5239 55.2496Z" fill="#FF5D00"/>
<path d="M53.0198 61.0914C52.9277 61.2576 52.772 61.3884 52.5744 61.4446L49.427 62.34C49.0318 62.4524 48.619 62.2235 48.5048 61.8289C48.3908 61.4342 48.6187 61.0231 49.0138 60.9107L52.1612 60.0154C52.5564 59.903 52.9692 60.1319 53.0833 60.5265C53.1404 60.7238 53.1119 60.9253 53.0198 61.0914Z" fill="#FF5D00"/>
<ellipse cx="34.0516" cy="36.114" rx="1.20065" ry="1.20574" transform="rotate(-61 34.0516 36.114)" fill="#FF5D00"/>
<ellipse cx="36.2103" cy="35.4999" rx="0.600817" ry="0.603366" transform="rotate(-61 36.2103 35.4999)" fill="#FF5D00"/>
<ellipse cx="38.4206" cy="45.6552" rx="0.600817" ry="0.603366" transform="rotate(-61 38.4206 45.6552)" fill="#FF5D00"/>
<ellipse cx="42.6362" cy="46.1937" rx="0.600817" ry="0.603366" transform="rotate(-61 42.6362 46.1937)" fill="#FF5D00"/>
<ellipse cx="40.7897" cy="43.372" rx="0.600817" ry="0.603366" transform="rotate(-61 40.7897 43.372)" fill="#FF5D00"/>
<path d="M36.6801 20.4716C34.6841 21.1099 32.9334 22.2171 31.5132 23.6359L52.504 35.2713C52.1984 32.3691 51.8368 30.0253 51.4957 28.684C49.814 22.0694 43.1808 18.3925 36.6801 20.4716Z" fill="url(#paint1_linear_0_1111)"/>
<path d="M35.9801 18.8873C34.4525 16.7866 31.8996 15.5668 29.3348 15.8057C28.2741 15.9045 27.1556 16.2528 26.0792 17.02C22.0604 19.8839 25.2751 24.3704 28.8771 22.8076C32.4791 21.2449 39.172 23.2766 39.172 23.2766L35.9801 18.8873Z" fill="url(#paint2_linear_0_1111)"/>
<path d="M39.856 20.0627C40.0962 18.0573 41.5513 16.4295 43.6064 15.9942C44.3709 15.8323 45.2513 15.8221 46.2402 16.0825C50.1956 17.1241 49.5347 21.1482 46.3603 20.9343C43.186 20.7204 39.4377 23.5553 39.4377 23.5553L39.856 20.0627Z" fill="url(#paint3_linear_0_1111)"/>
<path d="M38.4956 10.1386C39.342 12.5041 41.1844 23.7152 38.8296 24.6128C36.4748 25.5105 30.8145 15.7547 29.9681 13.3894C29.1217 11.0241 30.3445 8.37878 32.6992 7.48113C35.0539 6.58348 37.6492 7.77323 38.4956 10.1386Z" fill="url(#paint4_linear_0_1111)"/>
<path d="M39.2685 15.3123C39.2685 15.3123 37.87 8.84864 42.5757 7.7483C47.2814 6.64796 50.2415 12.3991 46.9008 14.9303C43.5601 17.4614 41.2538 23.8664 41.2538 23.8664L39.2685 15.3123Z" fill="url(#paint5_linear_0_1111)"/>
<path fill-rule="evenodd" clip-rule="evenodd" d="M34 39.4699C34 41.6419 32.3581 43.4711 30.1769 43.7289L27.5714 44.0371V44.2528C27.5714 44.6528 27.8141 45.0136 28.1873 45.1681L31.4276 46.5098C32.4426 46.9302 33.1034 47.9118 33.1034 49H19.7918C19.7918 47.9118 20.4525 46.9302 21.4676 46.5098L24.7079 45.1681C25.081 45.0136 25.3237 44.6528 25.3237 44.2528H25.2981C22.0743 44.2531 19.1172 42.2082 18.0602 39.1357C17.8505 38.5263 18.2064 37.8619 18.85 37.7001C19.4184 37.5571 20.0042 37.8927 20.1954 38.4409C20.9503 40.6061 23.0424 42.0414 25.3237 42.0305V39.2893C25.3237 36.8812 27.3413 34.9301 29.7932 35.0019C32.1527 35.071 34 37.0464 34 39.3804V39.4699ZM29.6616 37.2224C28.5088 37.2224 27.571 38.1497 27.571 39.2895H27.5707V41.7989L29.9096 41.5225C30.96 41.3983 31.7521 40.5159 31.7521 39.4701V39.2895C31.7521 38.1497 30.8145 37.2224 29.6616 37.2224Z" fill="url(#paint6_linear_0_1111)"/>
<ellipse cx="9.91057" cy="66.7487" rx="9.80024" ry="16.1142" fill="url(#paint7_linear_0_1111)"/>
<ellipse cx="43.1405" cy="66.7487" rx="9.80024" ry="16.1142" fill="url(#paint8_linear_0_1111)"/>
<path d="M42.3684 50.6841C37.3168 51.3315 33.3403 58.2764 33.3403 66.7486C33.3403 75.6483 37.728 82.8628 43.1405 82.8628C48.553 82.8628 52.9408 75.6483 52.9408 66.7486C52.9408 64.4195 52.6397 62.2062 52.0991 60.2071L42.3684 50.6841Z" fill="url(#paint9_radial_0_1111)"/>
<ellipse cx="17.0378" cy="66.0238" rx="11.7041" ry="18.2652" fill="url(#paint10_linear_0_1111)"/>
<ellipse cx="36.0134" cy="66.0238" rx="11.7041" ry="18.2652" fill="url(#paint11_linear_0_1111)"/>
<path d="M32.9313 48.4C27.9629 50.5114 24.3093 57.601 24.3093 66.0238C24.3093 76.1113 29.5493 84.289 36.0134 84.289C42.4774 84.289 47.7175 76.1115 47.7175 66.0238C47.7175 64.881 47.6495 63.7628 47.5208 62.6781L32.9313 48.4Z" fill="url(#paint12_radial_0_1111)"/>
<path d="M39.5302 64.8641C39.5302 76.0725 33.7078 85.1587 26.5256 85.1587C19.3433 85.1587 13.521 76.0725 13.521 64.8641C13.521 53.6558 19.3433 46.165 26.5256 46.165C33.7078 46.165 39.5302 53.6558 39.5302 64.8641Z" fill="url(#paint13_linear_0_1111)"/>
<g opacity="0.37">
<ellipse cx="22.687" cy="71.9212" rx="2.27045" ry="2.22198" fill="url(#paint14_linear_0_1111)"/>
<ellipse cx="23.3046" cy="78.3317" rx="1.26154" ry="1.23461" fill="url(#paint15_linear_0_1111)"/>
<ellipse cx="20.3375" cy="75.7317" rx="1.70561" ry="1.6692" fill="url(#paint16_linear_0_1111)"/>
</g>
<path d="M31.3762 47.3945C29.1719 46.2144 26.5292 46.2144 24.3249 47.3945C19.5452 49.9535 16.1709 56.3314 16.1709 64.8642C16.1709 75.3745 21.2907 84.0188 27.8505 85.0547C34.4104 84.0188 39.5302 75.3747 39.5302 64.8642C39.5302 56.3314 36.1559 49.9535 31.3762 47.3945Z" fill="url(#paint17_linear_0_1111)"/>
<path d="M32.2293 48C34.7329 51.3326 36.2893 56.1536 36.2893 61.9569C36.2893 73.3387 30.3052 82.5654 22.9234 82.5654C21.1849 82.5654 19.5239 82.0531 18 81.1216C20.3291 84.164 23.3424 86 26.6341 86C34.0159 86 40 76.7733 40 65.3916C40.0002 57.0905 36.8165 50.7985 32.2293 48Z" fill="url(#paint18_linear_0_1111)"/>
<path d="M31.9025 40.0004C31.9025 40.9163 31.1632 41.6891 30.1829 41.7979L28 42.04V44L30.4319 43.7301C32.4676 43.5042 34 41.9023 34 40L31.9025 40.0004Z" fill="url(#paint19_linear_0_1111)"/>
<path d="M20.0983 38.8224C19.9156 38.2398 19.3557 37.8831 18.8124 38.0351C18.1973 38.207 17.8571 38.9132 18.0576 39.5609C19.0679 42.8267 21.8942 45.0002 24.9755 45H25V42.6381C22.8195 42.6495 20.8201 41.1238 20.0983 38.8224Z" fill="url(#paint20_linear_0_1111)"/>
<path fill-rule="evenodd" clip-rule="evenodd" d="M70.1844 59.9759L71.2075 61.6177L79.4081 56.5428L81.1681 59.367C81.9115 60.56 83.0765 61.3929 84.4486 61.7126C85.8205 62.0322 87.2355 61.8004 88.4334 61.059L88.4997 61.0177C89.6967 60.2769 90.5327 59.1159 90.8534 57.7486C91.1742 56.3812 90.9414 54.9713 90.1981 53.7785C89.4547 52.5856 88.2897 51.7526 86.9176 51.4329C85.5455 51.1133 84.1307 51.3451 82.9335 52.0859L80.0322 53.8816L75.8879 47.9331L75.115 48.4313L78.3846 54.9008L70.1844 59.9759ZM82.8151 58.3474L81.0552 55.5231L83.9565 53.7275C84.7134 53.2591 85.608 53.1123 86.4758 53.3145C87.3436 53.5167 88.0803 54.0433 88.5503 54.7977C89.0205 55.5521 89.1677 56.4439 88.9647 57.3084C88.7618 58.1732 88.2334 58.9074 87.4754 59.3764L87.4091 59.4176C86.652 59.8862 85.7574 60.0328 84.8896 59.8306C84.0219 59.6284 83.2851 59.1018 82.8151 58.3474Z" fill="url(#paint21_linear_0_1111)"/>
<ellipse cx="41.459" cy="79.3992" rx="6.59882" ry="6.44452" fill="url(#paint22_linear_0_1111)"/>
<ellipse cx="41.459" cy="79.3992" rx="5.50725" ry="5.37847" fill="url(#paint23_linear_0_1111)"/>
<path d="M48.0579 79.2848C47.4766 80.0717 46.7043 80.7423 45.7639 81.2221C42.5337 82.8703 38.547 81.6491 36.8594 78.4945C36.368 77.5758 36.126 76.5948 36.1093 75.6246C34.6945 77.5404 34.4142 80.1475 35.6105 82.3835C37.2981 85.5381 41.2848 86.7593 44.515 85.1112C46.8046 83.9429 48.099 81.6465 48.0579 79.2848Z" fill="url(#paint24_linear_0_1111)"/>
<ellipse cx="46.1338" cy="68.1048" rx="6.59882" ry="6.44452" fill="url(#paint25_linear_0_1111)"/>
<ellipse cx="46.1338" cy="68.1048" rx="5.50725" ry="5.37847" fill="url(#paint26_linear_0_1111)"/>
<path d="M52.7326 67.9904C52.1514 68.7773 51.3791 69.4479 50.4387 69.9278C47.2085 71.5759 43.2219 70.3547 41.5341 67.2001C41.0428 66.2815 40.8008 65.3004 40.7841 64.3302C39.3692 66.246 39.089 68.8531 40.2853 71.0891C41.9728 74.2437 45.9596 75.4649 49.1898 73.8168C51.4791 72.6485 52.7738 70.3521 52.7326 67.9904Z" fill="url(#paint27_linear_0_1111)"/>
<ellipse cx="51.1613" cy="77.5023" rx="6.59882" ry="6.44452" fill="url(#paint28_linear_0_1111)"/>
<ellipse cx="51.1613" cy="77.5023" rx="5.50744" ry="5.37866" fill="url(#paint29_linear_0_1111)"/>
<path d="M57.7601 77.3877C57.1789 78.1746 56.4065 78.8452 55.4661 79.325C52.2359 80.9732 48.2492 79.752 46.5616 76.5974C46.0703 75.6787 45.8282 74.6977 45.8115 73.7275C44.3967 75.6433 44.1164 78.2504 45.3127 80.4864C47.0003 83.641 50.9871 84.8622 54.2172 83.2141C56.5066 82.046 57.8012 79.7496 57.7601 77.3877Z" fill="url(#paint30_linear_0_1111)"/>
<ellipse cx="51.7556" cy="58.7321" rx="6.59882" ry="6.44452" fill="url(#paint31_linear_0_1111)"/>
<ellipse cx="51.7556" cy="58.7319" rx="5.50725" ry="5.37847" fill="url(#paint32_linear_0_1111)"/>
<path d="M58.3544 58.6174C57.7731 59.4043 57.0008 60.0749 56.0604 60.5548C52.8302 62.2029 48.8435 60.9817 47.1559 57.8271C46.6645 56.9085 46.4225 55.9274 46.4058 54.9572C44.991 56.873 44.7107 59.4801 45.907 61.7161C47.5946 64.8708 51.5813 66.0919 54.8115 64.4438C57.1011 63.2755 58.3955 60.9793 58.3544 58.6174Z" fill="url(#paint33_linear_0_1111)"/>
<ellipse cx="74.0934" cy="77.2897" rx="6.59882" ry="6.44452" fill="url(#paint34_linear_0_1111)"/>
<ellipse cx="74.0934" cy="77.2897" rx="5.50725" ry="5.37847" fill="url(#paint35_linear_0_1111)"/>
<path d="M80.6922 77.1753C80.111 77.9622 79.3387 78.6329 78.3982 79.1127C75.1681 80.7608 71.1813 79.5397 69.4937 76.385C69.0024 75.4664 68.7604 74.4853 68.7437 73.5151C67.3288 75.431 67.0486 78.038 68.2448 80.2741C69.9324 83.4287 73.9192 84.6499 77.1494 83.0017C79.4387 81.8335 80.7333 79.537 80.6922 77.1753Z" fill="url(#paint36_linear_0_1111)"/>
<ellipse cx="57.8283" cy="68.032" rx="6.59882" ry="6.44452" fill="url(#paint37_linear_0_1111)"/>
<ellipse cx="57.8283" cy="68.032" rx="5.50744" ry="5.37866" fill="url(#paint38_linear_0_1111)"/>
<path d="M64.4271 67.9176C63.8459 68.7045 63.0735 69.3751 62.1331 69.855C58.903 71.5031 54.9162 70.2819 53.2286 67.1273C52.7373 66.2087 52.4954 65.2276 52.4785 64.2574C51.0637 66.1732 50.7834 68.7803 51.9797 71.0163C53.6673 74.1709 57.6541 75.3921 60.8842 73.744C63.1736 72.5757 64.468 70.2793 64.4271 67.9176Z" fill="url(#paint39_linear_0_1111)"/>
<ellipse cx="62.1312" cy="78.4864" rx="6.59882" ry="6.44452" fill="url(#paint40_linear_0_1111)"/>
<ellipse cx="62.1312" cy="78.4864" rx="5.50725" ry="5.37847" fill="url(#paint41_linear_0_1111)"/>
<path d="M68.73 78.372C68.1488 79.1589 67.3764 79.8295 66.436 80.3094C63.2059 81.9575 59.2191 80.7363 57.5315 77.5817C57.0402 76.6631 56.7984 75.682 56.7815 74.7118C55.3666 76.6276 55.0864 79.2347 56.2826 81.4707C57.9702 84.6253 61.957 85.8465 65.1871 84.1984C67.4765 83.0301 68.7711 80.7337 68.73 78.372Z" fill="url(#paint42_linear_0_1111)"/>
<ellipse cx="74.3467" cy="64.9822" rx="6.59882" ry="6.44452" fill="url(#paint43_linear_0_1111)"/>
<ellipse cx="74.3467" cy="64.9822" rx="5.50725" ry="5.37847" fill="url(#paint44_linear_0_1111)"/>
<path d="M80.9456 64.8676C80.3643 65.6545 79.592 66.3251 78.6516 66.805C75.4214 68.4531 71.4347 67.2319 69.7471 64.0773C69.2557 63.1587 69.0137 62.1776 68.997 61.2074C67.5822 63.1232 67.3019 65.7303 68.4982 67.9663C70.1858 71.1209 74.1725 72.3421 77.4027 70.694C79.6921 69.5257 80.9867 67.2295 80.9456 64.8676Z" fill="url(#paint45_linear_0_1111)"/>
<ellipse cx="68.8472" cy="54.7023" rx="6.59882" ry="6.44452" fill="url(#paint46_linear_0_1111)"/>
<path d="M71.3976 59.4694C68.7018 60.845 65.3744 59.8259 63.9661 57.1931C62.5576 54.5603 63.6012 51.3108 66.297 49.9352C68.9928 48.5596 72.3201 49.5788 73.7286 52.2115C75.137 54.8445 74.0934 58.0939 71.3976 59.4694Z" fill="url(#paint47_linear_0_1111)"/>
<path d="M75.446 54.5879C74.8648 55.3748 74.0924 56.0455 73.152 56.5253C69.9219 58.1734 65.9351 56.9522 64.2475 53.7976C63.7562 52.879 63.5143 51.8979 63.4974 50.9277C62.0826 52.8436 61.8024 55.4504 62.9986 57.6866C64.6862 60.8413 68.673 62.0625 71.9031 60.4143C74.1927 59.2461 75.4871 56.9496 75.446 54.5879Z" fill="url(#paint48_linear_0_1111)"/>
<ellipse cx="58.7988" cy="49.8365" rx="6.59882" ry="6.44452" fill="url(#paint49_linear_0_1111)"/>
<path d="M61.3491 54.6036C58.6532 55.9792 55.3259 54.9601 53.9176 52.3273C52.5091 49.6945 53.5526 46.445 56.2484 45.0694C58.9442 43.6938 62.2716 44.713 63.6801 47.3459C65.0886 49.9787 64.0451 53.2281 61.3491 54.6036Z" fill="url(#paint50_linear_0_1111)"/>
<path d="M65.3977 49.7221C64.8164 50.509 64.0441 51.1796 63.1037 51.6595C59.8735 53.3076 55.8868 52.0864 54.1992 48.9318C53.7078 48.0132 53.4658 47.0321 53.4491 46.0619C52.0343 47.9777 51.754 50.5846 52.9503 52.8208C54.6379 55.9754 58.6246 57.1966 61.8548 55.5485C64.1442 54.3802 65.4388 52.0838 65.3977 49.7221Z" fill="url(#paint51_linear_0_1111)"/>
<ellipse cx="68.6405" cy="68.9667" rx="6.59882" ry="6.44452" fill="url(#paint52_linear_0_1111)"/>
<path d="M71.1909 73.7339C68.4951 75.1095 65.1678 74.0903 63.7592 71.4575C62.3507 68.8248 63.3943 65.5752 66.0901 64.1997C68.7859 62.8241 72.1133 63.8432 73.5218 66.476C74.9303 69.109 73.8867 72.3583 71.1909 73.7339Z" fill="url(#paint53_linear_0_1111)"/>
<path d="M75.2393 68.8523C74.6581 69.6392 73.8858 70.3099 72.9454 70.7897C69.7152 72.4378 65.7284 71.2167 64.0408 68.062C63.5495 67.1434 63.3075 66.1623 63.2908 65.1921C61.8759 67.108 61.5957 69.715 62.7919 71.9511C64.4795 75.1057 68.4663 76.3269 71.6965 74.6787C73.9858 73.5105 75.2804 71.214 75.2393 68.8523Z" fill="url(#paint54_linear_0_1111)"/>
<ellipse cx="63.4319" cy="58.497" rx="6.59882" ry="6.44452" fill="url(#paint55_linear_0_1111)"/>
<ellipse cx="63.4319" cy="58.497" rx="5.50744" ry="5.37866" fill="url(#paint56_linear_0_1111)"/>
<path d="M70.0308 58.3826C69.4495 59.1695 68.6772 59.8401 67.7368 60.32C64.5066 61.9681 60.5201 60.7469 58.8323 57.5923C58.3409 56.6737 58.0989 55.6926 58.0822 54.7224C56.6674 56.6382 56.3871 59.2453 57.5834 61.4813C59.271 64.636 63.2577 65.8571 66.4879 64.209C68.7775 63.0407 70.0719 60.7443 70.0308 58.3826Z" fill="url(#paint57_linear_0_1111)"/>
<path d="M79.591 74.4522C78.7713 72.8975 77.405 71.8104 75.8481 71.2978C76.2625 71.1791 76.6712 71.018 77.0683 70.8125C80.2769 69.1513 81.519 65.2271 79.8427 62.0475C78.6414 59.7691 76.2675 58.4919 73.8377 58.5619C75.2834 56.6255 75.581 53.9649 74.3797 51.6867C72.7034 48.5071 68.7432 47.2763 65.5346 48.9374C65.39 49.0123 65.2509 49.0932 65.1145 49.177C65.037 48.3636 64.8036 47.5512 64.3984 46.7823C62.722 43.6027 58.7619 42.3719 55.5532 44.033C52.4995 45.614 51.2292 49.2443 52.5585 52.3321C51.2332 52.1353 49.8356 52.3367 48.5569 52.9986C45.3658 54.6507 44.121 58.5409 45.7566 61.711C44.814 61.7462 43.8642 61.9838 42.9726 62.4453C39.764 64.1065 38.5219 68.0307 40.1983 71.2103C40.5882 71.9499 41.103 72.5825 41.7019 73.0994C40.5695 73.0405 39.407 73.2707 38.329 73.8289C35.1204 75.4902 33.8783 79.4143 35.5546 82.5938C37.231 85.7734 41.1912 87.0042 44.3998 85.343C45.5417 84.7518 46.4329 83.8732 47.0338 82.8445C48.9932 84.3191 51.7123 84.635 54.0373 83.4312C54.8706 82.9999 55.5696 82.415 56.121 81.7311C57.8147 84.8675 61.7452 86.0742 64.9341 84.423C66.5 83.6123 67.596 82.262 68.1144 80.723C69.864 83.7118 73.6954 84.8329 76.8166 83.217C80.0252 81.556 81.2673 77.6318 79.591 74.4522Z" fill="url(#paint58_linear_0_1111)"/>
<path d="M79.5824 74.2185C78.7556 72.6754 77.3775 71.5964 75.8072 71.0877C76.2252 70.9698 76.6374 70.8099 77.0379 70.6059C80.2742 68.9572 81.527 65.0622 79.8362 61.9063C78.6246 59.6449 76.2302 58.3772 73.7794 58.4467C75.2376 56.5247 75.5378 53.884 74.3262 51.6227C72.6353 48.4669 68.641 47.2452 65.4046 48.894C65.2588 48.9683 65.1185 49.0486 64.9809 49.1317C64.9027 48.3244 64.6674 47.5181 64.2586 46.7549C62.6594 43.7702 59.0003 42.5172 55.8702 43.7848C56.0403 44.6666 55.9805 45.6026 55.6473 46.5085L55.6452 46.5141C55.5938 46.6539 55.6171 46.8008 55.6922 46.9149C55.7511 47.0044 73.501 74.656 78.1885 81.9585C80.3468 80.0333 81.0009 76.8662 79.5824 74.2185Z" fill="url(#paint59_linear_0_1111)"/>
<path d="M55.7888 46.1317L55.7909 46.1261C56.3741 44.5419 56.1223 42.8647 55.2581 41.5489C55.1411 41.3707 55.2285 41.1332 55.4351 41.068C56.961 40.5866 58.2498 39.4475 58.8331 37.8634L58.8352 37.8578C58.9331 37.5921 59.256 37.4737 59.5052 37.618C59.8217 37.8012 60.1607 37.9577 60.5204 38.0834C61.5104 38.4292 62.5331 38.4983 63.4996 38.3327C63.5692 38.3207 63.6021 38.2412 63.5617 38.1846L61.408 35.1704C61.1467 34.8047 61.0899 34.3317 61.2731 33.9233C61.9254 32.4694 61.9541 30.7592 61.2038 29.2118C61.0407 28.8754 60.8479 28.5619 60.6301 28.2728C60.4584 28.0451 60.5481 27.7207 60.8103 27.6L60.8159 27.5974C62.3786 26.8789 63.4182 25.5196 63.7626 23.9939C63.8096 23.7864 64.0426 23.6792 64.2369 23.7757C65.6654 24.4861 67.4038 24.568 68.9664 23.8496L68.972 23.8469C69.2342 23.7265 69.5484 23.8651 69.6198 24.1389C69.7107 24.4865 69.8367 24.8306 69.9997 25.1671C70.7499 26.7146 72.124 27.7797 73.6912 28.2132C74.1313 28.3348 74.4703 28.6781 74.5942 29.107L75.6156 32.642C75.6348 32.7083 75.7187 32.7342 75.7724 32.6894C76.5178 32.0676 77.1128 31.2547 77.4678 30.2906C77.5967 29.9403 77.6879 29.5858 77.7439 29.2313C77.788 28.952 78.087 28.7845 78.3599 28.8801L78.3656 28.8821C79.9923 29.4501 81.7145 29.2048 83.0656 28.3633C83.2486 28.2493 83.4924 28.3344 83.5594 28.5357C84.0537 30.0217 85.2234 31.2768 86.8499 31.8448L86.8557 31.8469C87.1286 31.9422 87.25 32.2569 87.1018 32.4997C86.9138 32.808 86.753 33.138 86.624 33.4882C86.0335 35.0921 86.2275 36.7839 87.0127 38.1663C87.2379 38.5626 87.24 39.0431 87.0123 39.4381L84.8923 43.1196C84.6117 43.607 84.822 44.2199 85.3437 44.4529C86.1474 44.8119 86.9063 45.2485 87.6096 45.7534C87.9128 45.9711 87.8975 46.4192 87.5815 46.6187C85.4593 47.9595 82.9111 48.707 80.1911 48.6276C79.8217 48.6167 79.4563 48.5908 79.0959 48.5505C77.0574 48.3225 75.078 49.2327 73.9635 50.9106C73.7663 51.2074 73.5548 51.4984 73.3285 51.7832C71.6631 53.8792 69.4513 55.3202 67.0397 56.0644C66.6805 56.1751 66.3154 55.9021 66.3356 55.5356C66.3824 54.6859 66.5184 53.838 66.7443 53.0052C66.891 52.465 66.5386 51.9172 65.9739 51.8187L61.7078 51.0736C61.25 50.9938 60.8704 50.6868 60.6991 50.2657C60.1021 48.797 58.8839 47.5759 57.2369 47.001C56.8773 46.8755 56.5136 46.7866 56.1496 46.7323C55.8633 46.6888 55.6911 46.3976 55.7888 46.1317Z" fill="url(#paint60_linear_0_1111)"/>
<path d="M56.1496 46.7313C56.5136 46.7861 56.8777 46.8753 57.2371 47.0001C58.884 47.5757 60.1024 48.7964 60.6993 50.2655C60.8708 50.6864 61.2506 50.9934 61.7078 51.0734L65.9739 51.8181C66.5388 51.9168 66.8915 52.4649 66.7445 53.0044C66.5188 53.8376 66.3822 54.6857 66.3362 55.5353C66.3154 55.9015 66.6806 56.1747 67.0397 56.0644C69.4509 55.3198 71.6635 53.8788 73.3287 51.7828C73.5548 51.4982 73.7661 51.207 73.9637 50.9103C74.5211 50.0716 75.2939 49.4241 76.1832 49.0153L83.3693 28.3374C83.2748 28.2992 83.1624 28.3037 83.066 28.3634C81.7145 29.205 79.9927 29.4499 78.3654 28.8823L78.3602 28.8799C78.087 28.7845 77.7882 28.9517 77.7441 29.2314C77.6879 29.586 77.5963 29.9403 77.4682 30.2906C77.1126 31.2547 76.5176 32.0674 75.7724 32.6897C75.7191 32.7343 75.6346 32.7088 75.6158 32.6416L74.5942 29.1074C74.5321 28.8937 74.4168 28.7007 74.2623 28.5469C74.1078 28.3912 73.9121 28.2744 73.6912 28.2137C72.124 27.7801 70.7499 26.7146 69.9997 25.1671C69.8367 24.8307 69.7105 24.4871 69.6198 24.1394C69.5483 23.8659 69.2342 23.7266 68.972 23.8473L68.9664 23.8499C67.4041 24.5684 65.6651 24.4865 64.2369 23.7757C64.0424 23.6798 63.81 23.7866 63.7624 23.9938C63.4186 25.5196 62.3784 26.8793 60.8159 27.5976L60.8103 27.6002C60.5481 27.7209 60.4588 28.0454 60.6302 28.2731C60.8483 28.5621 61.0407 28.8754 61.2038 29.2118C61.9541 30.7592 61.9256 32.4695 61.2737 33.9235C61.0897 34.332 61.1471 34.8044 61.4086 35.1706L63.5615 38.1846C63.6029 38.2416 63.5696 38.3212 63.5002 38.333C62.5331 38.4979 61.5108 38.429 60.5204 38.0838C60.1611 37.9577 59.8219 37.8014 59.5052 37.6183C59.2566 37.474 58.9329 37.5921 58.835 37.8582L58.8336 37.8636C58.2496 39.4478 56.9614 40.587 55.4353 41.0687C55.2291 41.1338 55.1409 41.3714 55.2585 41.5488C56.1227 42.8651 56.3741 44.542 55.7913 46.1266L55.7888 46.1317C55.6907 46.3974 55.8637 46.6888 56.1496 46.7313Z" fill="url(#paint61_linear_0_1111)"/>
<path d="M73.9635 50.9101C73.7663 51.207 73.5548 51.498 73.3285 51.7828C71.6631 53.8788 69.4513 55.3198 67.0397 56.0639C66.6805 56.1747 66.3154 55.9017 66.3356 55.5351C66.3824 54.6855 66.5184 53.8376 66.7443 53.0048C66.891 52.4645 66.5386 51.9168 65.9739 51.8182L61.7078 51.0732C61.25 50.9931 60.8704 50.6864 60.6991 50.2653C60.1021 48.7965 58.8839 47.5755 57.2369 47.0004C56.8773 46.8748 56.5136 46.786 56.1496 46.7317C55.8629 46.6888 55.6907 46.3977 55.7884 46.1318L55.7905 46.1262C56.3738 44.542 56.1219 42.8649 55.2577 41.549C55.1407 41.3708 55.2281 41.1334 55.4348 41.0681C56.9606 40.5867 58.2495 39.4476 58.8327 37.8636L58.8348 37.858C58.9327 37.5922 59.2556 37.4738 59.5048 37.6181C59.8213 37.8014 60.1604 37.9578 60.52 38.0836C61.51 38.4293 62.5327 38.4985 63.4992 38.3328C63.5689 38.3208 63.6018 38.2414 63.5614 38.1848L61.4076 35.1706C61.1463 34.8048 61.0895 34.3318 61.2727 33.9235C61.925 32.4695 61.9537 30.7594 61.2035 29.2119C61.0403 28.8755 60.8475 28.562 60.6297 28.2729C60.458 28.0452 60.5477 27.7208 60.81 27.6002L60.8155 27.5975C62.3782 26.8791 63.4178 25.5197 63.7622 23.994C63.7857 23.8902 63.8558 23.8115 63.9441 23.7708L76.183 49.0154C75.2943 49.4243 74.5207 50.0712 73.9635 50.9101Z" fill="url(#paint62_linear_0_1111)"/>
<path d="M56.1496 46.7313C56.5137 46.786 56.8777 46.8752 57.2371 47C58.8841 47.5757 60.1024 48.7964 60.6993 50.2655C60.8708 50.6864 61.2506 50.9933 61.7078 51.0733L65.9739 51.818C66.5388 51.9168 66.8915 52.4649 66.7445 53.0044C66.5188 53.8376 66.3822 54.6857 66.3362 55.5353C66.3154 55.9015 66.6806 56.1747 67.0397 56.0643C69.4509 55.3198 71.6635 53.8788 73.3287 51.7828C73.5548 51.4982 73.7661 51.207 73.9637 50.9103C74.5207 50.0708 75.2939 49.4241 76.1832 49.0152L55.2219 41.2799C55.1929 41.3663 55.2029 41.4645 55.2585 41.5486C56.1227 42.8649 56.3741 44.5418 55.7913 46.1264L55.7888 46.1315C55.6907 46.3974 55.8637 46.6888 56.1496 46.7313Z" fill="url(#paint63_linear_0_1111)"/>
<path d="M73.1576 42.7746L75.5471 36.2845C71.8665 34.9992 67.813 36.8632 66.4932 40.4476L73.1576 42.7746Z" fill="url(#paint64_linear_0_1111)"/>
<path d="M70.782 37.8747L73.1715 31.3846C69.4909 30.0993 65.4374 31.9633 64.1176 35.5477L70.782 37.8747Z" fill="url(#paint65_linear_0_1111)"/>
<path d="M68.4064 32.9746L70.7959 26.4844C67.1153 25.1991 63.0618 27.0631 61.742 30.6475L68.4064 32.9746Z" fill="url(#paint66_linear_0_1111)"/>
<path d="M77.6558 44.9577L83.9998 41.897C82.2642 38.4848 78.0168 37.0891 74.5132 38.7794L77.6558 44.9577Z" fill="url(#paint67_linear_0_1111)"/>
<path d="M79.0901 40.7601L85.4341 37.6995C83.6985 34.2872 79.4511 32.8916 75.9475 34.5818L79.0901 40.7601Z" fill="url(#paint68_linear_0_1111)"/>
<path d="M80.672 36.1066L85.7014 33.6803C86.076 33.4997 86.2292 33.0574 86.0437 32.6926L85.9979 32.6024C84.6473 29.9473 81.3422 28.861 78.6156 30.1763L78.523 30.2209C78.1484 30.4015 77.9952 30.8438 78.1807 31.2086L80.672 36.1066Z" fill="url(#paint69_linear_0_1111)"/>
<path d="M72.1838 48.0116L65.7261 50.8374C64.1236 47.3641 65.7157 43.2831 69.2821 41.7225L72.1838 48.0116Z" fill="url(#paint70_linear_0_1111)"/>
<path d="M67.6158 46.036L61.1581 48.8619C59.5556 45.3886 61.1477 41.3076 64.7141 39.747L67.6158 46.036Z" fill="url(#paint71_linear_0_1111)"/>
<path d="M62.9025 44.1166L57.9006 46.3053C57.5281 46.4684 57.0903 46.3065 56.9231 45.9437L56.8817 45.8541C55.6634 43.2134 56.8739 40.1106 59.5856 38.924L59.6776 38.8837C60.0501 38.7207 60.4879 38.8826 60.6553 39.2454L62.9025 44.1166Z" fill="url(#paint72_linear_0_1111)"/>
<path d="M76.7118 48.8071C76.3502 48.9266 76.0062 49.0852 75.6814 49.2799C75.5313 49.1071 75.3166 48.9926 75.0784 48.9669C74.7293 48.9268 74.3027 48.8732 74.1434 48.8371C73.5727 48.7115 73.0258 48.552 72.4871 48.3879C72.3814 48.3562 72.2785 48.3229 72.1742 48.2904L71.6489 48.4896C71.417 48.5732 71.1861 48.6615 70.9531 48.7406C70.7195 48.8217 70.4869 48.904 70.2521 48.9804C70.0183 49.0582 69.782 49.132 69.5456 49.206C69.4292 49.2428 69.3097 49.2778 69.1904 49.3128C69.0732 49.3485 68.9537 49.3833 68.8348 49.4163C68.5966 49.4843 68.3566 49.5497 68.1165 49.6119L68.1009 49.616C67.8288 49.685 67.6781 49.3179 67.9241 49.185L67.9371 49.1772C68.1555 49.061 68.3749 48.9461 68.5952 48.8358C68.7049 48.7799 68.8155 48.7254 68.9269 48.6722C69.0376 48.6176 69.1486 48.561 69.2596 48.5099C69.4832 48.4047 69.707 48.2994 69.9317 48.199C70.155 48.0959 70.3822 47.9992 70.6071 47.902C70.6676 47.8742 70.7284 47.8499 70.7897 47.8235C70.3108 47.6565 69.8398 47.4848 69.3809 47.3094C68.8021 47.0915 68.2419 46.8711 67.6962 46.6508C67.6133 46.6832 67.5309 46.7135 67.4472 46.7447C67.286 46.7997 67.1273 46.8584 66.9654 46.9122C66.8026 46.9646 66.6414 47.0196 66.4776 47.0675C66.3154 47.1179 66.1505 47.1644 65.9851 47.2098C65.9029 47.2347 65.8196 47.2551 65.737 47.2767C65.6537 47.2969 65.5712 47.3186 65.4871 47.3376C65.3191 47.379 65.1513 47.4149 64.9814 47.4506C64.9745 47.4511 64.9664 47.4526 64.9602 47.4545C64.6995 47.5043 64.56 47.1657 64.7846 47.028L64.8028 47.0169C64.951 46.9274 65.0988 46.8398 65.2483 46.7581C65.3226 46.715 65.397 46.6751 65.473 46.6347C65.5488 46.5942 65.6225 46.5529 65.7001 46.5149C65.8507 46.4379 66.003 46.3601 66.1569 46.2882C66.2575 46.2379 66.3583 46.1911 66.4601 46.1454C65.5919 45.7839 64.738 45.3484 63.9868 45.0135C63.6837 44.8801 63.392 44.7504 63.1122 44.6223L63.0247 44.6558C62.6676 44.7939 62.3002 44.9047 61.9162 44.9776C61.8692 44.9865 61.8192 44.9937 61.7715 45.0014C61.7224 45.0098 61.6745 45.0175 61.625 45.0225C61.5273 45.0373 61.4276 45.0463 61.3272 45.054C61.3135 45.0553 61.2997 45.0564 61.2874 45.057C61.0578 45.0701 60.9437 44.7888 61.1194 44.6455C61.1296 44.6357 61.1392 44.6281 61.149 44.6206C61.2277 44.5587 61.306 44.4991 61.3866 44.4433C61.4261 44.4141 61.4673 44.3875 61.5077 44.3595C61.5489 44.3329 61.5879 44.3058 61.6299 44.2805C61.7392 44.2126 61.8504 44.1506 61.9612 44.0906C61.3043 43.7872 60.7395 43.5112 60.2768 43.2869C59.8329 43.0723 59.8906 42.9436 60.3545 43.1124C60.839 43.2882 61.4328 43.5043 62.1165 43.7526C62.0718 43.6257 62.0285 43.4979 61.9926 43.3675C61.9677 43.2745 61.9439 43.1829 61.9231 43.0875C61.9031 42.9935 61.8858 42.8979 61.871 42.8006C61.8696 42.7873 61.8675 42.7725 61.8656 42.7579C61.8356 42.5372 62.1149 42.4054 62.275 42.5651C62.285 42.575 62.2949 42.5849 62.3056 42.596C62.3739 42.6661 62.4405 42.7392 62.5044 42.8137C62.5675 42.887 62.6279 42.962 62.6872 43.0377C62.9208 43.3441 63.1171 43.666 63.2848 44.0033L63.3901 44.2139C63.6522 44.3086 63.9221 44.4071 64.2015 44.5089C64.9981 44.795 65.8981 45.1833 66.809 45.5118C66.8506 45.5257 66.895 45.5412 66.9373 45.5562C66.9166 45.5122 66.8958 45.4681 66.8775 45.4226C66.8123 45.2691 66.7445 45.1172 66.6833 44.9614C66.6208 44.8063 66.561 44.6498 66.5023 44.4922C66.4436 44.3348 66.3886 44.177 66.3351 44.0164C66.2825 43.8571 66.2325 43.6962 66.1854 43.5337C66.1831 43.5245 66.1796 43.5161 66.1773 43.5067C66.1072 43.2571 66.4444 43.0991 66.6019 43.3066C66.6081 43.3135 66.6131 43.3212 66.62 43.3293C66.7195 43.4655 66.82 43.6028 66.9164 43.7428C67.012 43.8813 67.1059 44.0228 67.1961 44.1646C67.2879 44.3056 67.377 44.4482 67.4621 44.593C67.5498 44.7364 67.6316 44.8816 67.7153 45.0272C67.7574 45.099 67.7957 45.1732 67.8352 45.2466L67.956 45.4674L68.184 45.9134L68.2375 46.0172C68.7093 46.1814 69.1902 46.3487 69.6803 46.516C70.1967 46.6903 70.7228 46.8659 71.2556 47.0374L71.2427 47.0115C71.1929 46.9019 71.1401 46.7939 71.0909 46.6822C70.9924 46.4623 70.8904 46.2424 70.7972 46.0193C70.6993 45.7972 70.606 45.574 70.5154 45.3491C70.4234 45.1252 70.3341 44.8996 70.2473 44.6725C70.1613 44.4467 70.0774 44.2179 69.9966 43.9889L69.9897 43.9666C69.8998 43.7059 70.2641 43.5335 70.4174 43.7627L70.4305 43.7831C70.5663 43.9876 70.6987 44.1924 70.8286 44.3989C70.9585 44.6052 71.0847 44.8119 71.2094 45.0216C71.3331 45.2298 71.4565 45.4402 71.5748 45.6518C71.6972 45.8609 71.8119 46.0747 71.929 46.2869C71.9877 46.3929 72.0428 46.4994 72.1001 46.6064L72.2692 46.9287L72.5255 47.4301C72.6062 47.4539 72.6854 47.4785 72.7661 47.5023C73.2929 47.6561 73.8263 47.7972 74.3566 47.9134C74.6156 47.9691 74.8732 48.0169 75.122 48.0451L72.6883 43.0264L72.1682 42.8207L71.7909 42.665C71.6647 42.6121 71.5377 42.5615 71.4132 42.5059C71.1632 42.3987 70.9106 42.2932 70.662 42.1798C70.4124 42.0706 70.1638 41.9572 69.9158 41.8419C69.6691 41.7258 69.4215 41.6083 69.1771 41.487C68.9314 41.3667 68.6874 41.2434 68.4432 41.1169L68.4191 41.1049C68.1696 40.9728 68.3214 40.6012 68.5966 40.6737L68.6229 40.6809C68.8883 40.7523 69.1519 40.8265 69.4157 40.9039C69.6795 40.9814 69.9408 41.0605 70.2023 41.143C70.4638 41.2254 70.7241 41.3086 70.9827 41.3982C71.2425 41.4835 71.4994 41.5758 71.7582 41.6654C71.8879 41.7091 72.0151 41.7578 72.143 41.8043L72.2298 41.835C72.0624 41.4585 71.8921 41.0802 71.7191 40.7035C71.4105 40.0285 71.1024 39.3547 70.799 38.6908C70.7726 38.6323 70.7449 38.5748 70.7187 38.5163L70.6912 38.5047L70.1667 38.2946L69.906 38.185C69.82 38.1468 69.732 38.1115 69.6472 38.0726C69.4755 37.9942 69.3027 37.9198 69.1328 37.8387C68.9616 37.7583 68.7922 37.6749 68.6227 37.5915C68.4538 37.5061 68.2875 37.4191 68.1209 37.3288C67.9529 37.2392 67.7882 37.1461 67.6239 37.0509C67.615 37.0457 67.6071 37.0415 67.5983 37.0363C67.3689 36.8989 67.5102 36.5534 67.774 36.6079C67.7832 36.6111 67.793 36.6122 67.8028 36.6133C67.9891 36.6546 68.1748 36.698 68.3595 36.7456C68.5434 36.7919 68.7276 36.8414 68.9092 36.8927C69.0916 36.9452 69.2727 36.9984 69.453 37.0558C69.635 37.1103 69.8121 37.1714 69.9916 37.2308C70.0501 37.2484 70.1055 37.2698 70.1623 37.2904C70.078 37.1043 69.9947 36.9194 69.9115 36.7378C69.6268 36.1031 69.3503 35.4899 69.0886 34.9086C68.8688 34.4186 68.6616 33.9513 68.4646 33.5113L68.2256 33.4187C67.8298 33.2652 67.4451 33.0838 67.079 32.8629C66.9856 32.8078 66.895 32.7512 66.8053 32.6903C66.7143 32.6303 66.6266 32.5666 66.5392 32.5009C66.5288 32.493 66.5182 32.4851 66.5071 32.4761C66.3216 32.3335 66.4409 32.0419 66.6772 32.0618C66.6905 32.0625 66.7037 32.0635 66.7178 32.0655C66.8284 32.0766 66.9364 32.0892 67.0441 32.1071C67.1525 32.1231 67.2589 32.1418 67.3643 32.1647C67.5544 32.2037 67.7413 32.2516 67.9267 32.3058C67.6612 31.7125 67.4351 31.2069 67.2623 30.8108C67.0003 30.2173 67.1138 30.1645 67.4186 30.7394C67.6231 31.12 67.8806 31.6119 68.1834 32.1896C68.2577 32.0155 68.3379 31.8448 68.4288 31.6767C68.4513 31.6295 68.4803 31.5836 68.505 31.5369C68.5317 31.4906 68.5573 31.4451 68.5862 31.3994C68.6406 31.3081 68.6993 31.2178 68.7601 31.1278C68.7674 31.1164 68.7742 31.107 68.7809 31.0977C68.9154 30.9067 69.2231 31.0019 69.2181 31.2332C69.2185 31.2453 69.2169 31.257 69.2173 31.2689C69.2136 31.3773 69.2084 31.4831 69.1977 31.5886C69.1938 31.6422 69.1869 31.6943 69.1809 31.7474C69.1754 31.7985 69.1702 31.853 69.1611 31.9044C69.1028 32.32 69.0024 32.724 68.875 33.1196L68.7972 33.3595C69.0208 33.7869 69.2585 34.2395 69.5082 34.7168C69.8019 35.2825 70.1134 35.8795 70.4349 36.4973C70.5267 36.6754 70.62 36.856 70.7134 37.0367C70.7332 36.9823 70.7534 36.9257 70.7753 36.8718C70.8415 36.699 70.9067 36.5251 70.9779 36.3546C71.0484 36.1829 71.1217 36.0129 71.1961 35.842C71.2311 35.7572 71.2716 35.6726 71.3098 35.5874C71.3491 35.5034 71.3874 35.4183 71.4288 35.335C71.5084 35.1665 71.5923 34.9988 71.6772 34.8326C71.7495 34.695 71.818 34.5492 72.0712 34.7837C72.122 34.829 72.1473 34.897 72.1369 34.9634C72.1359 34.9675 72.1361 34.9709 72.1351 34.975C72.1068 35.1584 72.0749 35.3423 72.0403 35.5242C72.0249 35.6168 72.0043 35.7071 71.9858 35.7978C71.9673 35.8885 71.9498 35.9807 71.9285 36.0697C71.8873 36.2504 71.8463 36.4308 71.8009 36.6105C71.759 36.7899 71.7085 36.9671 71.6602 37.145C71.6127 37.3241 71.5581 37.5005 71.5055 37.6774C71.453 37.8542 71.3962 38.0302 71.3406 38.2052L71.3316 38.2337C71.3606 38.2905 71.3895 38.3473 71.4197 38.4033C71.7532 39.0545 72.0911 39.7154 72.4303 40.3756C72.6193 40.7461 72.8115 41.113 73.0037 41.4799C73.0578 41.3251 73.1117 41.1703 73.1698 41.0167C73.2615 40.7646 73.3522 40.5135 73.4492 40.2637C73.544 40.0136 73.6443 39.7634 73.7441 39.5155C73.7932 39.3903 73.8453 39.2666 73.8975 39.1431C73.9487 39.0183 74.0008 38.8948 74.0551 38.7719C74.1605 38.5242 74.2696 38.2793 74.3816 38.033L74.3885 38.0182C74.5053 37.7654 74.8975 37.8874 74.8421 38.1597L74.8394 38.1754C74.784 38.4389 74.7268 38.6999 74.6664 38.9614C74.6371 39.0922 74.606 39.2226 74.5725 39.3526C74.5411 39.4831 74.5121 39.614 74.4765 39.7433C74.4109 40.0025 74.3433 40.2609 74.2721 40.5199C74.2036 40.7772 74.1274 41.0339 74.0533 41.291C73.9793 41.5481 73.9002 41.803 73.8219 42.0591L73.6564 42.5803L76.0899 47.599C76.2244 47.3938 76.3508 47.1704 76.4711 46.9403C76.7147 46.4673 76.9433 45.9769 77.1549 45.4826C77.1886 45.4072 77.2182 45.331 77.2511 45.2545L77.0158 44.7457L76.8692 44.4133C76.8205 44.3029 76.7707 44.1933 76.7247 44.0813C76.6302 43.8588 76.5334 43.636 76.4449 43.4117C76.3529 43.1878 76.2637 42.9622 76.1776 42.7364C76.0909 42.5092 76.0064 42.2825 75.9258 42.0535C75.8438 41.8253 75.7666 41.5959 75.6899 41.3645L75.6829 41.3422C75.599 41.0796 75.9669 40.9157 76.1172 41.1486L76.1293 41.1677C76.26 41.3753 76.3885 41.5826 76.513 41.7921C76.6368 42.0005 76.7601 42.2107 76.8784 42.4223C76.9991 42.6342 77.1163 42.8465 77.2308 43.0604C77.3479 43.2727 77.4578 43.4876 77.5696 43.7029C77.6269 43.8099 77.6802 43.9192 77.7341 44.0264L77.7462 44.0509C77.9481 43.5412 78.1436 43.0356 78.3318 42.5358C78.5121 42.0606 78.686 41.5925 78.8546 41.1332L78.8057 41.0283L78.5988 40.5729L78.4994 40.3428C78.4665 40.2654 78.433 40.1901 78.4026 40.1112C78.3408 39.9573 78.275 39.8026 78.2184 39.6457C78.1586 39.489 78.102 39.3322 78.0481 39.1737C77.9929 39.0159 77.9417 38.8559 77.8919 38.6949C77.8421 38.5339 77.7968 38.372 77.753 38.2092C77.7507 38.2 77.7472 38.1916 77.7449 38.1822C77.6816 37.932 78.0222 37.7791 78.1744 37.9895C78.1801 37.9985 78.185 38.0062 78.1911 38.013C78.2889 38.152 78.3853 38.2918 78.4784 38.432C78.5709 38.5742 78.6614 38.7159 78.7499 38.8605C78.8376 39.0039 78.9227 39.1487 79.0045 39.294C79.0897 39.4388 79.1674 39.5865 79.2486 39.7338C79.2721 39.7761 79.2935 39.8181 79.3156 39.8614C79.3312 39.8202 79.3458 39.7776 79.3601 39.7373C79.6808 38.8442 79.944 37.9208 80.2223 37.1403C80.3196 36.8656 80.4149 36.5991 80.5057 36.3424L80.4064 36.1299C80.2459 35.7898 80.1141 35.4378 80.02 35.0681C79.9973 34.9757 79.9752 34.8811 79.9587 34.7867C79.94 34.6918 79.9238 34.5953 79.9113 34.4986C79.91 34.4853 79.9081 34.4705 79.9067 34.4572C79.8829 34.2346 80.1642 34.1087 80.321 34.2721C80.331 34.282 80.341 34.2919 80.3495 34.3026C80.4174 34.3748 80.4826 34.4486 80.5438 34.5249C80.6063 34.6002 80.6643 34.6768 80.7222 34.7533C80.8034 34.8635 80.8771 34.9763 80.9483 35.0908C81.1855 34.4199 81.3916 33.8371 81.5607 33.3614C81.721 32.9034 81.8607 32.9429 81.748 33.4127C81.6337 33.9029 81.4938 34.5043 81.3168 35.1899C81.4353 35.1448 81.5544 35.1011 81.677 35.0623C81.7233 35.0468 81.7699 35.0344 81.818 35.0213C81.8651 35.0068 81.9109 34.9933 81.9598 34.9815C82.0553 34.9574 82.1524 34.9358 82.2525 34.9161C82.264 34.9145 82.2771 34.9118 82.29 34.9094C82.5171 34.8695 82.6664 35.1348 82.5092 35.2988C82.5003 35.3078 82.4915 35.3166 82.4834 35.3267C82.4126 35.3979 82.3414 35.4658 82.2685 35.531C82.2334 35.5645 82.1969 35.5954 82.159 35.6273C82.1224 35.6582 82.0845 35.6901 82.0472 35.7197C81.7457 35.9622 81.4235 36.1694 81.0878 36.3495L81.0079 36.3924C80.931 36.6849 80.8473 36.9868 80.762 37.3003C80.5494 38.0784 80.3529 38.9953 80.0872 39.8779C80.188 39.831 80.2898 39.7855 80.391 39.7418C80.5467 39.6725 80.7047 39.6069 80.8615 39.5423C80.9402 39.5089 81.0212 39.4793 81.1007 39.4473C81.1809 39.4163 81.2611 39.3856 81.341 39.3568C81.5022 39.2964 81.6648 39.2406 81.829 39.1873C81.8363 39.1847 81.8438 39.1819 81.8511 39.1793C82.1036 39.0993 82.2821 39.4193 82.0772 39.5822C82.0714 39.5874 82.0656 39.5927 82.0604 39.5959C81.925 39.7025 81.7891 39.8059 81.651 39.9054C81.5817 39.9562 81.5128 40.0049 81.4418 40.0533C81.3716 40.1028 81.3037 40.1528 81.2317 40.1998C81.0903 40.2943 80.95 40.3878 80.8061 40.4785C80.6639 40.5716 80.5174 40.6584 80.3731 40.7457C80.2284 40.8351 80.0797 40.9179 79.9337 41.0026C79.8573 41.0453 79.7801 41.0866 79.7037 41.1293C79.53 41.6802 79.3491 42.2428 79.1544 42.8152C79.0008 43.2727 78.8373 43.7342 78.6668 44.2019C78.7256 44.1718 78.7832 44.1422 78.8415 44.1141C79.0643 44.0076 79.2846 43.8972 79.5086 43.7955C79.7301 43.6898 79.9562 43.5884 80.1809 43.488C80.2939 43.4374 80.4074 43.39 80.5211 43.3405C80.6337 43.292 80.7476 43.2425 80.8621 43.1943C81.0901 43.099 81.3206 43.0073 81.5505 42.9177L81.5654 42.9123C81.8282 42.8117 82.022 43.1582 81.794 43.3191L81.7822 43.3263C81.58 43.4679 81.3762 43.6072 81.1709 43.7438C81.0693 43.8124 80.9646 43.8791 80.8623 43.9463C80.7589 44.0123 80.6552 44.0803 80.5511 44.1452C80.3425 44.2767 80.1343 44.4062 79.9236 44.5317C79.7133 44.6607 79.5011 44.7838 79.2889 44.9069C79.0774 45.0313 78.8619 45.1492 78.6475 45.2718L78.1565 45.5388C78.1166 45.6389 78.0762 45.7378 78.0343 45.8373C77.8234 46.3472 77.6015 46.8599 77.3385 47.3675C77.2648 47.5113 77.0364 47.8653 76.8459 48.1538C76.7164 48.3495 76.6714 48.5839 76.7118 48.8071Z" fill="url(#paint73_linear_0_1111)"/>
<path d="M84.2917 61.3371L84.751 59.4025C84.0559 59.1389 83.4674 58.6661 83.0675 58.0322L81.25 55.1506L79.5486 56.191L81.3661 59.0725C82.049 60.1547 83.0764 60.9457 84.2917 61.3371Z" fill="url(#paint74_linear_0_1111)"/>
<path d="M76.1227 47.9331L75.3867 48.4124L78.5 54.6351L80.0689 53.6545L76.1227 47.9331Z" fill="url(#paint75_linear_0_1111)"/>
<path d="M59.4996 57.5744C57.4126 52.9467 52.3727 50.4667 47.4718 51.7C46.221 52.0148 44.8564 52.1993 43.4274 52.2235C41.9974 52.2478 40.6312 52.1093 39.3784 51.8364C34.5627 50.7876 29.5812 53.3117 27.4771 57.892C26.3952 60.2468 25.7927 63.0843 25.7988 66.4353C25.8111 73.2899 28.3643 79.3648 32.3509 83.3099C34.7705 85.7041 38.0303 86.4537 40.9842 85.1932C41.7544 84.8646 42.5991 84.676 43.4857 84.661C44.3723 84.6459 45.2178 84.806 45.989 85.1085C48.9472 86.2687 52.2042 85.4089 54.6148 82.9329C58.5869 78.8533 61.1182 72.6923 61.1059 65.8375C61.1002 62.5932 60.5257 59.8495 59.4996 57.5744Z" fill="url(#paint76_linear_0_1111)"/>
<ellipse cx="50.7205" cy="71.9427" rx="1.98019" ry="2.02633" transform="rotate(20 50.7205 71.9427)" fill="url(#paint77_linear_0_1111)"/>
<ellipse cx="51.2713" cy="77.7633" rx="1.10027" ry="1.12591" transform="rotate(20 51.2713 77.7633)" fill="url(#paint78_linear_0_1111)"/>
<ellipse cx="48.6721" cy="75.4426" rx="1.48752" ry="1.52218" transform="rotate(20 48.6721 75.4426)" fill="url(#paint79_linear_0_1111)"/>
<path d="M59.4997 57.5743C58.3066 54.929 56.1478 52.9872 53.6025 52.038C54.5907 52.9661 55.4135 54.0996 56.0018 55.404C57.0278 57.6791 57.6023 60.4228 57.608 63.6672C57.6204 70.5218 55.0891 76.6827 51.117 80.7624C48.7064 83.2383 45.4494 84.0981 42.4912 82.9379C41.72 82.6354 40.8744 82.4755 39.9878 82.4906C39.1013 82.5056 38.2563 82.6941 37.4863 83.0228C35.7917 83.7459 33.9965 83.8064 32.3168 83.2751C32.3284 83.2865 32.3395 83.2986 32.3509 83.3099C34.7705 85.7041 38.0303 86.4537 40.9842 85.1932C41.7544 84.8646 42.5991 84.676 43.4857 84.661C44.3723 84.6459 45.2178 84.806 45.989 85.1085C48.9472 86.2687 52.2042 85.4089 54.6148 82.9329C58.5869 78.8533 61.1182 72.6923 61.1059 65.8375C61.1002 62.5932 60.5258 59.8493 59.4997 57.5743Z" fill="url(#paint80_linear_0_1111)"/>
<path d="M43.0642 55.0751C42.4052 55.0887 41.8809 54.5405 41.8932 53.8507C41.9805 48.9448 45.8649 44.8751 50.5516 44.7786C51.2106 44.7649 51.735 45.3133 51.7228 46.003C51.7105 46.6928 51.1662 47.2632 50.5072 47.2769C47.1365 47.3463 44.343 50.2733 44.2801 53.8016C44.2675 54.4913 43.7232 55.0615 43.0642 55.0751Z" fill="url(#paint81_linear_0_1111)"/>
<path d="M43.3806 52.5108C41.9353 52.5473 40.5558 52.4155 39.292 52.1445C39.2254 52.1303 39.1585 52.1192 39.0918 52.1063C38.5766 52.5521 38.2748 53.0745 38.2714 53.6277C38.2623 55.1609 40.5395 56.3462 43.3579 56.2754C46.1763 56.2046 48.4683 54.9044 48.4776 53.3712C48.4809 52.8181 48.1853 52.3107 47.6753 51.8907C47.6075 51.9071 47.5395 51.9215 47.4718 51.9394C46.2055 52.2735 44.8249 52.4745 43.3806 52.5108Z" fill="url(#paint82_linear_0_1111)"/>
<defs>
<linearGradient id="paint0_linear_0_1111" x1="44.3266" y1="48.2453" x2="54.1574" y2="45.2876" gradientUnits="userSpaceOnUse">
<stop stop-color="#FF931E"/>
<stop offset="0.569" stop-color="#FF760E"/>
<stop offset="1" stop-color="#FF5D00"/>
</linearGradient>
<linearGradient id="paint1_linear_0_1111" x1="55.9186" y1="31.3872" x2="54.7275" y2="18.1181" gradientUnits="userSpaceOnUse">
<stop stop-color="#FF931E" stop-opacity="0.01"/>
<stop offset="1" stop-color="#FF5D00"/>
</linearGradient>
<linearGradient id="paint2_linear_0_1111" x1="32.6397" y1="23.4182" x2="36.3155" y2="20.0116" gradientUnits="userSpaceOnUse">
<stop stop-color="#9EB644"/>
<stop offset="1" stop-color="#738611"/>
</linearGradient>
<linearGradient id="paint3_linear_0_1111" x1="45.1733" y1="17.259" x2="41.0331" y2="16.6052" gradientUnits="userSpaceOnUse">
<stop stop-color="#9EB644"/>
<stop offset="1" stop-color="#738611"/>
</linearGradient>
<linearGradient id="paint4_linear_0_1111" x1="35.9707" y1="18.0759" x2="39.4889" y2="16.4571" gradientUnits="userSpaceOnUse">
<stop stop-color="#9EB644"/>
<stop offset="1" stop-color="#738611"/>
</linearGradient>
<linearGradient id="paint5_linear_0_1111" x1="36.5265" y1="22.3526" x2="44.9995" y2="26.3006" gradientUnits="userSpaceOnUse">
<stop stop-color="#9EB644"/>
<stop offset="1" stop-color="#738611"/>
</linearGradient>
<linearGradient id="paint6_linear_0_1111" x1="11.8644" y1="41.9778" x2="23.1413" y2="58.3712" gradientUnits="userSpaceOnUse">
<stop stop-color="#FFA325"/>
<stop offset="1" stop-color="#5A6313"/>
</linearGradient>
<linearGradient id="paint7_linear_0_1111" x1="1.12759" y1="71.21" x2="8.81346" y2="71.8243" gradientUnits="userSpaceOnUse">
<stop stop-color="#FFD945"/>
<stop offset="0.3043" stop-color="#FFCD3E"/>
<stop offset="0.8558" stop-color="#FFAD2B"/>
<stop offset="1" stop-color="#FFA325"/>
</linearGradient>
<linearGradient id="paint8_linear_0_1111" x1="39.9019" y1="74.5924" x2="50.696" y2="76.0669" gradientUnits="userSpaceOnUse">
<stop stop-color="#FFD945"/>
<stop offset="0.3043" stop-color="#FFCD3E"/>
<stop offset="0.8558" stop-color="#FFAD2B"/>
<stop offset="1" stop-color="#FFA325"/>
</linearGradient>
<radialGradient id="paint9_radial_0_1111" cx="0" cy="0" r="1" gradientUnits="userSpaceOnUse" gradientTransform="translate(41.3631 64.7398) scale(9.08768 14.9195)">
<stop stop-color="#FF7044"/>
<stop offset="0.3496" stop-color="#FC7048" stop-opacity="0.65"/>
<stop offset="0.7144" stop-color="#F37155" stop-opacity="0.286"/>
<stop offset="1" stop-color="#E87264" stop-opacity="0.01"/>
</radialGradient>
<linearGradient id="paint10_linear_0_1111" x1="3.80683" y1="74.0859" x2="18.5816" y2="75.7418" gradientUnits="userSpaceOnUse">
<stop stop-color="#FFD945"/>
<stop offset="0.3043" stop-color="#FFCD3E"/>
<stop offset="0.8558" stop-color="#FFAD2B"/>
<stop offset="1" stop-color="#FFA325"/>
</linearGradient>
<linearGradient id="paint11_linear_0_1111" x1="29.1097" y1="75.6965" x2="44.2305" y2="77.8171" gradientUnits="userSpaceOnUse">
<stop stop-color="#FFD945"/>
<stop offset="0.3043" stop-color="#FFCD3E"/>
<stop offset="0.8558" stop-color="#FFAD2B"/>
<stop offset="1" stop-color="#FFA325"/>
</linearGradient>
<radialGradient id="paint12_radial_0_1111" cx="0" cy="0" r="1" gradientUnits="userSpaceOnUse" gradientTransform="translate(31.2735 64.4497) scale(12.1382 18.6101)">
<stop stop-color="#FF7044"/>
<stop offset="0.3433" stop-color="#FB7049" stop-opacity="0.657"/>
<stop offset="0.775" stop-color="#F07159" stop-opacity="0.225"/>
<stop offset="1" stop-color="#E87264" stop-opacity="0.01"/>
</radialGradient>
<linearGradient id="paint13_linear_0_1111" x1="11.0684" y1="78.0331" x2="33.4827" y2="81.0664" gradientUnits="userSpaceOnUse">
<stop stop-color="#FFD945"/>
<stop offset="0.3043" stop-color="#FFCD3E"/>
<stop offset="0.8558" stop-color="#FFAD2B"/>
<stop offset="1" stop-color="#FFA325"/>
</linearGradient>
<linearGradient id="paint14_linear_0_1111" x1="20.0994" y1="72.7724" x2="23.4822" y2="76.2291" gradientUnits="userSpaceOnUse">
<stop stop-color="#E87264" stop-opacity="0.01"/>
<stop offset="1" stop-color="#FF7044"/>
</linearGradient>
<linearGradient id="paint15_linear_0_1111" x1="21.8218" y1="78.4366" x2="23.3775" y2="80.0263" gradientUnits="userSpaceOnUse">
<stop stop-color="#E87264" stop-opacity="0.01"/>
<stop offset="1" stop-color="#FF7044"/>
</linearGradient>
<linearGradient id="paint16_linear_0_1111" x1="17.774" y1="76.3154" x2="20.8658" y2="79.4746" gradientUnits="userSpaceOnUse">
<stop stop-color="#E87264" stop-opacity="0.01"/>
<stop offset="1" stop-color="#FF7044"/>
</linearGradient>
<linearGradient id="paint17_linear_0_1111" x1="31.838" y1="53.1595" x2="14.8452" y2="44.503" gradientUnits="userSpaceOnUse">
<stop stop-color="#FFD945" stop-opacity="0.01"/>
<stop offset="1" stop-color="#FBED21"/>
</linearGradient>
<linearGradient id="paint18_linear_0_1111" x1="27.3786" y1="85.6483" x2="45.6369" y2="93.6976" gradientUnits="userSpaceOnUse">
<stop stop-color="#E87264" stop-opacity="0.01"/>
<stop offset="1" stop-color="#FF7044"/>
</linearGradient>
<linearGradient id="paint19_linear_0_1111" x1="29.9345" y1="41.2545" x2="27.6971" y2="41.2545" gradientUnits="userSpaceOnUse">
<stop stop-color="#5A6313" stop-opacity="0.01"/>
<stop offset="1" stop-color="#544F43"/>
</linearGradient>
<linearGradient id="paint20_linear_0_1111" x1="23.1909" y1="42.9366" x2="25.5539" y2="43.3172" gradientUnits="userSpaceOnUse">
<stop stop-color="#5A6313" stop-opacity="0.01"/>
<stop offset="1" stop-color="#544F43"/>
</linearGradient>
<linearGradient id="paint21_linear_0_1111" x1="99.424" y1="70.8542" x2="97.122" y2="50.2175" gradientUnits="userSpaceOnUse">
<stop stop-color="#FFA325"/>
<stop offset="1" stop-color="#5A6313"/>
</linearGradient>
<linearGradient id="paint22_linear_0_1111" x1="36.6484" y1="74.2467" x2="33.1859" y2="85.5534" gradientUnits="userSpaceOnUse">
<stop stop-color="#C4D143"/>
<stop offset="1" stop-color="#7C8A1A"/>
</linearGradient>
<linearGradient id="paint23_linear_0_1111" x1="45.1187" y1="81.3645" x2="47.538" y2="73.4641" gradientUnits="userSpaceOnUse">
<stop stop-color="#C4D143" stop-opacity="0.01"/>
<stop offset="1" stop-color="#FFED82"/>
</linearGradient>
<linearGradient id="paint24_linear_0_1111" x1="33.2004" y1="88.3262" x2="51.257" y2="101.008" gradientUnits="userSpaceOnUse">
<stop stop-color="#7C8A1A" stop-opacity="0.01"/>
<stop offset="0.3152" stop-color="#768319" stop-opacity="0.315"/>
<stop offset="0.7806" stop-color="#646F15" stop-opacity="0.781"/>
<stop offset="1" stop-color="#5A6313"/>
</linearGradient>
<linearGradient id="paint25_linear_0_1111" x1="41.3211" y1="62.9556" x2="37.8586" y2="74.2622" gradientUnits="userSpaceOnUse">
<stop stop-color="#C4D143"/>
<stop offset="1" stop-color="#7C8A1A"/>
</linearGradient>
<linearGradient id="paint26_linear_0_1111" x1="49.7914" y1="70.0734" x2="52.2107" y2="62.173" gradientUnits="userSpaceOnUse">
<stop stop-color="#C4D143" stop-opacity="0.01"/>
<stop offset="1" stop-color="#FFED82"/>
</linearGradient>
<linearGradient id="paint27_linear_0_1111" x1="37.8731" y1="77.0352" x2="55.93" y2="89.7174" gradientUnits="userSpaceOnUse">
<stop stop-color="#7C8A1A" stop-opacity="0.01"/>
<stop offset="0.3152" stop-color="#768319" stop-opacity="0.315"/>
<stop offset="0.7806" stop-color="#646F15" stop-opacity="0.781"/>
<stop offset="1" stop-color="#5A6313"/>
</linearGradient>
<linearGradient id="paint28_linear_0_1111" x1="46.3475" y1="72.35" x2="42.885" y2="83.6566" gradientUnits="userSpaceOnUse">
<stop stop-color="#C4D143"/>
<stop offset="1" stop-color="#7C8A1A"/>
</linearGradient>
<linearGradient id="paint29_linear_0_1111" x1="54.8179" y1="79.4676" x2="57.2371" y2="71.5673" gradientUnits="userSpaceOnUse">
<stop stop-color="#C4D143" stop-opacity="0.01"/>
<stop offset="1" stop-color="#FFED82"/>
</linearGradient>
<linearGradient id="paint30_linear_0_1111" x1="42.8996" y1="86.4295" x2="60.9564" y2="99.1115" gradientUnits="userSpaceOnUse">
<stop stop-color="#7C8A1A" stop-opacity="0.01"/>
<stop offset="0.3152" stop-color="#768319" stop-opacity="0.315"/>
<stop offset="0.7806" stop-color="#646F15" stop-opacity="0.781"/>
<stop offset="1" stop-color="#5A6313"/>
</linearGradient>
<linearGradient id="paint31_linear_0_1111" x1="46.9407" y1="53.5852" x2="43.4781" y2="64.8919" gradientUnits="userSpaceOnUse">
<stop stop-color="#C4D143"/>
<stop offset="1" stop-color="#7C8A1A"/>
</linearGradient>
<linearGradient id="paint32_linear_0_1111" x1="55.4111" y1="60.7031" x2="57.8304" y2="52.8027" gradientUnits="userSpaceOnUse">
<stop stop-color="#C4D143" stop-opacity="0.01"/>
<stop offset="1" stop-color="#FFED82"/>
</linearGradient>
<linearGradient id="paint33_linear_0_1111" x1="43.4928" y1="67.6647" x2="61.5494" y2="80.347" gradientUnits="userSpaceOnUse">
<stop stop-color="#7C8A1A" stop-opacity="0.01"/>
<stop offset="0.3152" stop-color="#768319" stop-opacity="0.315"/>
<stop offset="0.7806" stop-color="#646F15" stop-opacity="0.781"/>
<stop offset="1" stop-color="#5A6313"/>
</linearGradient>
<linearGradient id="paint34_linear_0_1111" x1="69.2727" y1="72.1364" x2="65.8102" y2="83.4431" gradientUnits="userSpaceOnUse">
<stop stop-color="#C4D143"/>
<stop offset="1" stop-color="#7C8A1A"/>
</linearGradient>
<linearGradient id="paint35_linear_0_1111" x1="77.7428" y1="79.2541" x2="80.1622" y2="71.3539" gradientUnits="userSpaceOnUse">
<stop stop-color="#C4D143" stop-opacity="0.01"/>
<stop offset="1" stop-color="#FFED82"/>
</linearGradient>
<linearGradient id="paint36_linear_0_1111" x1="65.8246" y1="86.2159" x2="83.8815" y2="98.8981" gradientUnits="userSpaceOnUse">
<stop stop-color="#7C8A1A" stop-opacity="0.01"/>
<stop offset="0.3152" stop-color="#768319" stop-opacity="0.315"/>
<stop offset="0.7806" stop-color="#646F15" stop-opacity="0.781"/>
<stop offset="1" stop-color="#5A6313"/>
</linearGradient>
<linearGradient id="paint37_linear_0_1111" x1="53.012" y1="62.8822" x2="49.5495" y2="74.1889" gradientUnits="userSpaceOnUse">
<stop stop-color="#C4D143"/>
<stop offset="1" stop-color="#7C8A1A"/>
</linearGradient>
<linearGradient id="paint38_linear_0_1111" x1="61.4821" y1="70" x2="63.9015" y2="62.0998" gradientUnits="userSpaceOnUse">
<stop stop-color="#C4D143" stop-opacity="0.01"/>
<stop offset="1" stop-color="#FFED82"/>
</linearGradient>
<linearGradient id="paint39_linear_0_1111" x1="49.5639" y1="76.9617" x2="67.6208" y2="89.6439" gradientUnits="userSpaceOnUse">
<stop stop-color="#7C8A1A" stop-opacity="0.01"/>
<stop offset="0.3152" stop-color="#768319" stop-opacity="0.315"/>
<stop offset="0.7806" stop-color="#646F15" stop-opacity="0.781"/>
<stop offset="1" stop-color="#5A6313"/>
</linearGradient>
<linearGradient id="paint40_linear_0_1111" x1="57.3142" y1="73.3333" x2="53.8517" y2="84.6399" gradientUnits="userSpaceOnUse">
<stop stop-color="#C4D143"/>
<stop offset="1" stop-color="#7C8A1A"/>
</linearGradient>
<linearGradient id="paint41_linear_0_1111" x1="65.7843" y1="80.4509" x2="68.2037" y2="72.5507" gradientUnits="userSpaceOnUse">
<stop stop-color="#C4D143" stop-opacity="0.01"/>
<stop offset="1" stop-color="#FFED82"/>
</linearGradient>
<linearGradient id="paint42_linear_0_1111" x1="53.8662" y1="87.4128" x2="71.9229" y2="100.095" gradientUnits="userSpaceOnUse">
<stop stop-color="#7C8A1A" stop-opacity="0.01"/>
<stop offset="0.3152" stop-color="#768319" stop-opacity="0.315"/>
<stop offset="0.7806" stop-color="#646F15" stop-opacity="0.781"/>
<stop offset="1" stop-color="#5A6313"/>
</linearGradient>
<linearGradient id="paint43_linear_0_1111" x1="69.5253" y1="59.8325" x2="66.0628" y2="71.1392" gradientUnits="userSpaceOnUse">
<stop stop-color="#C4D143"/>
<stop offset="1" stop-color="#7C8A1A"/>
</linearGradient>
<linearGradient id="paint44_linear_0_1111" x1="77.9954" y1="66.9502" x2="80.4149" y2="59.05" gradientUnits="userSpaceOnUse">
<stop stop-color="#C4D143" stop-opacity="0.01"/>
<stop offset="1" stop-color="#FFED82"/>
</linearGradient>
<linearGradient id="paint45_linear_0_1111" x1="66.0774" y1="73.912" x2="84.134" y2="86.5941" gradientUnits="userSpaceOnUse">
<stop stop-color="#7C8A1A" stop-opacity="0.01"/>
<stop offset="0.3152" stop-color="#768319" stop-opacity="0.315"/>
<stop offset="0.7806" stop-color="#646F15" stop-opacity="0.781"/>
<stop offset="1" stop-color="#5A6313"/>
</linearGradient>
<linearGradient id="paint46_linear_0_1111" x1="64.0269" y1="49.5561" x2="60.5643" y2="60.8628" gradientUnits="userSpaceOnUse">
<stop stop-color="#C4D143"/>
<stop offset="1" stop-color="#7C8A1A"/>
</linearGradient>
<linearGradient id="paint47_linear_0_1111" x1="72.4971" y1="56.6738" x2="74.9166" y2="48.7734" gradientUnits="userSpaceOnUse">
<stop stop-color="#C4D143" stop-opacity="0.01"/>
<stop offset="1" stop-color="#FFED82"/>
</linearGradient>
<linearGradient id="paint48_linear_0_1111" x1="60.5791" y1="63.6356" x2="78.6357" y2="76.3177" gradientUnits="userSpaceOnUse">
<stop stop-color="#7C8A1A" stop-opacity="0.01"/>
<stop offset="0.3152" stop-color="#768319" stop-opacity="0.315"/>
<stop offset="0.7806" stop-color="#646F15" stop-opacity="0.781"/>
<stop offset="1" stop-color="#5A6313"/>
</linearGradient>
<linearGradient id="paint49_linear_0_1111" x1="53.9812" y1="44.6923" x2="50.5188" y2="55.9991" gradientUnits="userSpaceOnUse">
<stop stop-color="#C4D143"/>
<stop offset="1" stop-color="#7C8A1A"/>
</linearGradient>
<linearGradient id="paint50_linear_0_1111" x1="62.4517" y1="51.8099" x2="64.8709" y2="43.9096" gradientUnits="userSpaceOnUse">
<stop stop-color="#C4D143" stop-opacity="0.01"/>
<stop offset="1" stop-color="#FFED82"/>
</linearGradient>
<linearGradient id="paint51_linear_0_1111" x1="50.5333" y1="58.7718" x2="68.5901" y2="71.454" gradientUnits="userSpaceOnUse">
<stop stop-color="#7C8A1A" stop-opacity="0.01"/>
<stop offset="0.3152" stop-color="#768319" stop-opacity="0.315"/>
<stop offset="0.7806" stop-color="#646F15" stop-opacity="0.781"/>
<stop offset="1" stop-color="#5A6313"/>
</linearGradient>
<linearGradient id="paint52_linear_0_1111" x1="63.8208" y1="63.8162" x2="60.3585" y2="75.123" gradientUnits="userSpaceOnUse">
<stop stop-color="#C4D143"/>
<stop offset="1" stop-color="#7C8A1A"/>
</linearGradient>
<linearGradient id="paint53_linear_0_1111" x1="72.2913" y1="70.9338" x2="74.7105" y2="63.0335" gradientUnits="userSpaceOnUse">
<stop stop-color="#C4D143" stop-opacity="0.01"/>
<stop offset="1" stop-color="#FFED82"/>
</linearGradient>
<linearGradient id="paint54_linear_0_1111" x1="60.373" y1="77.8957" x2="78.4298" y2="90.5779" gradientUnits="userSpaceOnUse">
<stop stop-color="#7C8A1A" stop-opacity="0.01"/>
<stop offset="0.3152" stop-color="#768319" stop-opacity="0.315"/>
<stop offset="0.7806" stop-color="#646F15" stop-opacity="0.781"/>
<stop offset="1" stop-color="#5A6313"/>
</linearGradient>
<linearGradient id="paint55_linear_0_1111" x1="58.6134" y1="53.3497" x2="55.1509" y2="64.6567" gradientUnits="userSpaceOnUse">
<stop stop-color="#C4D143"/>
<stop offset="1" stop-color="#7C8A1A"/>
</linearGradient>
<linearGradient id="paint56_linear_0_1111" x1="67.0838" y1="60.4676" x2="69.5032" y2="52.5672" gradientUnits="userSpaceOnUse">
<stop stop-color="#C4D143" stop-opacity="0.01"/>
<stop offset="1" stop-color="#FFED82"/>
</linearGradient>
<linearGradient id="paint57_linear_0_1111" x1="55.1655" y1="67.4293" x2="73.2222" y2="80.1116" gradientUnits="userSpaceOnUse">
<stop stop-color="#7C8A1A" stop-opacity="0.01"/>
<stop offset="0.3152" stop-color="#768319" stop-opacity="0.315"/>
<stop offset="0.7806" stop-color="#646F15" stop-opacity="0.781"/>
<stop offset="1" stop-color="#5A6313"/>
</linearGradient>
<linearGradient id="paint58_linear_0_1111" x1="72.7443" y1="66.8513" x2="60.7411" y2="38.8116" gradientUnits="userSpaceOnUse">
<stop stop-color="#C4D143" stop-opacity="0.01"/>
<stop offset="1" stop-color="#FFED82"/>
</linearGradient>
<linearGradient id="paint59_linear_0_1111" x1="72.9187" y1="67.0357" x2="81.0953" y2="52.2583" gradientUnits="userSpaceOnUse">
<stop stop-color="#5A6313" stop-opacity="0.01"/>
<stop offset="1" stop-color="#544F43"/>
</linearGradient>
<linearGradient id="paint60_linear_0_1111" x1="58.4297" y1="24.6832" x2="58.3061" y2="51.0075" gradientUnits="userSpaceOnUse">
<stop stop-color="#FFA325"/>
<stop offset="1" stop-color="#7C8A1A"/>
</linearGradient>
<linearGradient id="paint61_linear_0_1111" x1="76.4938" y1="46.4705" x2="87.964" y2="46.4047" gradientUnits="userSpaceOnUse">
<stop stop-color="#7C8A1A" stop-opacity="0.01"/>
<stop offset="1" stop-color="#5A6313"/>
</linearGradient>
<linearGradient id="paint62_linear_0_1111" x1="65.0653" y1="54.6772" x2="84.1287" y2="54.4918" gradientUnits="userSpaceOnUse">
<stop stop-color="#7C8A1A" stop-opacity="0.01"/>
<stop offset="1" stop-color="#5A6313"/>
</linearGradient>
<linearGradient id="paint63_linear_0_1111" x1="72.5497" y1="47.4452" x2="72.5395" y2="37.9088" gradientUnits="userSpaceOnUse">
<stop stop-color="#7C8A1A" stop-opacity="0.01"/>
<stop offset="1" stop-color="#5A6313"/>
</linearGradient>
<linearGradient id="paint64_linear_0_1111" x1="68.8235" y1="39.7758" x2="69.9955" y2="43.9405" gradientUnits="userSpaceOnUse">
<stop stop-color="#7C8A1A" stop-opacity="0.01"/>
<stop offset="1" stop-color="#544F43"/>
</linearGradient>
<linearGradient id="paint65_linear_0_1111" x1="64.3949" y1="35.4861" x2="66.4998" y2="42.9653" gradientUnits="userSpaceOnUse">
<stop stop-color="#7C8A1A" stop-opacity="0.01"/>
<stop offset="1" stop-color="#544F43"/>
</linearGradient>
<linearGradient id="paint66_linear_0_1111" x1="62.2507" y1="30.6994" x2="64.2851" y2="37.9285" gradientUnits="userSpaceOnUse">
<stop stop-color="#7C8A1A" stop-opacity="0.01"/>
<stop offset="1" stop-color="#544F43"/>
</linearGradient>
<linearGradient id="paint67_linear_0_1111" x1="76.4338" y1="40.3687" x2="75.6377" y2="44.4629" gradientUnits="userSpaceOnUse">
<stop stop-color="#7C8A1A" stop-opacity="0.01"/>
<stop offset="1" stop-color="#544F43"/>
</linearGradient>
<linearGradient id="paint68_linear_0_1111" x1="75.4193" y1="36.1108" x2="74.0625" y2="43.5181" gradientUnits="userSpaceOnUse">
<stop stop-color="#7C8A1A" stop-opacity="0.01"/>
<stop offset="1" stop-color="#544F43"/>
</linearGradient>
<linearGradient id="paint69_linear_0_1111" x1="77.6624" y1="31.5913" x2="76.0707" y2="38.6069" gradientUnits="userSpaceOnUse">
<stop stop-color="#7C8A1A" stop-opacity="0.01"/>
<stop offset="1" stop-color="#544F43"/>
</linearGradient>
<linearGradient id="paint70_linear_0_1111" x1="67.7708" y1="48.765" x2="71.3195" y2="49.4856" gradientUnits="userSpaceOnUse">
<stop stop-color="#7C8A1A" stop-opacity="0.01"/>
<stop offset="1" stop-color="#544F43"/>
</linearGradient>
<linearGradient id="paint71_linear_0_1111" x1="63.417" y1="47.3163" x2="67.725" y2="48.0501" gradientUnits="userSpaceOnUse">
<stop stop-color="#7C8A1A" stop-opacity="0.01"/>
<stop offset="1" stop-color="#544F43"/>
</linearGradient>
<linearGradient id="paint72_linear_0_1111" x1="58.0518" y1="45.1009" x2="62.1733" y2="47.2387" gradientUnits="userSpaceOnUse">
<stop stop-color="#7C8A1A" stop-opacity="0.01"/>
<stop offset="1" stop-color="#544F43"/>
</linearGradient>
<linearGradient id="paint73_linear_0_1111" x1="67.8677" y1="28.6205" x2="63.368" y2="43.4388" gradientUnits="userSpaceOnUse">
<stop stop-color="#FFA325"/>
<stop offset="1" stop-color="#5A6313"/>
</linearGradient>
<linearGradient id="paint74_linear_0_1111" x1="83.8393" y1="57.3578" x2="81.4954" y2="54.7283" gradientUnits="userSpaceOnUse">
<stop stop-color="#5A6313" stop-opacity="0.01"/>
<stop offset="1" stop-color="#544F43"/>
</linearGradient>
<linearGradient id="paint75_linear_0_1111" x1="76.8032" y1="52.4795" x2="78.8085" y2="54.0669" gradientUnits="userSpaceOnUse">
<stop stop-color="#5A6313" stop-opacity="0.01"/>
<stop offset="1" stop-color="#544F43"/>
</linearGradient>
<linearGradient id="paint76_linear_0_1111" x1="10.287" y1="57.6846" x2="36.2436" y2="93.1382" gradientUnits="userSpaceOnUse">
<stop stop-color="#FFA325"/>
<stop offset="1" stop-color="#F82814"/>
</linearGradient>
<linearGradient id="paint77_linear_0_1111" x1="48.9089" y1="73.501" x2="52.8229" y2="75.2413" gradientUnits="userSpaceOnUse">
<stop stop-color="#F82814" stop-opacity="0.01"/>
<stop offset="1" stop-color="#C0272D"/>
</linearGradient>
<linearGradient id="paint78_linear_0_1111" x1="50.1306" y1="78.3407" x2="51.9306" y2="79.141" gradientUnits="userSpaceOnUse">
<stop stop-color="#F82814" stop-opacity="0.01"/>
<stop offset="1" stop-color="#C0272D"/>
</linearGradient>
<linearGradient id="paint79_linear_0_1111" x1="46.7962" y1="76.7669" x2="50.3733" y2="78.3575" gradientUnits="userSpaceOnUse">
<stop stop-color="#F82814" stop-opacity="0.01"/>
<stop offset="1" stop-color="#C0272D"/>
</linearGradient>
<linearGradient id="paint80_linear_0_1111" x1="35.9098" y1="80.9165" x2="52.7558" y2="93.2835" gradientUnits="userSpaceOnUse">
<stop stop-color="#F82814" stop-opacity="0.01"/>
<stop offset="1" stop-color="#C0272D"/>
</linearGradient>
<linearGradient id="paint81_linear_0_1111" x1="42.861" y1="48.5259" x2="46.0348" y2="50.7591" gradientUnits="userSpaceOnUse">
<stop stop-color="#C7732E"/>
<stop offset="0.2408" stop-color="#C2722F"/>
<stop offset="0.5284" stop-color="#B36D32"/>
<stop offset="0.8388" stop-color="#9B6636"/>
<stop offset="1" stop-color="#8C6239"/>
</linearGradient>
<linearGradient id="paint82_linear_0_1111" x1="39.8785" y1="53.1904" x2="38.9202" y2="57.824" gradientUnits="userSpaceOnUse">
<stop stop-color="#F82814" stop-opacity="0.01"/>
<stop offset="1" stop-color="#C0272D"/>
</linearGradient>
</defs>
</svg>
