<svg width="18" height="13" viewBox="0 0 18 13" fill="none" xmlns="http://www.w3.org/2000/svg">
<path fill-rule="evenodd" clip-rule="evenodd" d="M1.90186 12.3428C1.64406 12.2533 0.727186 11.9347 0.402428 10.7828C-0.146999 7.85672 -0.1208 4.7211 0.402428 1.98818C0.407432 1.9797 0.414896 1.95757 0.426066 1.92446C0.513479 1.66532 0.827839 0.733399 1.96612 0.403528C3.83822 -0.109969 14.2159 -0.0912552 16.0379 0.403528C16.0465 0.40876 16.0688 0.416517 16.1021 0.428109C16.36 0.51769 17.2768 0.836284 17.6016 1.98818L17.5791 1.84147C18.1226 4.79221 18.0904 8.18234 17.6016 10.7828C17.5966 10.7912 17.5891 10.8134 17.5779 10.8465C17.4905 11.1058 17.1761 12.0382 16.0379 12.3674C14.1636 12.8719 3.81277 12.8704 1.96612 12.3674C1.95755 12.3622 1.93522 12.3544 1.90186 12.3428ZM7.20364 3.65967V9.11876L11.894 6.39333L7.20364 3.65967Z" fill="#E53935"/>
</svg>
